ISO-10303-21;
HEADER;
/* Generated by software containing ST-Developer
 * from STEP Tools, Inc. (www.steptools.com) 
 */

FILE_DESCRIPTION(
/* description */ (''),
/* implementation_level */ '2;1');

FILE_NAME(
/* name */ 'Lock.step',
/* time_stamp */ '2026-04-09T15:04:49+02:00',
/* author */ (''),
/* organization */ (''),
/* preprocessor_version */ 'ST-DEVELOPER v20.1',
/* originating_system */ 'Autodesk Translation Framework v14.24.0.0',
/* authorisation */ '');

FILE_SCHEMA (('AUTOMOTIVE_DESIGN { 1 0 10303 214 3 1 1 }'));
ENDSEC;

DATA;
#10=MECHANICAL_DESIGN_GEOMETRIC_PRESENTATION_REPRESENTATION('',(#13),#1620);
#11=SHAPE_REPRESENTATION_RELATIONSHIP('SRR','None',#1627,#12);
#12=ADVANCED_BREP_SHAPE_REPRESENTATION('',(#14),#1619);
#13=STYLED_ITEM('',(#1637),#14);
#14=MANIFOLD_SOLID_BREP('Body1',#1016);
#15=FACE_BOUND('',#117,.T.);
#16=FACE_BOUND('',#119,.T.);
#17=FACE_BOUND('',#126,.T.);
#18=CIRCLE('',#1071,1.15);
#19=CIRCLE('',#1072,1.15);
#20=CIRCLE('',#1074,3.5);
#21=CIRCLE('',#1075,3.5);
#22=CYLINDRICAL_SURFACE('',#1070,1.15);
#23=CYLINDRICAL_SURFACE('',#1073,3.5);
#24=FACE_OUTER_BOUND('',#74,.T.);
#25=FACE_OUTER_BOUND('',#75,.T.);
#26=FACE_OUTER_BOUND('',#76,.T.);
#27=FACE_OUTER_BOUND('',#77,.T.);
#28=FACE_OUTER_BOUND('',#78,.T.);
#29=FACE_OUTER_BOUND('',#79,.T.);
#30=FACE_OUTER_BOUND('',#80,.T.);
#31=FACE_OUTER_BOUND('',#81,.T.);
#32=FACE_OUTER_BOUND('',#82,.T.);
#33=FACE_OUTER_BOUND('',#83,.T.);
#34=FACE_OUTER_BOUND('',#84,.T.);
#35=FACE_OUTER_BOUND('',#85,.T.);
#36=FACE_OUTER_BOUND('',#86,.T.);
#37=FACE_OUTER_BOUND('',#87,.T.);
#38=FACE_OUTER_BOUND('',#88,.T.);
#39=FACE_OUTER_BOUND('',#89,.T.);
#40=FACE_OUTER_BOUND('',#90,.T.);
#41=FACE_OUTER_BOUND('',#91,.T.);
#42=FACE_OUTER_BOUND('',#92,.T.);
#43=FACE_OUTER_BOUND('',#93,.T.);
#44=FACE_OUTER_BOUND('',#94,.T.);
#45=FACE_OUTER_BOUND('',#95,.T.);
#46=FACE_OUTER_BOUND('',#96,.T.);
#47=FACE_OUTER_BOUND('',#97,.T.);
#48=FACE_OUTER_BOUND('',#98,.T.);
#49=FACE_OUTER_BOUND('',#99,.T.);
#50=FACE_OUTER_BOUND('',#100,.T.);
#51=FACE_OUTER_BOUND('',#101,.T.);
#52=FACE_OUTER_BOUND('',#102,.T.);
#53=FACE_OUTER_BOUND('',#103,.T.);
#54=FACE_OUTER_BOUND('',#104,.T.);
#55=FACE_OUTER_BOUND('',#105,.T.);
#56=FACE_OUTER_BOUND('',#106,.T.);
#57=FACE_OUTER_BOUND('',#107,.T.);
#58=FACE_OUTER_BOUND('',#108,.T.);
#59=FACE_OUTER_BOUND('',#109,.T.);
#60=FACE_OUTER_BOUND('',#110,.T.);
#61=FACE_OUTER_BOUND('',#111,.T.);
#62=FACE_OUTER_BOUND('',#112,.T.);
#63=FACE_OUTER_BOUND('',#113,.T.);
#64=FACE_OUTER_BOUND('',#114,.T.);
#65=FACE_OUTER_BOUND('',#115,.T.);
#66=FACE_OUTER_BOUND('',#116,.T.);
#67=FACE_OUTER_BOUND('',#118,.T.);
#68=FACE_OUTER_BOUND('',#120,.T.);
#69=FACE_OUTER_BOUND('',#121,.T.);
#70=FACE_OUTER_BOUND('',#122,.T.);
#71=FACE_OUTER_BOUND('',#123,.T.);
#72=FACE_OUTER_BOUND('',#124,.T.);
#73=FACE_OUTER_BOUND('',#125,.T.);
#74=EDGE_LOOP('',(#636,#637,#638,#639));
#75=EDGE_LOOP('',(#640,#641,#642,#643));
#76=EDGE_LOOP('',(#644,#645,#646,#647));
#77=EDGE_LOOP('',(#648,#649,#650,#651));
#78=EDGE_LOOP('',(#652,#653,#654,#655));
#79=EDGE_LOOP('',(#656,#657,#658,#659));
#80=EDGE_LOOP('',(#660,#661,#662,#663));
#81=EDGE_LOOP('',(#664,#665,#666,#667));
#82=EDGE_LOOP('',(#668,#669,#670,#671,#672,#673,#674));
#83=EDGE_LOOP('',(#675,#676,#677,#678,#679,#680,#681));
#84=EDGE_LOOP('',(#682,#683,#684,#685));
#85=EDGE_LOOP('',(#686,#687,#688,#689));
#86=EDGE_LOOP('',(#690,#691,#692,#693,#694,#695,#696));
#87=EDGE_LOOP('',(#697,#698,#699,#700,#701));
#88=EDGE_LOOP('',(#702,#703,#704,#705));
#89=EDGE_LOOP('',(#706,#707,#708,#709,#710,#711,#712));
#90=EDGE_LOOP('',(#713,#714,#715,#716,#717,#718,#719));
#91=EDGE_LOOP('',(#720,#721,#722,#723));
#92=EDGE_LOOP('',(#724,#725,#726,#727));
#93=EDGE_LOOP('',(#728,#729,#730,#731,#732));
#94=EDGE_LOOP('',(#733,#734,#735,#736,#737,#738,#739));
#95=EDGE_LOOP('',(#740,#741,#742,#743,#744));
#96=EDGE_LOOP('',(#745,#746,#747,#748));
#97=EDGE_LOOP('',(#749,#750,#751,#752));
#98=EDGE_LOOP('',(#753,#754,#755,#756));
#99=EDGE_LOOP('',(#757,#758,#759,#760));
#100=EDGE_LOOP('',(#761,#762,#763,#764));
#101=EDGE_LOOP('',(#765,#766,#767,#768,#769));
#102=EDGE_LOOP('',(#770,#771,#772,#773));
#103=EDGE_LOOP('',(#774,#775,#776,#777));
#104=EDGE_LOOP('',(#778,#779,#780,#781,#782,#783,#784,#785));
#105=EDGE_LOOP('',(#786,#787,#788,#789,#790));
#106=EDGE_LOOP('',(#791,#792,#793,#794));
#107=EDGE_LOOP('',(#795,#796,#797,#798));
#108=EDGE_LOOP('',(#799,#800,#801,#802,#803));
#109=EDGE_LOOP('',(#804,#805,#806,#807));
#110=EDGE_LOOP('',(#808,#809,#810,#811,#812,#813,#814,#815));
#111=EDGE_LOOP('',(#816,#817,#818,#819,#820));
#112=EDGE_LOOP('',(#821,#822,#823,#824));
#113=EDGE_LOOP('',(#825,#826,#827,#828,#829));
#114=EDGE_LOOP('',(#830,#831,#832,#833));
#115=EDGE_LOOP('',(#834,#835,#836,#837));
#116=EDGE_LOOP('',(#838,#839));
#117=EDGE_LOOP('',(#840));
#118=EDGE_LOOP('',(#841,#842));
#119=EDGE_LOOP('',(#843));
#120=EDGE_LOOP('',(#844,#845,#846,#847,#848,#849,#850,#851,#852,#853,#854,
#855,#856,#857,#858,#859,#860,#861,#862,#863,#864,#865,#866,#867,#868,#869,
#870,#871));
#121=EDGE_LOOP('',(#872,#873,#874,#875,#876,#877,#878,#879));
#122=EDGE_LOOP('',(#880,#881,#882,#883,#884,#885,#886));
#123=EDGE_LOOP('',(#887,#888,#889,#890,#891,#892,#893));
#124=EDGE_LOOP('',(#894,#895,#896,#897,#898,#899,#900,#901));
#125=EDGE_LOOP('',(#902,#903,#904,#905,#906,#907,#908,#909,#910,#911,#912,
#913));
#126=EDGE_LOOP('',(#914,#915,#916,#917));
#127=LINE('',#1335,#264);
#128=LINE('',#1337,#265);
#129=LINE('',#1339,#266);
#130=LINE('',#1340,#267);
#131=LINE('',#1344,#268);
#132=LINE('',#1346,#269);
#133=LINE('',#1348,#270);
#134=LINE('',#1349,#271);
#135=LINE('',#1353,#272);
#136=LINE('',#1355,#273);
#137=LINE('',#1357,#274);
#138=LINE('',#1358,#275);
#139=LINE('',#1362,#276);
#140=LINE('',#1364,#277);
#141=LINE('',#1366,#278);
#142=LINE('',#1367,#279);
#143=LINE('',#1371,#280);
#144=LINE('',#1373,#281);
#145=LINE('',#1375,#282);
#146=LINE('',#1376,#283);
#147=LINE('',#1380,#284);
#148=LINE('',#1382,#285);
#149=LINE('',#1384,#286);
#150=LINE('',#1385,#287);
#151=LINE('',#1389,#288);
#152=LINE('',#1391,#289);
#153=LINE('',#1393,#290);
#154=LINE('',#1394,#291);
#155=LINE('',#1398,#292);
#156=LINE('',#1400,#293);
#157=LINE('',#1402,#294);
#158=LINE('',#1403,#295);
#159=LINE('',#1406,#296);
#160=LINE('',#1408,#297);
#161=LINE('',#1410,#298);
#162=LINE('',#1412,#299);
#163=LINE('',#1414,#300);
#164=LINE('',#1415,#301);
#165=LINE('',#1417,#302);
#166=LINE('',#1419,#303);
#167=LINE('',#1421,#304);
#168=LINE('',#1423,#305);
#169=LINE('',#1424,#306);
#170=LINE('',#1427,#307);
#171=LINE('',#1428,#308);
#172=LINE('',#1431,#309);
#173=LINE('',#1432,#310);
#174=LINE('',#1435,#311);
#175=LINE('',#1437,#312);
#176=LINE('',#1439,#313);
#177=LINE('',#1441,#314);
#178=LINE('',#1443,#315);
#179=LINE('',#1444,#316);
#180=LINE('',#1447,#317);
#181=LINE('',#1449,#318);
#182=LINE('',#1450,#319);
#183=LINE('',#1453,#320);
#184=LINE('',#1455,#321);
#185=LINE('',#1456,#322);
#186=LINE('',#1459,#323);
#187=LINE('',#1461,#324);
#188=LINE('',#1463,#325);
#189=LINE('',#1465,#326);
#190=LINE('',#1467,#327);
#191=LINE('',#1468,#328);
#192=LINE('',#1470,#329);
#193=LINE('',#1472,#330);
#194=LINE('',#1474,#331);
#195=LINE('',#1476,#332);
#196=LINE('',#1477,#333);
#197=LINE('',#1480,#334);
#198=LINE('',#1481,#335);
#199=LINE('',#1484,#336);
#200=LINE('',#1485,#337);
#201=LINE('',#1488,#338);
#202=LINE('',#1490,#339);
#203=LINE('',#1491,#340);
#204=LINE('',#1494,#341);
#205=LINE('',#1496,#342);
#206=LINE('',#1498,#343);
#207=LINE('',#1500,#344);
#208=LINE('',#1502,#345);
#209=LINE('',#1503,#346);
#210=LINE('',#1506,#347);
#211=LINE('',#1508,#348);
#212=LINE('',#1510,#349);
#213=LINE('',#1511,#350);
#214=LINE('',#1514,#351);
#215=LINE('',#1515,#352);
#216=LINE('',#1517,#353);
#217=LINE('',#1520,#354);
#218=LINE('',#1521,#355);
#219=LINE('',#1524,#356);
#220=LINE('',#1525,#357);
#221=LINE('',#1528,#358);
#222=LINE('',#1529,#359);
#223=LINE('',#1532,#360);
#224=LINE('',#1533,#361);
#225=LINE('',#1535,#362);
#226=LINE('',#1538,#363);
#227=LINE('',#1539,#364);
#228=LINE('',#1542,#365);
#229=LINE('',#1544,#366);
#230=LINE('',#1546,#367);
#231=LINE('',#1548,#368);
#232=LINE('',#1550,#369);
#233=LINE('',#1551,#370);
#234=LINE('',#1553,#371);
#235=LINE('',#1555,#372);
#236=LINE('',#1556,#373);
#237=LINE('',#1559,#374);
#238=LINE('',#1560,#375);
#239=LINE('',#1562,#376);
#240=LINE('',#1565,#377);
#241=LINE('',#1566,#378);
#242=LINE('',#1569,#379);
#243=LINE('',#1571,#380);
#244=LINE('',#1573,#381);
#245=LINE('',#1574,#382);
#246=LINE('',#1575,#383);
#247=LINE('',#1577,#384);
#248=LINE('',#1579,#385);
#249=LINE('',#1581,#386);
#250=LINE('',#1586,#387);
#251=LINE('',#1593,#388);
#252=LINE('',#1596,#389);
#253=LINE('',#1598,#390);
#254=LINE('',#1600,#391);
#255=LINE('',#1602,#392);
#256=LINE('',#1603,#393);
#257=LINE('',#1604,#394);
#258=LINE('',#1605,#395);
#259=LINE('',#1607,#396);
#260=LINE('',#1609,#397);
#261=LINE('',#1612,#398);
#262=LINE('',#1613,#399);
#263=LINE('',#1615,#400);
#264=VECTOR('',#1088,10.);
#265=VECTOR('',#1089,10.);
#266=VECTOR('',#1090,10.);
#267=VECTOR('',#1091,10.);
#268=VECTOR('',#1094,10.);
#269=VECTOR('',#1095,10.);
#270=VECTOR('',#1096,10.);
#271=VECTOR('',#1097,10.);
#272=VECTOR('',#1100,10.);
#273=VECTOR('',#1101,10.);
#274=VECTOR('',#1102,10.);
#275=VECTOR('',#1103,10.);
#276=VECTOR('',#1106,10.);
#277=VECTOR('',#1107,10.);
#278=VECTOR('',#1108,10.);
#279=VECTOR('',#1109,10.);
#280=VECTOR('',#1112,10.);
#281=VECTOR('',#1113,10.);
#282=VECTOR('',#1114,10.);
#283=VECTOR('',#1115,10.);
#284=VECTOR('',#1118,10.);
#285=VECTOR('',#1119,10.);
#286=VECTOR('',#1120,10.);
#287=VECTOR('',#1121,10.);
#288=VECTOR('',#1124,10.);
#289=VECTOR('',#1125,10.);
#290=VECTOR('',#1126,10.);
#291=VECTOR('',#1127,10.);
#292=VECTOR('',#1130,10.);
#293=VECTOR('',#1131,10.);
#294=VECTOR('',#1132,10.);
#295=VECTOR('',#1133,10.);
#296=VECTOR('',#1136,10.);
#297=VECTOR('',#1137,10.);
#298=VECTOR('',#1138,10.);
#299=VECTOR('',#1139,10.);
#300=VECTOR('',#1140,10.);
#301=VECTOR('',#1141,10.);
#302=VECTOR('',#1144,10.);
#303=VECTOR('',#1145,10.);
#304=VECTOR('',#1146,10.);
#305=VECTOR('',#1147,10.);
#306=VECTOR('',#1148,10.);
#307=VECTOR('',#1151,10.);
#308=VECTOR('',#1152,10.);
#309=VECTOR('',#1155,10.);
#310=VECTOR('',#1156,10.);
#311=VECTOR('',#1159,10.);
#312=VECTOR('',#1160,10.);
#313=VECTOR('',#1161,10.);
#314=VECTOR('',#1162,10.);
#315=VECTOR('',#1163,10.);
#316=VECTOR('',#1164,10.);
#317=VECTOR('',#1167,10.);
#318=VECTOR('',#1168,10.);
#319=VECTOR('',#1169,10.);
#320=VECTOR('',#1172,10.);
#321=VECTOR('',#1173,10.);
#322=VECTOR('',#1174,10.);
#323=VECTOR('',#1177,10.);
#324=VECTOR('',#1178,10.);
#325=VECTOR('',#1179,10.);
#326=VECTOR('',#1180,10.);
#327=VECTOR('',#1181,10.);
#328=VECTOR('',#1182,10.);
#329=VECTOR('',#1185,10.);
#330=VECTOR('',#1186,10.);
#331=VECTOR('',#1187,10.);
#332=VECTOR('',#1188,10.);
#333=VECTOR('',#1189,10.);
#334=VECTOR('',#1192,10.);
#335=VECTOR('',#1193,10.);
#336=VECTOR('',#1196,10.);
#337=VECTOR('',#1197,10.);
#338=VECTOR('',#1200,10.);
#339=VECTOR('',#1201,10.);
#340=VECTOR('',#1202,10.);
#341=VECTOR('',#1205,10.);
#342=VECTOR('',#1206,10.);
#343=VECTOR('',#1207,10.);
#344=VECTOR('',#1208,10.);
#345=VECTOR('',#1209,10.);
#346=VECTOR('',#1210,10.);
#347=VECTOR('',#1213,10.);
#348=VECTOR('',#1214,10.);
#349=VECTOR('',#1215,10.);
#350=VECTOR('',#1216,10.);
#351=VECTOR('',#1219,10.);
#352=VECTOR('',#1220,10.);
#353=VECTOR('',#1223,10.);
#354=VECTOR('',#1226,10.);
#355=VECTOR('',#1227,10.);
#356=VECTOR('',#1230,10.);
#357=VECTOR('',#1231,10.);
#358=VECTOR('',#1234,10.);
#359=VECTOR('',#1235,10.);
#360=VECTOR('',#1238,10.);
#361=VECTOR('',#1239,10.);
#362=VECTOR('',#1242,10.);
#363=VECTOR('',#1245,10.);
#364=VECTOR('',#1246,10.);
#365=VECTOR('',#1249,10.);
#366=VECTOR('',#1250,10.);
#367=VECTOR('',#1251,10.);
#368=VECTOR('',#1252,10.);
#369=VECTOR('',#1253,10.);
#370=VECTOR('',#1254,10.);
#371=VECTOR('',#1257,10.);
#372=VECTOR('',#1260,10.);
#373=VECTOR('',#1261,10.);
#374=VECTOR('',#1264,10.);
#375=VECTOR('',#1265,10.);
#376=VECTOR('',#1268,10.);
#377=VECTOR('',#1271,10.);
#378=VECTOR('',#1272,10.);
#379=VECTOR('',#1275,10.);
#380=VECTOR('',#1276,10.);
#381=VECTOR('',#1277,10.);
#382=VECTOR('',#1278,10.);
#383=VECTOR('',#1279,10.);
#384=VECTOR('',#1282,10.);
#385=VECTOR('',#1285,10.);
#386=VECTOR('',#1288,10.);
#387=VECTOR('',#1293,1.15);
#388=VECTOR('',#1300,10.);
#389=VECTOR('',#1303,10.);
#390=VECTOR('',#1306,10.);
#391=VECTOR('',#1309,10.);
#392=VECTOR('',#1312,10.);
#393=VECTOR('',#1313,10.);
#394=VECTOR('',#1314,10.);
#395=VECTOR('',#1315,10.);
#396=VECTOR('',#1318,10.);
#397=VECTOR('',#1321,10.);
#398=VECTOR('',#1324,10.);
#399=VECTOR('',#1325,10.);
#400=VECTOR('',#1328,10.);
#401=VERTEX_POINT('',#1333);
#402=VERTEX_POINT('',#1334);
#403=VERTEX_POINT('',#1336);
#404=VERTEX_POINT('',#1338);
#405=VERTEX_POINT('',#1342);
#406=VERTEX_POINT('',#1343);
#407=VERTEX_POINT('',#1345);
#408=VERTEX_POINT('',#1347);
#409=VERTEX_POINT('',#1351);
#410=VERTEX_POINT('',#1352);
#411=VERTEX_POINT('',#1354);
#412=VERTEX_POINT('',#1356);
#413=VERTEX_POINT('',#1360);
#414=VERTEX_POINT('',#1361);
#415=VERTEX_POINT('',#1363);
#416=VERTEX_POINT('',#1365);
#417=VERTEX_POINT('',#1369);
#418=VERTEX_POINT('',#1370);
#419=VERTEX_POINT('',#1372);
#420=VERTEX_POINT('',#1374);
#421=VERTEX_POINT('',#1378);
#422=VERTEX_POINT('',#1379);
#423=VERTEX_POINT('',#1381);
#424=VERTEX_POINT('',#1383);
#425=VERTEX_POINT('',#1387);
#426=VERTEX_POINT('',#1388);
#427=VERTEX_POINT('',#1390);
#428=VERTEX_POINT('',#1392);
#429=VERTEX_POINT('',#1396);
#430=VERTEX_POINT('',#1397);
#431=VERTEX_POINT('',#1399);
#432=VERTEX_POINT('',#1401);
#433=VERTEX_POINT('',#1405);
#434=VERTEX_POINT('',#1407);
#435=VERTEX_POINT('',#1409);
#436=VERTEX_POINT('',#1411);
#437=VERTEX_POINT('',#1413);
#438=VERTEX_POINT('',#1418);
#439=VERTEX_POINT('',#1420);
#440=VERTEX_POINT('',#1422);
#441=VERTEX_POINT('',#1426);
#442=VERTEX_POINT('',#1430);
#443=VERTEX_POINT('',#1434);
#444=VERTEX_POINT('',#1436);
#445=VERTEX_POINT('',#1438);
#446=VERTEX_POINT('',#1440);
#447=VERTEX_POINT('',#1442);
#448=VERTEX_POINT('',#1446);
#449=VERTEX_POINT('',#1448);
#450=VERTEX_POINT('',#1452);
#451=VERTEX_POINT('',#1454);
#452=VERTEX_POINT('',#1458);
#453=VERTEX_POINT('',#1460);
#454=VERTEX_POINT('',#1462);
#455=VERTEX_POINT('',#1464);
#456=VERTEX_POINT('',#1466);
#457=VERTEX_POINT('',#1471);
#458=VERTEX_POINT('',#1473);
#459=VERTEX_POINT('',#1475);
#460=VERTEX_POINT('',#1479);
#461=VERTEX_POINT('',#1483);
#462=VERTEX_POINT('',#1487);
#463=VERTEX_POINT('',#1489);
#464=VERTEX_POINT('',#1493);
#465=VERTEX_POINT('',#1495);
#466=VERTEX_POINT('',#1497);
#467=VERTEX_POINT('',#1499);
#468=VERTEX_POINT('',#1501);
#469=VERTEX_POINT('',#1505);
#470=VERTEX_POINT('',#1507);
#471=VERTEX_POINT('',#1509);
#472=VERTEX_POINT('',#1513);
#473=VERTEX_POINT('',#1519);
#474=VERTEX_POINT('',#1523);
#475=VERTEX_POINT('',#1527);
#476=VERTEX_POINT('',#1531);
#477=VERTEX_POINT('',#1537);
#478=VERTEX_POINT('',#1541);
#479=VERTEX_POINT('',#1543);
#480=VERTEX_POINT('',#1545);
#481=VERTEX_POINT('',#1547);
#482=VERTEX_POINT('',#1549);
#483=VERTEX_POINT('',#1558);
#484=VERTEX_POINT('',#1564);
#485=VERTEX_POINT('',#1568);
#486=VERTEX_POINT('',#1570);
#487=VERTEX_POINT('',#1572);
#488=VERTEX_POINT('',#1583);
#489=VERTEX_POINT('',#1585);
#490=VERTEX_POINT('',#1589);
#491=VERTEX_POINT('',#1590);
#492=VERTEX_POINT('',#1592);
#493=VERTEX_POINT('',#1594);
#494=VERTEX_POINT('',#1611);
#495=EDGE_CURVE('',#401,#402,#127,.T.);
#496=EDGE_CURVE('',#403,#401,#128,.T.);
#497=EDGE_CURVE('',#404,#403,#129,.T.);
#498=EDGE_CURVE('',#402,#404,#130,.T.);
#499=EDGE_CURVE('',#405,#406,#131,.T.);
#500=EDGE_CURVE('',#407,#405,#132,.T.);
#501=EDGE_CURVE('',#408,#407,#133,.T.);
#502=EDGE_CURVE('',#406,#408,#134,.T.);
#503=EDGE_CURVE('',#409,#410,#135,.T.);
#504=EDGE_CURVE('',#411,#409,#136,.T.);
#505=EDGE_CURVE('',#412,#411,#137,.T.);
#506=EDGE_CURVE('',#410,#412,#138,.T.);
#507=EDGE_CURVE('',#413,#414,#139,.T.);
#508=EDGE_CURVE('',#415,#413,#140,.T.);
#509=EDGE_CURVE('',#416,#415,#141,.T.);
#510=EDGE_CURVE('',#414,#416,#142,.T.);
#511=EDGE_CURVE('',#417,#418,#143,.T.);
#512=EDGE_CURVE('',#419,#417,#144,.T.);
#513=EDGE_CURVE('',#420,#419,#145,.T.);
#514=EDGE_CURVE('',#418,#420,#146,.T.);
#515=EDGE_CURVE('',#421,#422,#147,.T.);
#516=EDGE_CURVE('',#423,#421,#148,.T.);
#517=EDGE_CURVE('',#424,#423,#149,.T.);
#518=EDGE_CURVE('',#422,#424,#150,.T.);
#519=EDGE_CURVE('',#425,#426,#151,.T.);
#520=EDGE_CURVE('',#427,#425,#152,.T.);
#521=EDGE_CURVE('',#428,#427,#153,.T.);
#522=EDGE_CURVE('',#426,#428,#154,.T.);
#523=EDGE_CURVE('',#429,#430,#155,.T.);
#524=EDGE_CURVE('',#431,#429,#156,.T.);
#525=EDGE_CURVE('',#432,#431,#157,.T.);
#526=EDGE_CURVE('',#430,#432,#158,.T.);
#527=EDGE_CURVE('',#430,#433,#159,.T.);
#528=EDGE_CURVE('',#433,#434,#160,.T.);
#529=EDGE_CURVE('',#435,#434,#161,.T.);
#530=EDGE_CURVE('',#436,#435,#162,.T.);
#531=EDGE_CURVE('',#437,#436,#163,.T.);
#532=EDGE_CURVE('',#429,#437,#164,.T.);
#533=EDGE_CURVE('',#433,#409,#165,.T.);
#534=EDGE_CURVE('',#410,#438,#166,.T.);
#535=EDGE_CURVE('',#439,#438,#167,.T.);
#536=EDGE_CURVE('',#439,#440,#168,.T.);
#537=EDGE_CURVE('',#434,#440,#169,.T.);
#538=EDGE_CURVE('',#412,#441,#170,.T.);
#539=EDGE_CURVE('',#438,#441,#171,.T.);
#540=EDGE_CURVE('',#442,#437,#172,.T.);
#541=EDGE_CURVE('',#442,#431,#173,.T.);
#542=EDGE_CURVE('',#443,#404,#174,.T.);
#543=EDGE_CURVE('',#444,#403,#175,.T.);
#544=EDGE_CURVE('',#445,#444,#176,.T.);
#545=EDGE_CURVE('',#445,#446,#177,.T.);
#546=EDGE_CURVE('',#447,#446,#178,.T.);
#547=EDGE_CURVE('',#443,#447,#179,.T.);
#548=EDGE_CURVE('',#411,#448,#180,.T.);
#549=EDGE_CURVE('',#449,#448,#181,.T.);
#550=EDGE_CURVE('',#441,#449,#182,.T.);
#551=EDGE_CURVE('',#425,#450,#183,.T.);
#552=EDGE_CURVE('',#451,#450,#184,.T.);
#553=EDGE_CURVE('',#451,#427,#185,.T.);
#554=EDGE_CURVE('',#407,#452,#186,.T.);
#555=EDGE_CURVE('',#452,#453,#187,.T.);
#556=EDGE_CURVE('',#454,#453,#188,.T.);
#557=EDGE_CURVE('',#455,#454,#189,.T.);
#558=EDGE_CURVE('',#456,#455,#190,.T.);
#559=EDGE_CURVE('',#456,#408,#191,.T.);
#560=EDGE_CURVE('',#452,#421,#192,.T.);
#561=EDGE_CURVE('',#457,#422,#193,.T.);
#562=EDGE_CURVE('',#458,#457,#194,.T.);
#563=EDGE_CURVE('',#458,#459,#195,.T.);
#564=EDGE_CURVE('',#453,#459,#196,.T.);
#565=EDGE_CURVE('',#424,#460,#197,.T.);
#566=EDGE_CURVE('',#457,#460,#198,.T.);
#567=EDGE_CURVE('',#461,#456,#199,.T.);
#568=EDGE_CURVE('',#461,#406,#200,.T.);
#569=EDGE_CURVE('',#423,#462,#201,.T.);
#570=EDGE_CURVE('',#463,#462,#202,.T.);
#571=EDGE_CURVE('',#460,#463,#203,.T.);
#572=EDGE_CURVE('',#464,#416,#204,.T.);
#573=EDGE_CURVE('',#465,#415,#205,.T.);
#574=EDGE_CURVE('',#466,#465,#206,.T.);
#575=EDGE_CURVE('',#466,#467,#207,.T.);
#576=EDGE_CURVE('',#468,#467,#208,.T.);
#577=EDGE_CURVE('',#464,#468,#209,.T.);
#578=EDGE_CURVE('',#469,#419,#210,.T.);
#579=EDGE_CURVE('',#470,#469,#211,.T.);
#580=EDGE_CURVE('',#471,#470,#212,.T.);
#581=EDGE_CURVE('',#471,#420,#213,.T.);
#582=EDGE_CURVE('',#417,#472,#214,.T.);
#583=EDGE_CURVE('',#469,#472,#215,.T.);
#584=EDGE_CURVE('',#463,#458,#216,.T.);
#585=EDGE_CURVE('',#472,#473,#217,.T.);
#586=EDGE_CURVE('',#473,#470,#218,.T.);
#587=EDGE_CURVE('',#413,#474,#219,.T.);
#588=EDGE_CURVE('',#465,#474,#220,.T.);
#589=EDGE_CURVE('',#455,#475,#221,.T.);
#590=EDGE_CURVE('',#475,#461,#222,.T.);
#591=EDGE_CURVE('',#476,#475,#223,.T.);
#592=EDGE_CURVE('',#476,#405,#224,.T.);
#593=EDGE_CURVE('',#449,#439,#225,.T.);
#594=EDGE_CURVE('',#474,#477,#226,.T.);
#595=EDGE_CURVE('',#477,#466,#227,.T.);
#596=EDGE_CURVE('',#477,#478,#228,.T.);
#597=EDGE_CURVE('',#478,#479,#229,.T.);
#598=EDGE_CURVE('',#479,#480,#230,.T.);
#599=EDGE_CURVE('',#481,#480,#231,.T.);
#600=EDGE_CURVE('',#481,#482,#232,.T.);
#601=EDGE_CURVE('',#467,#482,#233,.T.);
#602=EDGE_CURVE('',#414,#478,#234,.T.);
#603=EDGE_CURVE('',#450,#481,#235,.T.);
#604=EDGE_CURVE('',#480,#451,#236,.T.);
#605=EDGE_CURVE('',#401,#483,#237,.T.);
#606=EDGE_CURVE('',#444,#483,#238,.T.);
#607=EDGE_CURVE('',#479,#428,#239,.T.);
#608=EDGE_CURVE('',#483,#484,#240,.T.);
#609=EDGE_CURVE('',#484,#445,#241,.T.);
#610=EDGE_CURVE('',#484,#485,#242,.T.);
#611=EDGE_CURVE('',#485,#486,#243,.T.);
#612=EDGE_CURVE('',#486,#487,#244,.T.);
#613=EDGE_CURVE('',#436,#487,#245,.T.);
#614=EDGE_CURVE('',#446,#435,#246,.T.);
#615=EDGE_CURVE('',#402,#485,#247,.T.);
#616=EDGE_CURVE('',#487,#442,#248,.T.);
#617=EDGE_CURVE('',#486,#432,#249,.T.);
#618=EDGE_CURVE('',#488,#488,#18,.T.);
#619=EDGE_CURVE('',#488,#489,#250,.T.);
#620=EDGE_CURVE('',#489,#489,#19,.T.);
#621=EDGE_CURVE('',#490,#491,#20,.T.);
#622=EDGE_CURVE('',#492,#490,#251,.T.);
#623=EDGE_CURVE('',#493,#492,#21,.T.);
#624=EDGE_CURVE('',#491,#493,#252,.T.);
#625=EDGE_CURVE('',#493,#492,#253,.T.);
#626=EDGE_CURVE('',#490,#491,#254,.T.);
#627=EDGE_CURVE('',#426,#443,#255,.T.);
#628=EDGE_CURVE('',#418,#464,#256,.T.);
#629=EDGE_CURVE('',#462,#471,#257,.T.);
#630=EDGE_CURVE('',#448,#476,#258,.T.);
#631=EDGE_CURVE('',#440,#454,#259,.T.);
#632=EDGE_CURVE('',#482,#447,#260,.T.);
#633=EDGE_CURVE('',#494,#468,#261,.T.);
#634=EDGE_CURVE('',#473,#494,#262,.T.);
#635=EDGE_CURVE('',#459,#494,#263,.T.);
#636=ORIENTED_EDGE('',*,*,#495,.F.);
#637=ORIENTED_EDGE('',*,*,#496,.F.);
#638=ORIENTED_EDGE('',*,*,#497,.F.);
#639=ORIENTED_EDGE('',*,*,#498,.F.);
#640=ORIENTED_EDGE('',*,*,#499,.F.);
#641=ORIENTED_EDGE('',*,*,#500,.F.);
#642=ORIENTED_EDGE('',*,*,#501,.F.);
#643=ORIENTED_EDGE('',*,*,#502,.F.);
#644=ORIENTED_EDGE('',*,*,#503,.F.);
#645=ORIENTED_EDGE('',*,*,#504,.F.);
#646=ORIENTED_EDGE('',*,*,#505,.F.);
#647=ORIENTED_EDGE('',*,*,#506,.F.);
#648=ORIENTED_EDGE('',*,*,#507,.F.);
#649=ORIENTED_EDGE('',*,*,#508,.F.);
#650=ORIENTED_EDGE('',*,*,#509,.F.);
#651=ORIENTED_EDGE('',*,*,#510,.F.);
#652=ORIENTED_EDGE('',*,*,#511,.F.);
#653=ORIENTED_EDGE('',*,*,#512,.F.);
#654=ORIENTED_EDGE('',*,*,#513,.F.);
#655=ORIENTED_EDGE('',*,*,#514,.F.);
#656=ORIENTED_EDGE('',*,*,#515,.F.);
#657=ORIENTED_EDGE('',*,*,#516,.F.);
#658=ORIENTED_EDGE('',*,*,#517,.F.);
#659=ORIENTED_EDGE('',*,*,#518,.F.);
#660=ORIENTED_EDGE('',*,*,#519,.F.);
#661=ORIENTED_EDGE('',*,*,#520,.F.);
#662=ORIENTED_EDGE('',*,*,#521,.F.);
#663=ORIENTED_EDGE('',*,*,#522,.F.);
#664=ORIENTED_EDGE('',*,*,#523,.F.);
#665=ORIENTED_EDGE('',*,*,#524,.F.);
#666=ORIENTED_EDGE('',*,*,#525,.F.);
#667=ORIENTED_EDGE('',*,*,#526,.F.);
#668=ORIENTED_EDGE('',*,*,#523,.T.);
#669=ORIENTED_EDGE('',*,*,#527,.T.);
#670=ORIENTED_EDGE('',*,*,#528,.T.);
#671=ORIENTED_EDGE('',*,*,#529,.F.);
#672=ORIENTED_EDGE('',*,*,#530,.F.);
#673=ORIENTED_EDGE('',*,*,#531,.F.);
#674=ORIENTED_EDGE('',*,*,#532,.F.);
#675=ORIENTED_EDGE('',*,*,#533,.T.);
#676=ORIENTED_EDGE('',*,*,#503,.T.);
#677=ORIENTED_EDGE('',*,*,#534,.T.);
#678=ORIENTED_EDGE('',*,*,#535,.F.);
#679=ORIENTED_EDGE('',*,*,#536,.T.);
#680=ORIENTED_EDGE('',*,*,#537,.F.);
#681=ORIENTED_EDGE('',*,*,#528,.F.);
#682=ORIENTED_EDGE('',*,*,#506,.T.);
#683=ORIENTED_EDGE('',*,*,#538,.T.);
#684=ORIENTED_EDGE('',*,*,#539,.F.);
#685=ORIENTED_EDGE('',*,*,#534,.F.);
#686=ORIENTED_EDGE('',*,*,#524,.T.);
#687=ORIENTED_EDGE('',*,*,#532,.T.);
#688=ORIENTED_EDGE('',*,*,#540,.F.);
#689=ORIENTED_EDGE('',*,*,#541,.T.);
#690=ORIENTED_EDGE('',*,*,#542,.T.);
#691=ORIENTED_EDGE('',*,*,#497,.T.);
#692=ORIENTED_EDGE('',*,*,#543,.F.);
#693=ORIENTED_EDGE('',*,*,#544,.F.);
#694=ORIENTED_EDGE('',*,*,#545,.T.);
#695=ORIENTED_EDGE('',*,*,#546,.F.);
#696=ORIENTED_EDGE('',*,*,#547,.F.);
#697=ORIENTED_EDGE('',*,*,#505,.T.);
#698=ORIENTED_EDGE('',*,*,#548,.T.);
#699=ORIENTED_EDGE('',*,*,#549,.F.);
#700=ORIENTED_EDGE('',*,*,#550,.F.);
#701=ORIENTED_EDGE('',*,*,#538,.F.);
#702=ORIENTED_EDGE('',*,*,#520,.T.);
#703=ORIENTED_EDGE('',*,*,#551,.T.);
#704=ORIENTED_EDGE('',*,*,#552,.F.);
#705=ORIENTED_EDGE('',*,*,#553,.T.);
#706=ORIENTED_EDGE('',*,*,#501,.T.);
#707=ORIENTED_EDGE('',*,*,#554,.T.);
#708=ORIENTED_EDGE('',*,*,#555,.T.);
#709=ORIENTED_EDGE('',*,*,#556,.F.);
#710=ORIENTED_EDGE('',*,*,#557,.F.);
#711=ORIENTED_EDGE('',*,*,#558,.F.);
#712=ORIENTED_EDGE('',*,*,#559,.T.);
#713=ORIENTED_EDGE('',*,*,#560,.T.);
#714=ORIENTED_EDGE('',*,*,#515,.T.);
#715=ORIENTED_EDGE('',*,*,#561,.F.);
#716=ORIENTED_EDGE('',*,*,#562,.F.);
#717=ORIENTED_EDGE('',*,*,#563,.T.);
#718=ORIENTED_EDGE('',*,*,#564,.F.);
#719=ORIENTED_EDGE('',*,*,#555,.F.);
#720=ORIENTED_EDGE('',*,*,#518,.T.);
#721=ORIENTED_EDGE('',*,*,#565,.T.);
#722=ORIENTED_EDGE('',*,*,#566,.F.);
#723=ORIENTED_EDGE('',*,*,#561,.T.);
#724=ORIENTED_EDGE('',*,*,#502,.T.);
#725=ORIENTED_EDGE('',*,*,#559,.F.);
#726=ORIENTED_EDGE('',*,*,#567,.F.);
#727=ORIENTED_EDGE('',*,*,#568,.T.);
#728=ORIENTED_EDGE('',*,*,#517,.T.);
#729=ORIENTED_EDGE('',*,*,#569,.T.);
#730=ORIENTED_EDGE('',*,*,#570,.F.);
#731=ORIENTED_EDGE('',*,*,#571,.F.);
#732=ORIENTED_EDGE('',*,*,#565,.F.);
#733=ORIENTED_EDGE('',*,*,#572,.T.);
#734=ORIENTED_EDGE('',*,*,#509,.T.);
#735=ORIENTED_EDGE('',*,*,#573,.F.);
#736=ORIENTED_EDGE('',*,*,#574,.F.);
#737=ORIENTED_EDGE('',*,*,#575,.T.);
#738=ORIENTED_EDGE('',*,*,#576,.F.);
#739=ORIENTED_EDGE('',*,*,#577,.F.);
#740=ORIENTED_EDGE('',*,*,#513,.T.);
#741=ORIENTED_EDGE('',*,*,#578,.F.);
#742=ORIENTED_EDGE('',*,*,#579,.F.);
#743=ORIENTED_EDGE('',*,*,#580,.F.);
#744=ORIENTED_EDGE('',*,*,#581,.T.);
#745=ORIENTED_EDGE('',*,*,#512,.T.);
#746=ORIENTED_EDGE('',*,*,#582,.T.);
#747=ORIENTED_EDGE('',*,*,#583,.F.);
#748=ORIENTED_EDGE('',*,*,#578,.T.);
#749=ORIENTED_EDGE('',*,*,#562,.T.);
#750=ORIENTED_EDGE('',*,*,#566,.T.);
#751=ORIENTED_EDGE('',*,*,#571,.T.);
#752=ORIENTED_EDGE('',*,*,#584,.T.);
#753=ORIENTED_EDGE('',*,*,#585,.T.);
#754=ORIENTED_EDGE('',*,*,#586,.T.);
#755=ORIENTED_EDGE('',*,*,#579,.T.);
#756=ORIENTED_EDGE('',*,*,#583,.T.);
#757=ORIENTED_EDGE('',*,*,#508,.T.);
#758=ORIENTED_EDGE('',*,*,#587,.T.);
#759=ORIENTED_EDGE('',*,*,#588,.F.);
#760=ORIENTED_EDGE('',*,*,#573,.T.);
#761=ORIENTED_EDGE('',*,*,#558,.T.);
#762=ORIENTED_EDGE('',*,*,#589,.T.);
#763=ORIENTED_EDGE('',*,*,#590,.T.);
#764=ORIENTED_EDGE('',*,*,#567,.T.);
#765=ORIENTED_EDGE('',*,*,#499,.T.);
#766=ORIENTED_EDGE('',*,*,#568,.F.);
#767=ORIENTED_EDGE('',*,*,#590,.F.);
#768=ORIENTED_EDGE('',*,*,#591,.F.);
#769=ORIENTED_EDGE('',*,*,#592,.T.);
#770=ORIENTED_EDGE('',*,*,#535,.T.);
#771=ORIENTED_EDGE('',*,*,#539,.T.);
#772=ORIENTED_EDGE('',*,*,#550,.T.);
#773=ORIENTED_EDGE('',*,*,#593,.T.);
#774=ORIENTED_EDGE('',*,*,#574,.T.);
#775=ORIENTED_EDGE('',*,*,#588,.T.);
#776=ORIENTED_EDGE('',*,*,#594,.T.);
#777=ORIENTED_EDGE('',*,*,#595,.T.);
#778=ORIENTED_EDGE('',*,*,#595,.F.);
#779=ORIENTED_EDGE('',*,*,#596,.T.);
#780=ORIENTED_EDGE('',*,*,#597,.T.);
#781=ORIENTED_EDGE('',*,*,#598,.T.);
#782=ORIENTED_EDGE('',*,*,#599,.F.);
#783=ORIENTED_EDGE('',*,*,#600,.T.);
#784=ORIENTED_EDGE('',*,*,#601,.F.);
#785=ORIENTED_EDGE('',*,*,#575,.F.);
#786=ORIENTED_EDGE('',*,*,#507,.T.);
#787=ORIENTED_EDGE('',*,*,#602,.T.);
#788=ORIENTED_EDGE('',*,*,#596,.F.);
#789=ORIENTED_EDGE('',*,*,#594,.F.);
#790=ORIENTED_EDGE('',*,*,#587,.F.);
#791=ORIENTED_EDGE('',*,*,#603,.T.);
#792=ORIENTED_EDGE('',*,*,#599,.T.);
#793=ORIENTED_EDGE('',*,*,#604,.T.);
#794=ORIENTED_EDGE('',*,*,#552,.T.);
#795=ORIENTED_EDGE('',*,*,#496,.T.);
#796=ORIENTED_EDGE('',*,*,#605,.T.);
#797=ORIENTED_EDGE('',*,*,#606,.F.);
#798=ORIENTED_EDGE('',*,*,#543,.T.);
#799=ORIENTED_EDGE('',*,*,#521,.T.);
#800=ORIENTED_EDGE('',*,*,#553,.F.);
#801=ORIENTED_EDGE('',*,*,#604,.F.);
#802=ORIENTED_EDGE('',*,*,#598,.F.);
#803=ORIENTED_EDGE('',*,*,#607,.T.);
#804=ORIENTED_EDGE('',*,*,#544,.T.);
#805=ORIENTED_EDGE('',*,*,#606,.T.);
#806=ORIENTED_EDGE('',*,*,#608,.T.);
#807=ORIENTED_EDGE('',*,*,#609,.T.);
#808=ORIENTED_EDGE('',*,*,#609,.F.);
#809=ORIENTED_EDGE('',*,*,#610,.T.);
#810=ORIENTED_EDGE('',*,*,#611,.T.);
#811=ORIENTED_EDGE('',*,*,#612,.T.);
#812=ORIENTED_EDGE('',*,*,#613,.F.);
#813=ORIENTED_EDGE('',*,*,#530,.T.);
#814=ORIENTED_EDGE('',*,*,#614,.F.);
#815=ORIENTED_EDGE('',*,*,#545,.F.);
#816=ORIENTED_EDGE('',*,*,#495,.T.);
#817=ORIENTED_EDGE('',*,*,#615,.T.);
#818=ORIENTED_EDGE('',*,*,#610,.F.);
#819=ORIENTED_EDGE('',*,*,#608,.F.);
#820=ORIENTED_EDGE('',*,*,#605,.F.);
#821=ORIENTED_EDGE('',*,*,#531,.T.);
#822=ORIENTED_EDGE('',*,*,#613,.T.);
#823=ORIENTED_EDGE('',*,*,#616,.T.);
#824=ORIENTED_EDGE('',*,*,#540,.T.);
#825=ORIENTED_EDGE('',*,*,#525,.T.);
#826=ORIENTED_EDGE('',*,*,#541,.F.);
#827=ORIENTED_EDGE('',*,*,#616,.F.);
#828=ORIENTED_EDGE('',*,*,#612,.F.);
#829=ORIENTED_EDGE('',*,*,#617,.T.);
#830=ORIENTED_EDGE('',*,*,#618,.F.);
#831=ORIENTED_EDGE('',*,*,#619,.T.);
#832=ORIENTED_EDGE('',*,*,#620,.F.);
#833=ORIENTED_EDGE('',*,*,#619,.F.);
#834=ORIENTED_EDGE('',*,*,#621,.F.);
#835=ORIENTED_EDGE('',*,*,#622,.F.);
#836=ORIENTED_EDGE('',*,*,#623,.F.);
#837=ORIENTED_EDGE('',*,*,#624,.F.);
#838=ORIENTED_EDGE('',*,*,#623,.T.);
#839=ORIENTED_EDGE('',*,*,#625,.F.);
#840=ORIENTED_EDGE('',*,*,#620,.T.);
#841=ORIENTED_EDGE('',*,*,#621,.T.);
#842=ORIENTED_EDGE('',*,*,#626,.F.);
#843=ORIENTED_EDGE('',*,*,#618,.T.);
#844=ORIENTED_EDGE('',*,*,#617,.F.);
#845=ORIENTED_EDGE('',*,*,#611,.F.);
#846=ORIENTED_EDGE('',*,*,#615,.F.);
#847=ORIENTED_EDGE('',*,*,#498,.T.);
#848=ORIENTED_EDGE('',*,*,#542,.F.);
#849=ORIENTED_EDGE('',*,*,#627,.F.);
#850=ORIENTED_EDGE('',*,*,#522,.T.);
#851=ORIENTED_EDGE('',*,*,#607,.F.);
#852=ORIENTED_EDGE('',*,*,#597,.F.);
#853=ORIENTED_EDGE('',*,*,#602,.F.);
#854=ORIENTED_EDGE('',*,*,#510,.T.);
#855=ORIENTED_EDGE('',*,*,#572,.F.);
#856=ORIENTED_EDGE('',*,*,#628,.F.);
#857=ORIENTED_EDGE('',*,*,#514,.T.);
#858=ORIENTED_EDGE('',*,*,#581,.F.);
#859=ORIENTED_EDGE('',*,*,#629,.F.);
#860=ORIENTED_EDGE('',*,*,#569,.F.);
#861=ORIENTED_EDGE('',*,*,#516,.T.);
#862=ORIENTED_EDGE('',*,*,#560,.F.);
#863=ORIENTED_EDGE('',*,*,#554,.F.);
#864=ORIENTED_EDGE('',*,*,#500,.T.);
#865=ORIENTED_EDGE('',*,*,#592,.F.);
#866=ORIENTED_EDGE('',*,*,#630,.F.);
#867=ORIENTED_EDGE('',*,*,#548,.F.);
#868=ORIENTED_EDGE('',*,*,#504,.T.);
#869=ORIENTED_EDGE('',*,*,#533,.F.);
#870=ORIENTED_EDGE('',*,*,#527,.F.);
#871=ORIENTED_EDGE('',*,*,#526,.T.);
#872=ORIENTED_EDGE('',*,*,#589,.F.);
#873=ORIENTED_EDGE('',*,*,#557,.T.);
#874=ORIENTED_EDGE('',*,*,#631,.F.);
#875=ORIENTED_EDGE('',*,*,#536,.F.);
#876=ORIENTED_EDGE('',*,*,#593,.F.);
#877=ORIENTED_EDGE('',*,*,#549,.T.);
#878=ORIENTED_EDGE('',*,*,#630,.T.);
#879=ORIENTED_EDGE('',*,*,#591,.T.);
#880=ORIENTED_EDGE('',*,*,#627,.T.);
#881=ORIENTED_EDGE('',*,*,#547,.T.);
#882=ORIENTED_EDGE('',*,*,#632,.F.);
#883=ORIENTED_EDGE('',*,*,#600,.F.);
#884=ORIENTED_EDGE('',*,*,#603,.F.);
#885=ORIENTED_EDGE('',*,*,#551,.F.);
#886=ORIENTED_EDGE('',*,*,#519,.T.);
#887=ORIENTED_EDGE('',*,*,#628,.T.);
#888=ORIENTED_EDGE('',*,*,#577,.T.);
#889=ORIENTED_EDGE('',*,*,#633,.F.);
#890=ORIENTED_EDGE('',*,*,#634,.F.);
#891=ORIENTED_EDGE('',*,*,#585,.F.);
#892=ORIENTED_EDGE('',*,*,#582,.F.);
#893=ORIENTED_EDGE('',*,*,#511,.T.);
#894=ORIENTED_EDGE('',*,*,#584,.F.);
#895=ORIENTED_EDGE('',*,*,#570,.T.);
#896=ORIENTED_EDGE('',*,*,#629,.T.);
#897=ORIENTED_EDGE('',*,*,#580,.T.);
#898=ORIENTED_EDGE('',*,*,#586,.F.);
#899=ORIENTED_EDGE('',*,*,#634,.T.);
#900=ORIENTED_EDGE('',*,*,#635,.F.);
#901=ORIENTED_EDGE('',*,*,#563,.F.);
#902=ORIENTED_EDGE('',*,*,#537,.T.);
#903=ORIENTED_EDGE('',*,*,#631,.T.);
#904=ORIENTED_EDGE('',*,*,#556,.T.);
#905=ORIENTED_EDGE('',*,*,#564,.T.);
#906=ORIENTED_EDGE('',*,*,#635,.T.);
#907=ORIENTED_EDGE('',*,*,#633,.T.);
#908=ORIENTED_EDGE('',*,*,#576,.T.);
#909=ORIENTED_EDGE('',*,*,#601,.T.);
#910=ORIENTED_EDGE('',*,*,#632,.T.);
#911=ORIENTED_EDGE('',*,*,#546,.T.);
#912=ORIENTED_EDGE('',*,*,#614,.T.);
#913=ORIENTED_EDGE('',*,*,#529,.T.);
#914=ORIENTED_EDGE('',*,*,#622,.T.);
#915=ORIENTED_EDGE('',*,*,#626,.T.);
#916=ORIENTED_EDGE('',*,*,#624,.T.);
#917=ORIENTED_EDGE('',*,*,#625,.T.);
#918=PLANE('',#1030);
#919=PLANE('',#1031);
#920=PLANE('',#1032);
#921=PLANE('',#1033);
#922=PLANE('',#1034);
#923=PLANE('',#1035);
#924=PLANE('',#1036);
#925=PLANE('',#1037);
#926=PLANE('',#1038);
#927=PLANE('',#1039);
#928=PLANE('',#1040);
#929=PLANE('',#1041);
#930=PLANE('',#1042);
#931=PLANE('',#1043);
#932=PLANE('',#1044);
#933=PLANE('',#1045);
#934=PLANE('',#1046);
#935=PLANE('',#1047);
#936=PLANE('',#1048);
#937=PLANE('',#1049);
#938=PLANE('',#1050);
#939=PLANE('',#1051);
#940=PLANE('',#1052);
#941=PLANE('',#1053);
#942=PLANE('',#1054);
#943=PLANE('',#1055);
#944=PLANE('',#1056);
#945=PLANE('',#1057);
#946=PLANE('',#1058);
#947=PLANE('',#1059);
#948=PLANE('',#1060);
#949=PLANE('',#1061);
#950=PLANE('',#1062);
#951=PLANE('',#1063);
#952=PLANE('',#1064);
#953=PLANE('',#1065);
#954=PLANE('',#1066);
#955=PLANE('',#1067);
#956=PLANE('',#1068);
#957=PLANE('',#1069);
#958=PLANE('',#1076);
#959=PLANE('',#1077);
#960=PLANE('',#1078);
#961=PLANE('',#1079);
#962=PLANE('',#1080);
#963=PLANE('',#1081);
#964=PLANE('',#1082);
#965=PLANE('',#1083);
#966=ADVANCED_FACE('',(#24),#918,.F.);
#967=ADVANCED_FACE('',(#25),#919,.F.);
#968=ADVANCED_FACE('',(#26),#920,.F.);
#969=ADVANCED_FACE('',(#27),#921,.F.);
#970=ADVANCED_FACE('',(#28),#922,.F.);
#971=ADVANCED_FACE('',(#29),#923,.F.);
#972=ADVANCED_FACE('',(#30),#924,.F.);
#973=ADVANCED_FACE('',(#31),#925,.F.);
#974=ADVANCED_FACE('',(#32),#926,.T.);
#975=ADVANCED_FACE('',(#33),#927,.T.);
#976=ADVANCED_FACE('',(#34),#928,.F.);
#977=ADVANCED_FACE('',(#35),#929,.F.);
#978=ADVANCED_FACE('',(#36),#930,.T.);
#979=ADVANCED_FACE('',(#37),#931,.F.);
#980=ADVANCED_FACE('',(#38),#932,.F.);
#981=ADVANCED_FACE('',(#39),#933,.T.);
#982=ADVANCED_FACE('',(#40),#934,.T.);
#983=ADVANCED_FACE('',(#41),#935,.F.);
#984=ADVANCED_FACE('',(#42),#936,.F.);
#985=ADVANCED_FACE('',(#43),#937,.F.);
#986=ADVANCED_FACE('',(#44),#938,.T.);
#987=ADVANCED_FACE('',(#45),#939,.F.);
#988=ADVANCED_FACE('',(#46),#940,.F.);
#989=ADVANCED_FACE('',(#47),#941,.T.);
#990=ADVANCED_FACE('',(#48),#942,.T.);
#991=ADVANCED_FACE('',(#49),#943,.F.);
#992=ADVANCED_FACE('',(#50),#944,.T.);
#993=ADVANCED_FACE('',(#51),#945,.F.);
#994=ADVANCED_FACE('',(#52),#946,.T.);
#995=ADVANCED_FACE('',(#53),#947,.T.);
#996=ADVANCED_FACE('',(#54),#948,.T.);
#997=ADVANCED_FACE('',(#55),#949,.F.);
#998=ADVANCED_FACE('',(#56),#950,.T.);
#999=ADVANCED_FACE('',(#57),#951,.F.);
#1000=ADVANCED_FACE('',(#58),#952,.F.);
#1001=ADVANCED_FACE('',(#59),#953,.T.);
#1002=ADVANCED_FACE('',(#60),#954,.T.);
#1003=ADVANCED_FACE('',(#61),#955,.F.);
#1004=ADVANCED_FACE('',(#62),#956,.T.);
#1005=ADVANCED_FACE('',(#63),#957,.F.);
#1006=ADVANCED_FACE('',(#64),#22,.F.);
#1007=ADVANCED_FACE('',(#65),#23,.T.);
#1008=ADVANCED_FACE('',(#66,#15),#958,.T.);
#1009=ADVANCED_FACE('',(#67,#16),#959,.T.);
#1010=ADVANCED_FACE('',(#68),#960,.F.);
#1011=ADVANCED_FACE('',(#69),#961,.T.);
#1012=ADVANCED_FACE('',(#70),#962,.T.);
#1013=ADVANCED_FACE('',(#71),#963,.T.);
#1014=ADVANCED_FACE('',(#72),#964,.T.);
#1015=ADVANCED_FACE('',(#73,#17),#965,.T.);
#1016=CLOSED_SHELL('',(#966,#967,#968,#969,#970,#971,#972,#973,#974,#975,
#976,#977,#978,#979,#980,#981,#982,#983,#984,#985,#986,#987,#988,#989,#990,
#991,#992,#993,#994,#995,#996,#997,#998,#999,#1000,#1001,#1002,#1003,#1004,
#1005,#1006,#1007,#1008,#1009,#1010,#1011,#1012,#1013,#1014,#1015));
#1017=DERIVED_UNIT_ELEMENT(#1019,1.);
#1018=DERIVED_UNIT_ELEMENT(#1622,-3.);
#1019=(
MASS_UNIT()
NAMED_UNIT(*)
SI_UNIT(.KILO.,.GRAM.)
);
#1020=DERIVED_UNIT((#1017,#1018));
#1021=MEASURE_REPRESENTATION_ITEM('density measure',
POSITIVE_RATIO_MEASURE(7850.),#1020);
#1022=PROPERTY_DEFINITION_REPRESENTATION(#1027,#1024);
#1023=PROPERTY_DEFINITION_REPRESENTATION(#1028,#1025);
#1024=REPRESENTATION('material name',(#1026),#1619);
#1025=REPRESENTATION('density',(#1021),#1619);
#1026=DESCRIPTIVE_REPRESENTATION_ITEM('Steel','Steel');
#1027=PROPERTY_DEFINITION('material property','material name',#1629);
#1028=PROPERTY_DEFINITION('material property','density of part',#1629);
#1029=AXIS2_PLACEMENT_3D('',#1331,#1084,#1085);
#1030=AXIS2_PLACEMENT_3D('',#1332,#1086,#1087);
#1031=AXIS2_PLACEMENT_3D('',#1341,#1092,#1093);
#1032=AXIS2_PLACEMENT_3D('',#1350,#1098,#1099);
#1033=AXIS2_PLACEMENT_3D('',#1359,#1104,#1105);
#1034=AXIS2_PLACEMENT_3D('',#1368,#1110,#1111);
#1035=AXIS2_PLACEMENT_3D('',#1377,#1116,#1117);
#1036=AXIS2_PLACEMENT_3D('',#1386,#1122,#1123);
#1037=AXIS2_PLACEMENT_3D('',#1395,#1128,#1129);
#1038=AXIS2_PLACEMENT_3D('',#1404,#1134,#1135);
#1039=AXIS2_PLACEMENT_3D('',#1416,#1142,#1143);
#1040=AXIS2_PLACEMENT_3D('',#1425,#1149,#1150);
#1041=AXIS2_PLACEMENT_3D('',#1429,#1153,#1154);
#1042=AXIS2_PLACEMENT_3D('',#1433,#1157,#1158);
#1043=AXIS2_PLACEMENT_3D('',#1445,#1165,#1166);
#1044=AXIS2_PLACEMENT_3D('',#1451,#1170,#1171);
#1045=AXIS2_PLACEMENT_3D('',#1457,#1175,#1176);
#1046=AXIS2_PLACEMENT_3D('',#1469,#1183,#1184);
#1047=AXIS2_PLACEMENT_3D('',#1478,#1190,#1191);
#1048=AXIS2_PLACEMENT_3D('',#1482,#1194,#1195);
#1049=AXIS2_PLACEMENT_3D('',#1486,#1198,#1199);
#1050=AXIS2_PLACEMENT_3D('',#1492,#1203,#1204);
#1051=AXIS2_PLACEMENT_3D('',#1504,#1211,#1212);
#1052=AXIS2_PLACEMENT_3D('',#1512,#1217,#1218);
#1053=AXIS2_PLACEMENT_3D('',#1516,#1221,#1222);
#1054=AXIS2_PLACEMENT_3D('',#1518,#1224,#1225);
#1055=AXIS2_PLACEMENT_3D('',#1522,#1228,#1229);
#1056=AXIS2_PLACEMENT_3D('',#1526,#1232,#1233);
#1057=AXIS2_PLACEMENT_3D('',#1530,#1236,#1237);
#1058=AXIS2_PLACEMENT_3D('',#1534,#1240,#1241);
#1059=AXIS2_PLACEMENT_3D('',#1536,#1243,#1244);
#1060=AXIS2_PLACEMENT_3D('',#1540,#1247,#1248);
#1061=AXIS2_PLACEMENT_3D('',#1552,#1255,#1256);
#1062=AXIS2_PLACEMENT_3D('',#1554,#1258,#1259);
#1063=AXIS2_PLACEMENT_3D('',#1557,#1262,#1263);
#1064=AXIS2_PLACEMENT_3D('',#1561,#1266,#1267);
#1065=AXIS2_PLACEMENT_3D('',#1563,#1269,#1270);
#1066=AXIS2_PLACEMENT_3D('',#1567,#1273,#1274);
#1067=AXIS2_PLACEMENT_3D('',#1576,#1280,#1281);
#1068=AXIS2_PLACEMENT_3D('',#1578,#1283,#1284);
#1069=AXIS2_PLACEMENT_3D('',#1580,#1286,#1287);
#1070=AXIS2_PLACEMENT_3D('',#1582,#1289,#1290);
#1071=AXIS2_PLACEMENT_3D('',#1584,#1291,#1292);
#1072=AXIS2_PLACEMENT_3D('',#1587,#1294,#1295);
#1073=AXIS2_PLACEMENT_3D('',#1588,#1296,#1297);
#1074=AXIS2_PLACEMENT_3D('',#1591,#1298,#1299);
#1075=AXIS2_PLACEMENT_3D('',#1595,#1301,#1302);
#1076=AXIS2_PLACEMENT_3D('',#1597,#1304,#1305);
#1077=AXIS2_PLACEMENT_3D('',#1599,#1307,#1308);
#1078=AXIS2_PLACEMENT_3D('',#1601,#1310,#1311);
#1079=AXIS2_PLACEMENT_3D('',#1606,#1316,#1317);
#1080=AXIS2_PLACEMENT_3D('',#1608,#1319,#1320);
#1081=AXIS2_PLACEMENT_3D('',#1610,#1322,#1323);
#1082=AXIS2_PLACEMENT_3D('',#1614,#1326,#1327);
#1083=AXIS2_PLACEMENT_3D('',#1616,#1329,#1330);
#1084=DIRECTION('axis',(0.,0.,1.));
#1085=DIRECTION('refdir',(1.,0.,0.));
#1086=DIRECTION('center_axis',(-1.,-9.28377963412629E-23,-8.77618965154802E-11));
#1087=DIRECTION('ref_axis',(-9.29829040159246E-23,1.,1.65342455465462E-15));
#1088=DIRECTION('',(-8.77618965154802E-11,0.,1.));
#1089=DIRECTION('',(9.28377963412629E-23,-1.,0.));
#1090=DIRECTION('',(8.77618965154802E-11,0.,-1.));
#1091=DIRECTION('',(-9.29829040159246E-23,1.,1.65342455465462E-15));
#1092=DIRECTION('center_axis',(9.29785361959868E-23,-1.,-1.60365548001412E-15));
#1093=DIRECTION('ref_axis',(-1.,-9.28377966216711E-23,-8.77617269230884E-11));
#1094=DIRECTION('',(0.,1.60365548001412E-15,-1.));
#1095=DIRECTION('',(-1.,-9.28377966216711E-23,-8.77617269230884E-11));
#1096=DIRECTION('',(0.,-1.60365548001412E-15,1.));
#1097=DIRECTION('',(1.,9.29785361959868E-23,0.));
#1098=DIRECTION('center_axis',(9.29785361959868E-23,-1.,-1.60365548001412E-15));
#1099=DIRECTION('ref_axis',(-1.,-9.28377966216711E-23,-8.77617269230884E-11));
#1100=DIRECTION('',(0.,1.60365548001412E-15,-1.));
#1101=DIRECTION('',(-1.,-9.28377966216711E-23,-8.77617269230884E-11));
#1102=DIRECTION('',(0.,-1.60365548001412E-15,1.));
#1103=DIRECTION('',(1.,9.29785361959868E-23,0.));
#1104=DIRECTION('center_axis',(-9.29785335444635E-23,1.,1.60365548001412E-15));
#1105=DIRECTION('ref_axis',(1.,9.28377966216711E-23,8.77600734985442E-11));
#1106=DIRECTION('',(0.,-1.60365548001412E-15,1.));
#1107=DIRECTION('',(-1.,-9.29785335444635E-23,0.));
#1108=DIRECTION('',(0.,1.60365548001412E-15,-1.));
#1109=DIRECTION('',(1.,9.28377966216711E-23,8.77600734985442E-11));
#1110=DIRECTION('center_axis',(1.,9.28377966216711E-23,8.77618965154802E-11));
#1111=DIRECTION('ref_axis',(9.28377966225888E-23,-1.,-1.04570733921508E-23));
#1112=DIRECTION('',(-8.77618965154802E-11,0.,1.));
#1113=DIRECTION('',(-9.28377966216711E-23,1.,0.));
#1114=DIRECTION('',(8.77618965154802E-11,0.,-1.));
#1115=DIRECTION('',(9.28377966225888E-23,-1.,-1.04570733921508E-23));
#1116=DIRECTION('center_axis',(1.,9.28377966216711E-23,8.77618965154802E-11));
#1117=DIRECTION('ref_axis',(9.28377966225888E-23,-1.,-1.04570733921508E-23));
#1118=DIRECTION('',(8.77618965154802E-11,0.,-1.));
#1119=DIRECTION('',(9.28377966225888E-23,-1.,-1.04570733921508E-23));
#1120=DIRECTION('',(-8.77618965154802E-11,0.,1.));
#1121=DIRECTION('',(-9.28377966216711E-23,1.,0.));
#1122=DIRECTION('center_axis',(-9.29785335444635E-23,1.,1.60365548001412E-15));
#1123=DIRECTION('ref_axis',(1.,9.28377966216711E-23,8.77600734985442E-11));
#1124=DIRECTION('',(0.,-1.60365548001412E-15,1.));
#1125=DIRECTION('',(-1.,-9.29785335444635E-23,0.));
#1126=DIRECTION('',(0.,1.60365548001412E-15,-1.));
#1127=DIRECTION('',(1.,9.28377966216711E-23,8.77600734985442E-11));
#1128=DIRECTION('center_axis',(-1.,-9.28377963412629E-23,-8.77618965154802E-11));
#1129=DIRECTION('ref_axis',(-9.29829040159246E-23,1.,1.65342455465462E-15));
#1130=DIRECTION('',(-8.77618965154802E-11,0.,1.));
#1131=DIRECTION('',(9.28377963412629E-23,-1.,0.));
#1132=DIRECTION('',(8.77618965154802E-11,0.,-1.));
#1133=DIRECTION('',(-9.29829040159246E-23,1.,1.65342455465462E-15));
#1134=DIRECTION('center_axis',(0.,-1.,0.));
#1135=DIRECTION('ref_axis',(1.,0.,0.));
#1136=DIRECTION('',(1.,0.,8.77617269230884E-11));
#1137=DIRECTION('',(0.,0.,1.));
#1138=DIRECTION('',(1.,0.,0.));
#1139=DIRECTION('',(0.,0.,1.));
#1140=DIRECTION('',(-0.707106781186548,0.,0.707106781186547));
#1141=DIRECTION('',(-1.,0.,0.));
#1142=DIRECTION('center_axis',(-1.,0.,0.));
#1143=DIRECTION('ref_axis',(0.,-1.,0.));
#1144=DIRECTION('',(0.,-1.,-1.65342455465462E-15));
#1145=DIRECTION('',(0.,-1.,0.));
#1146=DIRECTION('',(0.,0.707106781186547,-0.707106781186548));
#1147=DIRECTION('',(0.,0.,1.));
#1148=DIRECTION('',(0.,-1.,0.));
#1149=DIRECTION('center_axis',(0.,0.,1.));
#1150=DIRECTION('ref_axis',(1.,0.,0.));
#1151=DIRECTION('',(0.,-1.,0.));
#1152=DIRECTION('',(1.,0.,0.));
#1153=DIRECTION('center_axis',(0.,0.,1.));
#1154=DIRECTION('ref_axis',(1.,0.,0.));
#1155=DIRECTION('',(0.,-1.,0.));
#1156=DIRECTION('',(1.,0.,0.));
#1157=DIRECTION('center_axis',(0.,1.,0.));
#1158=DIRECTION('ref_axis',(-1.,0.,0.));
#1159=DIRECTION('',(-1.,0.,-8.77617269230884E-11));
#1160=DIRECTION('',(1.,0.,0.));
#1161=DIRECTION('',(0.707106781186548,0.,-0.707106781186547));
#1162=DIRECTION('',(0.,0.,1.));
#1163=DIRECTION('',(-1.,0.,0.));
#1164=DIRECTION('',(0.,0.,1.));
#1165=DIRECTION('center_axis',(-1.,0.,0.));
#1166=DIRECTION('ref_axis',(0.,-1.,0.));
#1167=DIRECTION('',(0.,-1.,0.));
#1168=DIRECTION('',(0.,0.,1.));
#1169=DIRECTION('',(0.,-0.707106781186547,0.707106781186548));
#1170=DIRECTION('center_axis',(0.,0.,1.));
#1171=DIRECTION('ref_axis',(1.,0.,0.));
#1172=DIRECTION('',(0.,1.,0.));
#1173=DIRECTION('',(-1.,0.,0.));
#1174=DIRECTION('',(0.,-1.,0.));
#1175=DIRECTION('center_axis',(1.,0.,0.));
#1176=DIRECTION('ref_axis',(0.,1.,0.));
#1177=DIRECTION('',(0.,1.,1.65342455465462E-15));
#1178=DIRECTION('',(0.,0.,1.));
#1179=DIRECTION('',(0.,1.,0.));
#1180=DIRECTION('',(0.,0.,1.));
#1181=DIRECTION('',(0.,-0.707106781186547,0.707106781186548));
#1182=DIRECTION('',(0.,1.,0.));
#1183=DIRECTION('center_axis',(0.,-1.,0.));
#1184=DIRECTION('ref_axis',(1.,0.,0.));
#1185=DIRECTION('',(1.,0.,8.77617269230884E-11));
#1186=DIRECTION('',(-1.,0.,0.));
#1187=DIRECTION('',(-0.707106781186548,0.,-0.707106781186547));
#1188=DIRECTION('',(0.,0.,1.));
#1189=DIRECTION('',(1.,0.,0.));
#1190=DIRECTION('center_axis',(0.,0.,1.));
#1191=DIRECTION('ref_axis',(1.,0.,0.));
#1192=DIRECTION('',(1.,0.,0.));
#1193=DIRECTION('',(0.,1.,0.));
#1194=DIRECTION('center_axis',(0.,0.,1.));
#1195=DIRECTION('ref_axis',(1.,0.,0.));
#1196=DIRECTION('',(1.,0.,0.));
#1197=DIRECTION('',(0.,1.,0.));
#1198=DIRECTION('center_axis',(0.,-1.,0.));
#1199=DIRECTION('ref_axis',(1.,0.,0.));
#1200=DIRECTION('',(1.,0.,0.));
#1201=DIRECTION('',(0.,0.,1.));
#1202=DIRECTION('',(0.707106781186548,0.,0.707106781186547));
#1203=DIRECTION('center_axis',(1.,0.,0.));
#1204=DIRECTION('ref_axis',(0.,1.,0.));
#1205=DIRECTION('',(0.,1.,1.65342455465462E-15));
#1206=DIRECTION('',(0.,-1.,0.));
#1207=DIRECTION('',(0.,-0.707106781186548,-0.707106781186547));
#1208=DIRECTION('',(0.,0.,1.));
#1209=DIRECTION('',(0.,1.,0.));
#1210=DIRECTION('',(0.,0.,1.));
#1211=DIRECTION('center_axis',(0.,1.,0.));
#1212=DIRECTION('ref_axis',(-1.,0.,0.));
#1213=DIRECTION('',(-1.,0.,0.));
#1214=DIRECTION('',(-0.707106781186548,0.,-0.707106781186547));
#1215=DIRECTION('',(0.,0.,-1.));
#1216=DIRECTION('',(-1.,0.,0.));
#1217=DIRECTION('center_axis',(0.,0.,1.));
#1218=DIRECTION('ref_axis',(1.,0.,0.));
#1219=DIRECTION('',(1.,0.,0.));
#1220=DIRECTION('',(0.,1.,0.));
#1221=DIRECTION('center_axis',(0.707106781186547,0.,-0.707106781186548));
#1222=DIRECTION('ref_axis',(-0.707106781186548,0.,-0.707106781186547));
#1223=DIRECTION('',(0.,-1.,0.));
#1224=DIRECTION('center_axis',(0.707106781186547,0.,-0.707106781186548));
#1225=DIRECTION('ref_axis',(-0.707106781186548,0.,-0.707106781186547));
#1226=DIRECTION('',(0.707106781186548,0.,0.707106781186547));
#1227=DIRECTION('',(0.,-1.,0.));
#1228=DIRECTION('center_axis',(0.,0.,1.));
#1229=DIRECTION('ref_axis',(1.,0.,0.));
#1230=DIRECTION('',(0.,1.,0.));
#1231=DIRECTION('',(-1.,0.,0.));
#1232=DIRECTION('center_axis',(0.,-0.707106781186548,-0.707106781186547));
#1233=DIRECTION('ref_axis',(-1.,0.,0.));
#1234=DIRECTION('',(-1.,0.,0.));
#1235=DIRECTION('',(0.,0.707106781186547,-0.707106781186548));
#1236=DIRECTION('center_axis',(1.,0.,0.));
#1237=DIRECTION('ref_axis',(0.,1.,0.));
#1238=DIRECTION('',(0.,0.,-1.));
#1239=DIRECTION('',(0.,1.,0.));
#1240=DIRECTION('center_axis',(0.,-0.707106781186548,-0.707106781186547));
#1241=DIRECTION('ref_axis',(-1.,0.,0.));
#1242=DIRECTION('',(-1.,0.,0.));
#1243=DIRECTION('center_axis',(0.,0.707106781186547,-0.707106781186548));
#1244=DIRECTION('ref_axis',(-1.,0.,0.));
#1245=DIRECTION('',(0.,0.707106781186548,0.707106781186547));
#1246=DIRECTION('',(1.,0.,0.));
#1247=DIRECTION('center_axis',(0.,1.,0.));
#1248=DIRECTION('ref_axis',(-1.,0.,0.));
#1249=DIRECTION('',(0.,0.,1.));
#1250=DIRECTION('',(-1.,0.,0.));
#1251=DIRECTION('',(0.,0.,-1.));
#1252=DIRECTION('',(1.,0.,0.));
#1253=DIRECTION('',(0.,0.,1.));
#1254=DIRECTION('',(-1.,0.,0.));
#1255=DIRECTION('center_axis',(1.,0.,0.));
#1256=DIRECTION('ref_axis',(0.,1.,0.));
#1257=DIRECTION('',(0.,1.,0.));
#1258=DIRECTION('center_axis',(0.,0.707106781186547,-0.707106781186548));
#1259=DIRECTION('ref_axis',(-1.,0.,0.));
#1260=DIRECTION('',(0.,0.707106781186548,0.707106781186547));
#1261=DIRECTION('',(0.,-0.707106781186548,-0.707106781186547));
#1262=DIRECTION('center_axis',(0.,0.,1.));
#1263=DIRECTION('ref_axis',(1.,0.,0.));
#1264=DIRECTION('',(-1.,0.,0.));
#1265=DIRECTION('',(0.,-1.,0.));
#1266=DIRECTION('center_axis',(-1.,0.,0.));
#1267=DIRECTION('ref_axis',(0.,-1.,0.));
#1268=DIRECTION('',(0.,-1.,0.));
#1269=DIRECTION('center_axis',(-0.707106781186547,0.,-0.707106781186548));
#1270=DIRECTION('ref_axis',(-0.707106781186548,0.,0.707106781186547));
#1271=DIRECTION('',(-0.707106781186548,0.,0.707106781186547));
#1272=DIRECTION('',(0.,1.,0.));
#1273=DIRECTION('center_axis',(-1.,0.,0.));
#1274=DIRECTION('ref_axis',(0.,-1.,0.));
#1275=DIRECTION('',(0.,0.,1.));
#1276=DIRECTION('',(0.,-1.,0.));
#1277=DIRECTION('',(0.,0.,-1.));
#1278=DIRECTION('',(0.,1.,0.));
#1279=DIRECTION('',(0.,-1.,0.));
#1280=DIRECTION('center_axis',(0.,1.,0.));
#1281=DIRECTION('ref_axis',(-1.,0.,0.));
#1282=DIRECTION('',(-1.,0.,0.));
#1283=DIRECTION('center_axis',(-0.707106781186547,0.,-0.707106781186548));
#1284=DIRECTION('ref_axis',(-0.707106781186548,0.,0.707106781186547));
#1285=DIRECTION('',(0.707106781186548,0.,-0.707106781186547));
#1286=DIRECTION('center_axis',(0.,-1.,0.));
#1287=DIRECTION('ref_axis',(1.,0.,0.));
#1288=DIRECTION('',(1.,0.,0.));
#1289=DIRECTION('center_axis',(0.,-1.,0.));
#1290=DIRECTION('ref_axis',(0.,0.,1.));
#1291=DIRECTION('center_axis',(0.,-1.,0.));
#1292=DIRECTION('ref_axis',(0.,0.,1.));
#1293=DIRECTION('',(0.,-1.,0.));
#1294=DIRECTION('center_axis',(0.,1.,0.));
#1295=DIRECTION('ref_axis',(0.,0.,1.));
#1296=DIRECTION('center_axis',(0.,-1.,0.));
#1297=DIRECTION('ref_axis',(-1.,0.,-9.51619735392992E-16));
#1298=DIRECTION('center_axis',(0.,1.,0.));
#1299=DIRECTION('ref_axis',(-1.,0.,-9.51619735392992E-16));
#1300=DIRECTION('',(0.,1.,0.));
#1301=DIRECTION('center_axis',(0.,-1.,0.));
#1302=DIRECTION('ref_axis',(-1.,0.,-9.51619735392992E-16));
#1303=DIRECTION('',(0.,-1.,0.));
#1304=DIRECTION('center_axis',(0.,-1.,0.));
#1305=DIRECTION('ref_axis',(1.,0.,0.));
#1306=DIRECTION('',(-1.,0.,0.));
#1307=DIRECTION('center_axis',(0.,1.,0.));
#1308=DIRECTION('ref_axis',(-1.,0.,0.));
#1309=DIRECTION('',(1.,0.,0.));
#1310=DIRECTION('center_axis',(0.,0.,1.));
#1311=DIRECTION('ref_axis',(1.,0.,0.));
#1312=DIRECTION('',(0.,-1.,-1.65342455465462E-15));
#1313=DIRECTION('',(-1.,0.,-8.77617269230884E-11));
#1314=DIRECTION('',(0.,1.,0.));
#1315=DIRECTION('',(1.,0.,0.));
#1316=DIRECTION('center_axis',(0.,-1.,0.));
#1317=DIRECTION('ref_axis',(1.,0.,0.));
#1318=DIRECTION('',(1.,0.,0.));
#1319=DIRECTION('center_axis',(-1.,0.,0.));
#1320=DIRECTION('ref_axis',(0.,-1.,0.));
#1321=DIRECTION('',(0.,-1.,0.));
#1322=DIRECTION('center_axis',(0.,1.,0.));
#1323=DIRECTION('ref_axis',(-1.,0.,0.));
#1324=DIRECTION('',(-1.,0.,0.));
#1325=DIRECTION('',(0.,0.,1.));
#1326=DIRECTION('center_axis',(1.,0.,0.));
#1327=DIRECTION('ref_axis',(0.,1.,0.));
#1328=DIRECTION('',(0.,1.,0.));
#1329=DIRECTION('center_axis',(0.,0.,1.));
#1330=DIRECTION('ref_axis',(1.,0.,0.));
#1331=CARTESIAN_POINT('',(0.,0.,0.));
#1332=CARTESIAN_POINT('Origin',(55.6999980732799,-11.4999997764826,4.50000000488832));
#1333=CARTESIAN_POINT('',(55.6999980736748,2.23517417907715E-7,0.));
#1334=CARTESIAN_POINT('',(55.6999980732799,2.23517417907715E-7,4.50000000488833));
#1335=CARTESIAN_POINT('',(55.6999980734773,2.23517417907715E-7,2.25000000237834));
#1336=CARTESIAN_POINT('',(55.6999980736748,3.00000022351742,0.));
#1337=CARTESIAN_POINT('',(55.6999980736748,-7.49999977648258,0.));
#1338=CARTESIAN_POINT('',(55.6999980732799,3.00000022351742,4.50000000488834));
#1339=CARTESIAN_POINT('',(55.6999980734773,3.00000022351742,2.25000000237834));
#1340=CARTESIAN_POINT('',(55.6999980732799,-11.4999997764826,4.50000000488832));
#1341=CARTESIAN_POINT('Origin',(71.6999980732799,-11.4999997764826,4.5000000062925));
#1342=CARTESIAN_POINT('',(67.1999980732799,-11.4999997764826,4.50000000589757));
#1343=CARTESIAN_POINT('',(67.1999980732799,-11.4999997764826,0.));
#1344=CARTESIAN_POINT('',(67.1999980732799,-11.4999997764826,2.25000000314626));
#1345=CARTESIAN_POINT('',(70.1999980732799,-11.4999997764826,4.50000000616086));
#1346=CARTESIAN_POINT('',(71.6999980732799,-11.4999997764826,4.5000000062925));
#1347=CARTESIAN_POINT('',(70.1999980732799,-11.4999997764826,0.));
#1348=CARTESIAN_POINT('',(70.1999980732799,-11.4999997764826,2.25000000314626));
#1349=CARTESIAN_POINT('',(67.6999980732799,-11.4999997764826,0.));
#1350=CARTESIAN_POINT('Origin',(71.6999980732799,-11.4999997764826,4.5000000062925));
#1351=CARTESIAN_POINT('',(57.1999980732799,-11.4999997764826,4.50000000501996));
#1352=CARTESIAN_POINT('',(57.1999980732799,-11.4999997764826,0.));
#1353=CARTESIAN_POINT('',(57.1999980732799,-11.4999997764826,2.25000000314625));
#1354=CARTESIAN_POINT('',(60.1999980732799,-11.4999997764826,4.50000000528324));
#1355=CARTESIAN_POINT('',(71.6999980732799,-11.4999997764826,4.5000000062925));
#1356=CARTESIAN_POINT('',(60.1999980732799,-11.4999997764826,5.28324277041735E-9));
#1357=CARTESIAN_POINT('',(60.1999980732799,-11.4999997764826,2.25000000314625));
#1358=CARTESIAN_POINT('',(67.6999980732799,-11.4999997764826,0.));
#1359=CARTESIAN_POINT('Origin',(55.6999980732799,4.50000022351742,4.50000000488834));
#1360=CARTESIAN_POINT('',(67.1999980732799,4.50000022351743,0.));
#1361=CARTESIAN_POINT('',(67.1999980732799,4.50000022351742,4.50000000589758));
#1362=CARTESIAN_POINT('',(67.1999980732799,4.50000022351742,2.25000000244417));
#1363=CARTESIAN_POINT('',(70.1999980732799,4.50000022351742,0.));
#1364=CARTESIAN_POINT('',(59.6999980732799,4.50000022351743,0.));
#1365=CARTESIAN_POINT('',(70.1999980732799,4.50000022351742,4.50000000616086));
#1366=CARTESIAN_POINT('',(70.1999980732799,4.50000022351742,2.25000000244417));
#1367=CARTESIAN_POINT('',(55.6999980732799,4.50000022351742,4.50000000488834));
#1368=CARTESIAN_POINT('Origin',(71.6999980732799,4.50000022351742,4.5000000062925));
#1369=CARTESIAN_POINT('',(71.6999980736748,3.00000022351742,0.));
#1370=CARTESIAN_POINT('',(71.6999980732799,3.00000022351742,4.5000000062925));
#1371=CARTESIAN_POINT('',(71.6999980734773,3.00000022351742,2.25000000250998));
#1372=CARTESIAN_POINT('',(71.6999980736748,2.23517417907715E-7,0.));
#1373=CARTESIAN_POINT('',(71.6999980736748,0.500000223517417,0.));
#1374=CARTESIAN_POINT('',(71.6999980732799,2.23517417907715E-7,4.5000000062925));
#1375=CARTESIAN_POINT('',(71.6999980734773,2.23517417907715E-7,2.25000000250998));
#1376=CARTESIAN_POINT('',(71.6999980732799,4.50000022351742,4.5000000062925));
#1377=CARTESIAN_POINT('Origin',(71.6999980732799,4.50000022351742,4.5000000062925));
#1378=CARTESIAN_POINT('',(71.6999980732799,-9.99999977648258,4.5000000062925));
#1379=CARTESIAN_POINT('',(71.6999980736748,-9.99999977648258,0.));
#1380=CARTESIAN_POINT('',(71.6999980734773,-9.99999977648258,2.25000000321207));
#1381=CARTESIAN_POINT('',(71.6999980732799,-6.99999977648258,4.5000000062925));
#1382=CARTESIAN_POINT('',(71.6999980732799,4.50000022351742,4.5000000062925));
#1383=CARTESIAN_POINT('',(71.6999980736748,-6.99999977648258,6.29250263006741E-9));
#1384=CARTESIAN_POINT('',(71.6999980734773,-6.99999977648258,2.25000000321207));
#1385=CARTESIAN_POINT('',(71.6999980736748,0.500000223517417,0.));
#1386=CARTESIAN_POINT('Origin',(55.6999980732799,4.50000022351742,4.50000000488834));
#1387=CARTESIAN_POINT('',(57.1999980732799,4.50000022351743,0.));
#1388=CARTESIAN_POINT('',(57.1999980732799,4.50000022351742,4.50000000501998));
#1389=CARTESIAN_POINT('',(57.1999980732799,4.50000022351742,2.25000000244416));
#1390=CARTESIAN_POINT('',(60.1999980732799,4.50000022351743,0.));
#1391=CARTESIAN_POINT('',(59.6999980732799,4.50000022351743,0.));
#1392=CARTESIAN_POINT('',(60.1999980732799,4.50000022351742,4.50000000528326));
#1393=CARTESIAN_POINT('',(60.1999980732799,4.50000022351742,2.25000000244416));
#1394=CARTESIAN_POINT('',(55.6999980732799,4.50000022351742,4.50000000488834));
#1395=CARTESIAN_POINT('Origin',(55.6999980732799,-11.4999997764826,4.50000000488832));
#1396=CARTESIAN_POINT('',(55.6999980736748,-9.99999977648258,0.));
#1397=CARTESIAN_POINT('',(55.6999980732799,-9.99999977648258,4.50000000488832));
#1398=CARTESIAN_POINT('',(55.6999980734773,-9.99999977648258,2.25000000308043));
#1399=CARTESIAN_POINT('',(55.6999980736748,-6.99999977648258,0.));
#1400=CARTESIAN_POINT('',(55.6999980736748,-7.49999977648258,0.));
#1401=CARTESIAN_POINT('',(55.6999980732799,-6.99999977648258,4.50000000488832));
#1402=CARTESIAN_POINT('',(55.6999980734773,-6.99999977648258,2.25000000308043));
#1403=CARTESIAN_POINT('',(55.6999980732799,-11.4999997764826,4.50000000488832));
#1404=CARTESIAN_POINT('Origin',(41.1999980732799,-9.99999977648258,0.));
#1405=CARTESIAN_POINT('',(57.1999980732799,-9.99999977648258,4.50000000501996));
#1406=CARTESIAN_POINT('',(52.4499980730824,-9.99999977648258,4.50000000460309));
#1407=CARTESIAN_POINT('',(57.1999980732799,-9.99999977648258,6.5));
#1408=CARTESIAN_POINT('',(57.1999980732799,-9.99999977648258,0.));
#1409=CARTESIAN_POINT('',(41.1999980732799,-9.99999977648258,6.5));
#1410=CARTESIAN_POINT('',(57.1999980732799,-9.99999977648258,6.5));
#1411=CARTESIAN_POINT('',(41.1999980732799,-9.99999977648258,1.5));
#1412=CARTESIAN_POINT('',(41.1999980732799,-9.99999977648258,0.));
#1413=CARTESIAN_POINT('',(42.6999980732799,-9.99999977648258,0.));
#1414=CARTESIAN_POINT('',(41.9499980732799,-9.99999977648258,0.750000000000001));
#1415=CARTESIAN_POINT('',(57.1999980732799,-9.99999977648258,0.));
#1416=CARTESIAN_POINT('Origin',(57.1999980732799,-9.99999977648258,0.));
#1417=CARTESIAN_POINT('',(57.1999980732799,-6.74999977648259,4.50000000501997));
#1418=CARTESIAN_POINT('',(57.1999980732799,-24.4999997764826,0.));
#1419=CARTESIAN_POINT('',(57.1999980732799,-9.99999977648258,0.));
#1420=CARTESIAN_POINT('',(57.1999980732799,-25.9999997764826,1.5));
#1421=CARTESIAN_POINT('',(57.1999980732799,-21.2499997764826,-3.25));
#1422=CARTESIAN_POINT('',(57.1999980732799,-25.9999997764826,6.5));
#1423=CARTESIAN_POINT('',(57.1999980732799,-25.9999997764826,0.));
#1424=CARTESIAN_POINT('',(57.1999980732799,-9.99999977648258,6.5));
#1425=CARTESIAN_POINT('Origin',(63.6999980732799,-3.49999977648258,0.));
#1426=CARTESIAN_POINT('',(60.1999980732799,-24.4999997764826,0.));
#1427=CARTESIAN_POINT('',(60.1999980732799,-6.74999977648258,0.));
#1428=CARTESIAN_POINT('',(60.4499980732799,-24.4999997764826,0.));
#1429=CARTESIAN_POINT('Origin',(63.6999980732799,-3.49999977648258,0.));
#1430=CARTESIAN_POINT('',(42.6999980732799,-6.99999977648258,0.));
#1431=CARTESIAN_POINT('',(42.6999980732799,-0.249999776482582,0.));
#1432=CARTESIAN_POINT('',(52.4499980732799,-6.99999977648258,0.));
#1433=CARTESIAN_POINT('Origin',(57.1999980732799,3.00000022351742,0.));
#1434=CARTESIAN_POINT('',(57.1999980732799,3.00000022351742,4.50000000501998));
#1435=CARTESIAN_POINT('',(60.4499980730824,3.00000022351742,4.50000000530521));
#1436=CARTESIAN_POINT('',(42.6999980732799,3.00000022351742,0.));
#1437=CARTESIAN_POINT('',(41.1999980732799,3.00000022351742,0.));
#1438=CARTESIAN_POINT('',(41.1999980732799,3.00000022351742,1.5));
#1439=CARTESIAN_POINT('',(45.9499980732799,3.00000022351742,-3.25));
#1440=CARTESIAN_POINT('',(41.1999980732799,3.00000022351742,6.5));
#1441=CARTESIAN_POINT('',(41.1999980732799,3.00000022351742,0.));
#1442=CARTESIAN_POINT('',(57.1999980732799,3.00000022351742,6.5));
#1443=CARTESIAN_POINT('',(41.1999980732799,3.00000022351742,6.5));
#1444=CARTESIAN_POINT('',(57.1999980732799,3.00000022351742,0.));
#1445=CARTESIAN_POINT('Origin',(60.1999980732799,-9.99999977648258,0.));
#1446=CARTESIAN_POINT('',(60.1999980732799,-25.9999997764826,4.5));
#1447=CARTESIAN_POINT('',(60.1999980732799,-25.9999997764826,4.5));
#1448=CARTESIAN_POINT('',(60.1999980732799,-25.9999997764826,1.5));
#1449=CARTESIAN_POINT('',(60.1999980732799,-25.9999997764826,0.));
#1450=CARTESIAN_POINT('',(60.1999980732799,-21.2499997764826,-3.25));
#1451=CARTESIAN_POINT('Origin',(63.6999980732799,-3.49999977648258,0.));
#1452=CARTESIAN_POINT('',(57.1999980732799,17.5000002235174,0.));
#1453=CARTESIAN_POINT('',(57.1999980732799,3.00000022351742,0.));
#1454=CARTESIAN_POINT('',(60.1999980732799,17.5000002235174,0.));
#1455=CARTESIAN_POINT('',(66.9499980732799,17.5000002235174,0.));
#1456=CARTESIAN_POINT('',(60.1999980732799,7.75000022351742,0.));
#1457=CARTESIAN_POINT('Origin',(70.1999980732799,-25.9999997764826,0.));
#1458=CARTESIAN_POINT('',(70.1999980732799,-9.99999977648258,4.50000000616086));
#1459=CARTESIAN_POINT('',(70.1999980732799,-14.7499997764826,4.50000000616085));
#1460=CARTESIAN_POINT('',(70.1999980732799,-9.99999977648258,6.5));
#1461=CARTESIAN_POINT('',(70.1999980732799,-9.99999977648258,0.));
#1462=CARTESIAN_POINT('',(70.1999980732799,-25.9999997764826,6.5));
#1463=CARTESIAN_POINT('',(70.1999980732799,-25.9999997764826,6.5));
#1464=CARTESIAN_POINT('',(70.1999980732799,-25.9999997764826,1.5));
#1465=CARTESIAN_POINT('',(70.1999980732799,-25.9999997764826,0.));
#1466=CARTESIAN_POINT('',(70.1999980732799,-24.4999997764826,0.));
#1467=CARTESIAN_POINT('',(70.1999980732799,-25.2499997764826,0.749999999999999));
#1468=CARTESIAN_POINT('',(70.1999980732799,-25.9999997764826,0.));
#1469=CARTESIAN_POINT('Origin',(70.1999980732799,-9.99999977648258,0.));
#1470=CARTESIAN_POINT('',(66.9499980730824,-9.99999977648258,4.50000000587564));
#1471=CARTESIAN_POINT('',(84.6999980732799,-9.99999977648258,0.));
#1472=CARTESIAN_POINT('',(86.1999980732799,-9.99999977648258,0.));
#1473=CARTESIAN_POINT('',(86.1999980732799,-9.99999977648258,1.5));
#1474=CARTESIAN_POINT('',(81.4499980732799,-9.99999977648258,-3.25));
#1475=CARTESIAN_POINT('',(86.1999980732799,-9.99999977648258,6.5));
#1476=CARTESIAN_POINT('',(86.1999980732799,-9.99999977648258,0.));
#1477=CARTESIAN_POINT('',(86.1999980732799,-9.99999977648258,6.5));
#1478=CARTESIAN_POINT('Origin',(63.6999980732799,-3.49999977648258,0.));
#1479=CARTESIAN_POINT('',(84.6999980732799,-6.99999977648258,0.));
#1480=CARTESIAN_POINT('',(66.9499980732799,-6.99999977648258,0.));
#1481=CARTESIAN_POINT('',(84.6999980732799,-6.74999977648258,0.));
#1482=CARTESIAN_POINT('Origin',(63.6999980732799,-3.49999977648258,0.));
#1483=CARTESIAN_POINT('',(67.1999980732799,-24.4999997764826,0.));
#1484=CARTESIAN_POINT('',(60.4499980732799,-24.4999997764826,0.));
#1485=CARTESIAN_POINT('',(67.1999980732799,-14.7499997764826,0.));
#1486=CARTESIAN_POINT('Origin',(70.1999980732799,-6.99999977648258,0.));
#1487=CARTESIAN_POINT('',(86.1999980732799,-6.99999977648258,4.5));
#1488=CARTESIAN_POINT('',(70.1999980732799,-6.99999977648258,4.5));
#1489=CARTESIAN_POINT('',(86.1999980732799,-6.99999977648258,1.5));
#1490=CARTESIAN_POINT('',(86.1999980732799,-6.99999977648258,0.));
#1491=CARTESIAN_POINT('',(81.4499980732799,-6.99999977648258,-3.25));
#1492=CARTESIAN_POINT('Origin',(70.1999980732799,3.00000022351742,0.));
#1493=CARTESIAN_POINT('',(70.1999980732799,3.00000022351742,4.50000000616088));
#1494=CARTESIAN_POINT('',(70.1999980732799,-0.249999776482585,4.50000000616088));
#1495=CARTESIAN_POINT('',(70.1999980732799,17.5000002235174,0.));
#1496=CARTESIAN_POINT('',(70.1999980732799,19.0000002235174,0.));
#1497=CARTESIAN_POINT('',(70.1999980732799,19.0000002235174,1.5));
#1498=CARTESIAN_POINT('',(70.1999980732799,14.2500002235174,-3.25));
#1499=CARTESIAN_POINT('',(70.1999980732799,19.0000002235174,6.5));
#1500=CARTESIAN_POINT('',(70.1999980732799,19.0000002235174,0.));
#1501=CARTESIAN_POINT('',(70.1999980732799,3.00000022351742,6.5));
#1502=CARTESIAN_POINT('',(70.1999980732799,19.0000002235174,6.5));
#1503=CARTESIAN_POINT('',(70.1999980732799,3.00000022351742,0.));
#1504=CARTESIAN_POINT('Origin',(86.1999980732799,2.23517417907715E-7,0.));
#1505=CARTESIAN_POINT('',(84.6999980732799,2.23517417907715E-7,0.));
#1506=CARTESIAN_POINT('',(74.9499980732799,2.23517417907715E-7,0.));
#1507=CARTESIAN_POINT('',(86.1999980732799,2.23517417907715E-7,1.5));
#1508=CARTESIAN_POINT('',(85.4499980732799,2.23517418462826E-7,0.749999999999999));
#1509=CARTESIAN_POINT('',(86.1999980732799,2.23517417907715E-7,4.5));
#1510=CARTESIAN_POINT('',(86.1999980732799,2.23517417907715E-7,0.));
#1511=CARTESIAN_POINT('',(70.1999980732799,2.23517417907715E-7,4.5));
#1512=CARTESIAN_POINT('Origin',(63.6999980732799,-3.49999977648258,0.));
#1513=CARTESIAN_POINT('',(84.6999980732799,3.00000022351742,0.));
#1514=CARTESIAN_POINT('',(70.1999980732799,3.00000022351742,0.));
#1515=CARTESIAN_POINT('',(84.6999980732799,-6.74999977648258,0.));
#1516=CARTESIAN_POINT('Origin',(85.4499980732799,-6.74999977648258,0.75));
#1517=CARTESIAN_POINT('',(86.1999980732799,-6.74999977648258,1.5));
#1518=CARTESIAN_POINT('Origin',(85.4499980732799,-6.74999977648258,0.75));
#1519=CARTESIAN_POINT('',(86.1999980732799,3.00000022351742,1.5));
#1520=CARTESIAN_POINT('',(85.4499980732799,3.00000022351742,0.749999999999999));
#1521=CARTESIAN_POINT('',(86.1999980732799,-6.74999977648258,1.5));
#1522=CARTESIAN_POINT('Origin',(63.6999980732799,-3.49999977648258,0.));
#1523=CARTESIAN_POINT('',(67.1999980732799,17.5000002235174,0.));
#1524=CARTESIAN_POINT('',(67.1999980732799,-0.249999776482582,0.));
#1525=CARTESIAN_POINT('',(66.9499980732799,17.5000002235174,0.));
#1526=CARTESIAN_POINT('Origin',(60.4499980732799,-25.2499997764826,0.75));
#1527=CARTESIAN_POINT('',(67.1999980732799,-25.9999997764826,1.5));
#1528=CARTESIAN_POINT('',(60.4499980732799,-25.9999997764826,1.5));
#1529=CARTESIAN_POINT('',(67.1999980732799,-25.2499997764826,0.749999999999999));
#1530=CARTESIAN_POINT('Origin',(67.1999980732799,-25.9999997764826,0.));
#1531=CARTESIAN_POINT('',(67.1999980732799,-25.9999997764826,4.5));
#1532=CARTESIAN_POINT('',(67.1999980732799,-25.9999997764826,0.));
#1533=CARTESIAN_POINT('',(67.1999980732799,-25.9999997764826,4.5));
#1534=CARTESIAN_POINT('Origin',(60.4499980732799,-25.2499997764826,0.75));
#1535=CARTESIAN_POINT('',(60.4499980732799,-25.9999997764826,1.5));
#1536=CARTESIAN_POINT('Origin',(66.9499980732799,18.2500002235174,0.75));
#1537=CARTESIAN_POINT('',(67.1999980732799,19.0000002235174,1.5));
#1538=CARTESIAN_POINT('',(67.1999980732799,14.2500002235174,-3.25));
#1539=CARTESIAN_POINT('',(66.9499980732799,19.0000002235174,1.5));
#1540=CARTESIAN_POINT('Origin',(70.1999980732799,19.0000002235174,0.));
#1541=CARTESIAN_POINT('',(67.1999980732799,19.0000002235174,4.5));
#1542=CARTESIAN_POINT('',(67.1999980732799,19.0000002235174,0.));
#1543=CARTESIAN_POINT('',(60.1999980732799,19.0000002235174,4.5));
#1544=CARTESIAN_POINT('',(66.9499980732799,19.0000002235174,4.5));
#1545=CARTESIAN_POINT('',(60.1999980732799,19.0000002235174,1.5));
#1546=CARTESIAN_POINT('',(60.1999980732799,19.0000002235174,0.));
#1547=CARTESIAN_POINT('',(57.1999980732799,19.0000002235174,1.5));
#1548=CARTESIAN_POINT('',(66.9499980732799,19.0000002235174,1.5));
#1549=CARTESIAN_POINT('',(57.1999980732799,19.0000002235174,6.5));
#1550=CARTESIAN_POINT('',(57.1999980732799,19.0000002235174,0.));
#1551=CARTESIAN_POINT('',(57.1999980732799,19.0000002235174,6.5));
#1552=CARTESIAN_POINT('Origin',(67.1999980732799,3.00000022351742,0.));
#1553=CARTESIAN_POINT('',(67.1999980732799,19.0000002235174,4.5));
#1554=CARTESIAN_POINT('Origin',(66.9499980732799,18.2500002235174,0.75));
#1555=CARTESIAN_POINT('',(57.1999980732799,18.2500002235174,0.75));
#1556=CARTESIAN_POINT('',(60.1999980732799,18.2500002235174,0.75));
#1557=CARTESIAN_POINT('Origin',(63.6999980732799,-3.49999977648258,0.));
#1558=CARTESIAN_POINT('',(42.6999980732799,2.23517417907715E-7,0.));
#1559=CARTESIAN_POINT('',(60.4499980732799,2.23517417907715E-7,0.));
#1560=CARTESIAN_POINT('',(42.6999980732799,-0.249999776482582,0.));
#1561=CARTESIAN_POINT('Origin',(60.1999980732799,19.0000002235174,0.));
#1562=CARTESIAN_POINT('',(60.1999980732799,19.0000002235174,4.5));
#1563=CARTESIAN_POINT('Origin',(41.9499980732799,-0.249999776482582,0.75));
#1564=CARTESIAN_POINT('',(41.1999980732799,2.23517417907715E-7,1.5));
#1565=CARTESIAN_POINT('',(45.9499980732799,2.23517417890368E-7,-3.25));
#1566=CARTESIAN_POINT('',(41.1999980732799,-0.249999776482582,1.5));
#1567=CARTESIAN_POINT('Origin',(41.1999980732799,3.00000022351742,0.));
#1568=CARTESIAN_POINT('',(41.1999980732799,2.23517417907715E-7,4.5));
#1569=CARTESIAN_POINT('',(41.1999980732799,2.23517417907715E-7,0.));
#1570=CARTESIAN_POINT('',(41.1999980732799,-6.99999977648258,4.5));
#1571=CARTESIAN_POINT('',(41.1999980732799,-0.24999977648258,4.5));
#1572=CARTESIAN_POINT('',(41.1999980732799,-6.99999977648258,1.5));
#1573=CARTESIAN_POINT('',(41.1999980732799,-6.99999977648258,0.));
#1574=CARTESIAN_POINT('',(41.1999980732799,-0.249999776482582,1.5));
#1575=CARTESIAN_POINT('',(41.1999980732799,-9.99999977648258,6.5));
#1576=CARTESIAN_POINT('Origin',(57.1999980732799,2.23517417907715E-7,0.));
#1577=CARTESIAN_POINT('',(57.1999980732799,2.23517417907715E-7,4.5));
#1578=CARTESIAN_POINT('Origin',(41.9499980732799,-0.249999776482582,0.75));
#1579=CARTESIAN_POINT('',(41.9499980732799,-6.99999977648258,0.750000000000001));
#1580=CARTESIAN_POINT('Origin',(41.1999980732799,-6.99999977648258,0.));
#1581=CARTESIAN_POINT('',(41.1999980732799,-6.99999977648258,4.5));
#1582=CARTESIAN_POINT('Origin',(63.6999980732799,-3.49999977648258,7.98544613552436));
#1583=CARTESIAN_POINT('',(63.6999980732799,2.23517417907715E-7,6.83544613552436));
#1584=CARTESIAN_POINT('Origin',(63.6999980732799,2.23517417907715E-7,7.98544613552436));
#1585=CARTESIAN_POINT('',(63.6999980732799,-6.99999977648258,6.83544613552436));
#1586=CARTESIAN_POINT('',(63.6999980732799,-3.49999977648258,6.83544613552436));
#1587=CARTESIAN_POINT('Origin',(63.6999980732799,-6.99999977648258,7.98544613552436));
#1588=CARTESIAN_POINT('Origin',(63.6999980732799,2.23517417907715E-7,6.5));
#1589=CARTESIAN_POINT('',(60.1999980732799,2.23517417907715E-7,6.5));
#1590=CARTESIAN_POINT('',(67.1999980732799,2.23517417907715E-7,6.5));
#1591=CARTESIAN_POINT('Origin',(63.6999980732799,2.23517417907715E-7,6.5));
#1592=CARTESIAN_POINT('',(60.1999980732799,-6.99999977648258,6.5));
#1593=CARTESIAN_POINT('',(60.1999980732799,-1.74999977648258,6.5));
#1594=CARTESIAN_POINT('',(67.1999980732799,-6.99999977648258,6.5));
#1595=CARTESIAN_POINT('Origin',(63.6999980732799,-6.99999977648258,6.5));
#1596=CARTESIAN_POINT('',(67.1999980732799,-5.24999977648258,6.5));
#1597=CARTESIAN_POINT('Origin',(60.1999980732799,-6.99999977648258,6.5));
#1598=CARTESIAN_POINT('',(61.9499980732799,-6.99999977648258,6.5));
#1599=CARTESIAN_POINT('Origin',(67.1999980732799,2.23517417907715E-7,6.5));
#1600=CARTESIAN_POINT('',(65.4499980732799,2.23517417907715E-7,6.5));
#1601=CARTESIAN_POINT('Origin',(63.6999980732799,-3.49999977648258,4.5));
#1602=CARTESIAN_POINT('',(57.1999980732799,7.75000022351742,4.50000000501999));
#1603=CARTESIAN_POINT('',(74.9499980730824,3.00000022351742,4.50000000657775));
#1604=CARTESIAN_POINT('',(86.1999980732799,-6.74999977648258,4.5));
#1605=CARTESIAN_POINT('',(60.4499980732799,-25.9999997764826,4.5));
#1606=CARTESIAN_POINT('Origin',(57.1999980732799,-25.9999997764826,0.));
#1607=CARTESIAN_POINT('',(57.1999980732799,-25.9999997764826,6.5));
#1608=CARTESIAN_POINT('Origin',(57.1999980732799,19.0000002235174,0.));
#1609=CARTESIAN_POINT('',(57.1999980732799,3.00000022351742,6.5));
#1610=CARTESIAN_POINT('Origin',(86.1999980732799,3.00000022351742,0.));
#1611=CARTESIAN_POINT('',(86.1999980732799,3.00000022351742,6.5));
#1612=CARTESIAN_POINT('',(70.1999980732799,3.00000022351742,6.5));
#1613=CARTESIAN_POINT('',(86.1999980732799,3.00000022351742,0.));
#1614=CARTESIAN_POINT('Origin',(86.1999980732799,-9.99999977648258,0.));
#1615=CARTESIAN_POINT('',(86.1999980732799,3.00000022351742,6.5));
#1616=CARTESIAN_POINT('Origin',(63.6999980732799,-3.49999977648258,6.5));
#1617=UNCERTAINTY_MEASURE_WITH_UNIT(LENGTH_MEASURE(0.01),#1621,
'DISTANCE_ACCURACY_VALUE',
'Maximum model space distance between geometric entities at asserted c
onnectivities');
#1618=UNCERTAINTY_MEASURE_WITH_UNIT(LENGTH_MEASURE(0.01),#1621,
'DISTANCE_ACCURACY_VALUE',
'Maximum model space distance between geometric entities at asserted c
onnectivities');
#1619=(
GEOMETRIC_REPRESENTATION_CONTEXT(3)
GLOBAL_UNCERTAINTY_ASSIGNED_CONTEXT((#1617))
GLOBAL_UNIT_ASSIGNED_CONTEXT((#1621,#1623,#1624))
REPRESENTATION_CONTEXT('','3D')
);
#1620=(
GEOMETRIC_REPRESENTATION_CONTEXT(3)
GLOBAL_UNCERTAINTY_ASSIGNED_CONTEXT((#1618))
GLOBAL_UNIT_ASSIGNED_CONTEXT((#1621,#1623,#1624))
REPRESENTATION_CONTEXT('','3D')
);
#1621=(
LENGTH_UNIT()
NAMED_UNIT(*)
SI_UNIT(.MILLI.,.METRE.)
);
#1622=(
LENGTH_UNIT()
NAMED_UNIT(*)
SI_UNIT($,.METRE.)
);
#1623=(
NAMED_UNIT(*)
PLANE_ANGLE_UNIT()
SI_UNIT($,.RADIAN.)
);
#1624=(
NAMED_UNIT(*)
SI_UNIT($,.STERADIAN.)
SOLID_ANGLE_UNIT()
);
#1625=SHAPE_DEFINITION_REPRESENTATION(#1626,#1627);
#1626=PRODUCT_DEFINITION_SHAPE('',$,#1629);
#1627=SHAPE_REPRESENTATION('',(#1029),#1619);
#1628=PRODUCT_DEFINITION_CONTEXT('part definition',#1633,'design');
#1629=PRODUCT_DEFINITION('LockV12','LockV12',#1630,#1628);
#1630=PRODUCT_DEFINITION_FORMATION('',$,#1635);
#1631=PRODUCT_RELATED_PRODUCT_CATEGORY('LockV12','LockV12',(#1635));
#1632=APPLICATION_PROTOCOL_DEFINITION('international standard',
'automotive_design',2009,#1633);
#1633=APPLICATION_CONTEXT(
'Core Data for Automotive Mechanical Design Process');
#1634=PRODUCT_CONTEXT('part definition',#1633,'mechanical');
#1635=PRODUCT('LockV12','LockV12',$,(#1634));
#1636=PRESENTATION_STYLE_ASSIGNMENT((#1638));
#1637=PRESENTATION_STYLE_ASSIGNMENT((#1639));
#1638=SURFACE_STYLE_USAGE(.BOTH.,#1640);
#1639=SURFACE_STYLE_USAGE(.BOTH.,#1641);
#1640=SURFACE_SIDE_STYLE('',(#1642));
#1641=SURFACE_SIDE_STYLE('',(#1643));
#1642=SURFACE_STYLE_FILL_AREA(#1644);
#1643=SURFACE_STYLE_FILL_AREA(#1645);
#1644=FILL_AREA_STYLE('Steel - Satin',(#1646));
#1645=FILL_AREA_STYLE('Powder Coat (Red)',(#1647));
#1646=FILL_AREA_STYLE_COLOUR('Steel - Satin',#1648);
#1647=FILL_AREA_STYLE_COLOUR('Powder Coat (Red)',#1649);
#1648=COLOUR_RGB('Steel - Satin',0.627450980392157,0.627450980392157,0.627450980392157);
#1649=COLOUR_RGB('Powder Coat (Red)',0.768627450980392,0.207843137254902,
0.152941176470588);
ENDSEC;
END-ISO-10303-21;
