ISO-10303-21;
HEADER;
/* Generated by software containing ST-Developer
 * from STEP Tools, Inc. (www.steptools.com) 
 */

FILE_DESCRIPTION(
/* description */ (''),
/* implementation_level */ '2;1');

FILE_NAME(
/* name */ 'BaseBottom.step',
/* time_stamp */ '2026-04-09T15:04:45+02:00',
/* author */ (''),
/* organization */ (''),
/* preprocessor_version */ 'ST-DEVELOPER v20.1',
/* originating_system */ 'Autodesk Translation Framework v14.24.0.0',
/* authorisation */ '');

FILE_SCHEMA (('AUTOMOTIVE_DESIGN { 1 0 10303 214 3 1 1 }'));
ENDSEC;

DATA;
#10=MECHANICAL_DESIGN_GEOMETRIC_PRESENTATION_REPRESENTATION('',(#13),#2069);
#11=SHAPE_REPRESENTATION_RELATIONSHIP('SRR','None',#2076,#12);
#12=ADVANCED_BREP_SHAPE_REPRESENTATION('',(#14),#2068);
#13=STYLED_ITEM('',(#2086),#14);
#14=MANIFOLD_SOLID_BREP('Body1',#1263);
#15=CYLINDRICAL_SURFACE('',#1289,2.25);
#16=CYLINDRICAL_SURFACE('',#1291,2.25);
#17=CYLINDRICAL_SURFACE('',#1294,2.25);
#18=CYLINDRICAL_SURFACE('',#1317,32.5);
#19=CYLINDRICAL_SURFACE('',#1333,32.5);
#20=CYLINDRICAL_SURFACE('',#1365,32.5);
#21=FACE_BOUND('',#123,.T.);
#22=FACE_BOUND('',#140,.T.);
#23=FACE_BOUND('',#162,.T.);
#24=CIRCLE('',#1285,32.5);
#25=CIRCLE('',#1286,32.5);
#26=CIRCLE('',#1287,32.5);
#27=CIRCLE('',#1288,2.25);
#28=CIRCLE('',#1290,2.25);
#29=CIRCLE('',#1292,2.25);
#30=CIRCLE('',#1293,2.25);
#31=CIRCLE('',#1295,2.25);
#32=CIRCLE('',#1296,2.25);
#33=CIRCLE('',#1305,32.5);
#34=CIRCLE('',#1307,32.5);
#35=CIRCLE('',#1312,32.5);
#36=CIRCLE('',#1313,32.5);
#37=CIRCLE('',#1314,32.5);
#38=CIRCLE('',#1315,32.5);
#39=CIRCLE('',#1318,32.5);
#40=CIRCLE('',#1319,32.5);
#41=CIRCLE('',#1321,32.5);
#42=CIRCLE('',#1323,32.5);
#43=CIRCLE('',#1331,32.5);
#44=CIRCLE('',#1334,32.5);
#45=CIRCLE('',#1343,32.5);
#46=CIRCLE('',#1348,32.5);
#47=CIRCLE('',#1362,32.5);
#48=CIRCLE('',#1364,32.5);
#49=CIRCLE('',#1366,32.5);
#50=FACE_OUTER_BOUND('',#115,.T.);
#51=FACE_OUTER_BOUND('',#116,.T.);
#52=FACE_OUTER_BOUND('',#117,.T.);
#53=FACE_OUTER_BOUND('',#118,.T.);
#54=FACE_OUTER_BOUND('',#119,.T.);
#55=FACE_OUTER_BOUND('',#120,.T.);
#56=FACE_OUTER_BOUND('',#121,.T.);
#57=FACE_OUTER_BOUND('',#122,.T.);
#58=FACE_OUTER_BOUND('',#124,.T.);
#59=FACE_OUTER_BOUND('',#125,.T.);
#60=FACE_OUTER_BOUND('',#126,.T.);
#61=FACE_OUTER_BOUND('',#127,.T.);
#62=FACE_OUTER_BOUND('',#128,.T.);
#63=FACE_OUTER_BOUND('',#129,.T.);
#64=FACE_OUTER_BOUND('',#130,.T.);
#65=FACE_OUTER_BOUND('',#131,.T.);
#66=FACE_OUTER_BOUND('',#132,.T.);
#67=FACE_OUTER_BOUND('',#133,.T.);
#68=FACE_OUTER_BOUND('',#134,.T.);
#69=FACE_OUTER_BOUND('',#135,.T.);
#70=FACE_OUTER_BOUND('',#136,.T.);
#71=FACE_OUTER_BOUND('',#137,.T.);
#72=FACE_OUTER_BOUND('',#138,.T.);
#73=FACE_OUTER_BOUND('',#139,.T.);
#74=FACE_OUTER_BOUND('',#141,.T.);
#75=FACE_OUTER_BOUND('',#142,.T.);
#76=FACE_OUTER_BOUND('',#143,.T.);
#77=FACE_OUTER_BOUND('',#144,.T.);
#78=FACE_OUTER_BOUND('',#145,.T.);
#79=FACE_OUTER_BOUND('',#146,.T.);
#80=FACE_OUTER_BOUND('',#147,.T.);
#81=FACE_OUTER_BOUND('',#148,.T.);
#82=FACE_OUTER_BOUND('',#149,.T.);
#83=FACE_OUTER_BOUND('',#150,.T.);
#84=FACE_OUTER_BOUND('',#151,.T.);
#85=FACE_OUTER_BOUND('',#152,.T.);
#86=FACE_OUTER_BOUND('',#153,.T.);
#87=FACE_OUTER_BOUND('',#154,.T.);
#88=FACE_OUTER_BOUND('',#155,.T.);
#89=FACE_OUTER_BOUND('',#156,.T.);
#90=FACE_OUTER_BOUND('',#157,.T.);
#91=FACE_OUTER_BOUND('',#158,.T.);
#92=FACE_OUTER_BOUND('',#159,.T.);
#93=FACE_OUTER_BOUND('',#160,.T.);
#94=FACE_OUTER_BOUND('',#161,.T.);
#95=FACE_OUTER_BOUND('',#163,.T.);
#96=FACE_OUTER_BOUND('',#164,.T.);
#97=FACE_OUTER_BOUND('',#165,.T.);
#98=FACE_OUTER_BOUND('',#166,.T.);
#99=FACE_OUTER_BOUND('',#167,.T.);
#100=FACE_OUTER_BOUND('',#168,.T.);
#101=FACE_OUTER_BOUND('',#169,.T.);
#102=FACE_OUTER_BOUND('',#170,.T.);
#103=FACE_OUTER_BOUND('',#171,.T.);
#104=FACE_OUTER_BOUND('',#172,.T.);
#105=FACE_OUTER_BOUND('',#173,.T.);
#106=FACE_OUTER_BOUND('',#174,.T.);
#107=FACE_OUTER_BOUND('',#175,.T.);
#108=FACE_OUTER_BOUND('',#176,.T.);
#109=FACE_OUTER_BOUND('',#177,.T.);
#110=FACE_OUTER_BOUND('',#178,.T.);
#111=FACE_OUTER_BOUND('',#179,.T.);
#112=FACE_OUTER_BOUND('',#180,.T.);
#113=FACE_OUTER_BOUND('',#181,.T.);
#114=FACE_OUTER_BOUND('',#182,.T.);
#115=EDGE_LOOP('',(#783,#784,#785,#786,#787,#788));
#116=EDGE_LOOP('',(#789,#790,#791,#792,#793,#794));
#117=EDGE_LOOP('',(#795,#796,#797,#798));
#118=EDGE_LOOP('',(#799,#800,#801,#802));
#119=EDGE_LOOP('',(#803,#804,#805,#806,#807,#808,#809,#810));
#120=EDGE_LOOP('',(#811,#812,#813,#814));
#121=EDGE_LOOP('',(#815,#816,#817,#818));
#122=EDGE_LOOP('',(#819,#820,#821,#822,#823,#824,#825,#826,#827,#828,#829,
#830,#831,#832,#833,#834));
#123=EDGE_LOOP('',(#835));
#124=EDGE_LOOP('',(#836,#837,#838,#839));
#125=EDGE_LOOP('',(#840,#841,#842,#843));
#126=EDGE_LOOP('',(#844,#845,#846,#847));
#127=EDGE_LOOP('',(#848,#849,#850,#851,#852,#853,#854,#855));
#128=EDGE_LOOP('',(#856,#857,#858,#859));
#129=EDGE_LOOP('',(#860,#861,#862,#863,#864,#865,#866,#867,#868,#869,#870,
#871,#872,#873));
#130=EDGE_LOOP('',(#874,#875,#876,#877));
#131=EDGE_LOOP('',(#878,#879,#880,#881));
#132=EDGE_LOOP('',(#882,#883,#884,#885));
#133=EDGE_LOOP('',(#886,#887,#888,#889));
#134=EDGE_LOOP('',(#890,#891,#892,#893));
#135=EDGE_LOOP('',(#894,#895,#896,#897));
#136=EDGE_LOOP('',(#898,#899,#900,#901,#902,#903));
#137=EDGE_LOOP('',(#904,#905,#906,#907));
#138=EDGE_LOOP('',(#908,#909,#910,#911));
#139=EDGE_LOOP('',(#912,#913,#914,#915,#916,#917,#918,#919,#920,#921,#922,
#923,#924,#925,#926));
#140=EDGE_LOOP('',(#927));
#141=EDGE_LOOP('',(#928,#929,#930,#931,#932,#933));
#142=EDGE_LOOP('',(#934,#935,#936,#937,#938,#939));
#143=EDGE_LOOP('',(#940,#941,#942,#943,#944,#945,#946,#947,#948,#949,#950,
#951,#952,#953));
#144=EDGE_LOOP('',(#954,#955,#956,#957));
#145=EDGE_LOOP('',(#958,#959,#960,#961));
#146=EDGE_LOOP('',(#962,#963,#964,#965));
#147=EDGE_LOOP('',(#966,#967,#968,#969,#970,#971));
#148=EDGE_LOOP('',(#972,#973,#974,#975));
#149=EDGE_LOOP('',(#976,#977,#978,#979));
#150=EDGE_LOOP('',(#980,#981,#982,#983));
#151=EDGE_LOOP('',(#984,#985,#986,#987));
#152=EDGE_LOOP('',(#988,#989,#990,#991,#992,#993));
#153=EDGE_LOOP('',(#994,#995,#996,#997,#998,#999));
#154=EDGE_LOOP('',(#1000));
#155=EDGE_LOOP('',(#1001));
#156=EDGE_LOOP('',(#1002));
#157=EDGE_LOOP('',(#1003,#1004,#1005,#1006));
#158=EDGE_LOOP('',(#1007,#1008,#1009,#1010));
#159=EDGE_LOOP('',(#1011,#1012,#1013,#1014,#1015));
#160=EDGE_LOOP('',(#1016,#1017,#1018,#1019));
#161=EDGE_LOOP('',(#1020,#1021,#1022,#1023));
#162=EDGE_LOOP('',(#1024));
#163=EDGE_LOOP('',(#1025,#1026,#1027,#1028));
#164=EDGE_LOOP('',(#1029,#1030,#1031,#1032));
#165=EDGE_LOOP('',(#1033,#1034,#1035,#1036,#1037,#1038));
#166=EDGE_LOOP('',(#1039,#1040,#1041,#1042));
#167=EDGE_LOOP('',(#1043,#1044,#1045,#1046));
#168=EDGE_LOOP('',(#1047,#1048,#1049,#1050,#1051,#1052));
#169=EDGE_LOOP('',(#1053,#1054,#1055,#1056,#1057,#1058,#1059,#1060));
#170=EDGE_LOOP('',(#1061,#1062,#1063,#1064));
#171=EDGE_LOOP('',(#1065,#1066,#1067,#1068));
#172=EDGE_LOOP('',(#1069,#1070,#1071,#1072));
#173=EDGE_LOOP('',(#1073,#1074,#1075,#1076,#1077));
#174=EDGE_LOOP('',(#1078,#1079,#1080,#1081));
#175=EDGE_LOOP('',(#1082,#1083,#1084,#1085));
#176=EDGE_LOOP('',(#1086,#1087,#1088,#1089));
#177=EDGE_LOOP('',(#1090,#1091,#1092,#1093,#1094,#1095,#1096,#1097));
#178=EDGE_LOOP('',(#1098,#1099,#1100,#1101,#1102,#1103));
#179=EDGE_LOOP('',(#1104,#1105,#1106));
#180=EDGE_LOOP('',(#1107,#1108,#1109));
#181=EDGE_LOOP('',(#1110,#1111,#1112,#1113,#1114,#1115,#1116,#1117,#1118,
#1119,#1120,#1121,#1122,#1123,#1124,#1125,#1126,#1127,#1128,#1129,#1130,
#1131,#1132,#1133,#1134,#1135,#1136,#1137));
#182=EDGE_LOOP('',(#1138));
#183=LINE('',#1708,#335);
#184=LINE('',#1710,#336);
#185=LINE('',#1712,#337);
#186=LINE('',#1714,#338);
#187=LINE('',#1716,#339);
#188=LINE('',#1717,#340);
#189=LINE('',#1720,#341);
#190=LINE('',#1722,#342);
#191=LINE('',#1724,#343);
#192=LINE('',#1726,#344);
#193=LINE('',#1727,#345);
#194=LINE('',#1731,#346);
#195=LINE('',#1733,#347);
#196=LINE('',#1735,#348);
#197=LINE('',#1736,#349);
#198=LINE('',#1740,#350);
#199=LINE('',#1741,#351);
#200=LINE('',#1742,#352);
#201=LINE('',#1745,#353);
#202=LINE('',#1747,#354);
#203=LINE('',#1749,#355);
#204=LINE('',#1751,#356);
#205=LINE('',#1753,#357);
#206=LINE('',#1754,#358);
#207=LINE('',#1757,#359);
#208=LINE('',#1758,#360);
#209=LINE('',#1761,#361);
#210=LINE('',#1763,#362);
#211=LINE('',#1764,#363);
#212=LINE('',#1767,#364);
#213=LINE('',#1771,#365);
#214=LINE('',#1773,#366);
#215=LINE('',#1775,#367);
#216=LINE('',#1779,#368);
#217=LINE('',#1781,#369);
#218=LINE('',#1783,#370);
#219=LINE('',#1787,#371);
#220=LINE('',#1789,#372);
#221=LINE('',#1790,#373);
#222=LINE('',#1796,#374);
#223=LINE('',#1801,#375);
#224=LINE('',#1807,#376);
#225=LINE('',#1811,#377);
#226=LINE('',#1812,#378);
#227=LINE('',#1814,#379);
#228=LINE('',#1816,#380);
#229=LINE('',#1817,#381);
#230=LINE('',#1820,#382);
#231=LINE('',#1821,#383);
#232=LINE('',#1824,#384);
#233=LINE('',#1826,#385);
#234=LINE('',#1828,#386);
#235=LINE('',#1830,#387);
#236=LINE('',#1832,#388);
#237=LINE('',#1833,#389);
#238=LINE('',#1835,#390);
#239=LINE('',#1836,#391);
#240=LINE('',#1838,#392);
#241=LINE('',#1842,#393);
#242=LINE('',#1844,#394);
#243=LINE('',#1846,#395);
#244=LINE('',#1847,#396);
#245=LINE('',#1850,#397);
#246=LINE('',#1852,#398);
#247=LINE('',#1853,#399);
#248=LINE('',#1856,#400);
#249=LINE('',#1858,#401);
#250=LINE('',#1859,#402);
#251=LINE('',#1865,#403);
#252=LINE('',#1869,#404);
#253=LINE('',#1870,#405);
#254=LINE('',#1873,#406);
#255=LINE('',#1875,#407);
#256=LINE('',#1877,#408);
#257=LINE('',#1879,#409);
#258=LINE('',#1880,#410);
#259=LINE('',#1883,#411);
#260=LINE('',#1885,#412);
#261=LINE('',#1886,#413);
#262=LINE('',#1889,#414);
#263=LINE('',#1890,#415);
#264=LINE('',#1895,#416);
#265=LINE('',#1897,#417);
#266=LINE('',#1899,#418);
#267=LINE('',#1901,#419);
#268=LINE('',#1903,#420);
#269=LINE('',#1910,#421);
#270=LINE('',#1912,#422);
#271=LINE('',#1914,#423);
#272=LINE('',#1915,#424);
#273=LINE('',#1918,#425);
#274=LINE('',#1922,#426);
#275=LINE('',#1926,#427);
#276=LINE('',#1928,#428);
#277=LINE('',#1930,#429);
#278=LINE('',#1934,#430);
#279=LINE('',#1936,#431);
#280=LINE('',#1938,#432);
#281=LINE('',#1940,#433);
#282=LINE('',#1942,#434);
#283=LINE('',#1943,#435);
#284=LINE('',#1947,#436);
#285=LINE('',#1949,#437);
#286=LINE('',#1951,#438);
#287=LINE('',#1954,#439);
#288=LINE('',#1955,#440);
#289=LINE('',#1957,#441);
#290=LINE('',#1958,#442);
#291=LINE('',#1960,#443);
#292=LINE('',#1963,#444);
#293=LINE('',#1965,#445);
#294=LINE('',#1966,#446);
#295=LINE('',#1969,#447);
#296=LINE('',#1970,#448);
#297=LINE('',#1973,#449);
#298=LINE('',#1974,#450);
#299=LINE('',#1979,#451);
#300=LINE('',#1981,#452);
#301=LINE('',#1982,#453);
#302=LINE('',#1985,#454);
#303=LINE('',#1992,#455);
#304=LINE('',#1993,#456);
#305=LINE('',#1996,#457);
#306=LINE('',#1998,#458);
#307=LINE('',#1999,#459);
#308=LINE('',#2001,#460);
#309=LINE('',#2002,#461);
#310=LINE('',#2004,#462);
#311=LINE('',#2010,#463);
#312=LINE('',#2012,#464);
#313=LINE('',#2013,#465);
#314=LINE('',#2015,#466);
#315=LINE('',#2016,#467);
#316=LINE('',#2019,#468);
#317=LINE('',#2021,#469);
#318=LINE('',#2022,#470);
#319=LINE('',#2025,#471);
#320=LINE('',#2027,#472);
#321=LINE('',#2028,#473);
#322=LINE('',#2032,#474);
#323=LINE('',#2034,#475);
#324=LINE('',#2036,#476);
#325=LINE('',#2038,#477);
#326=LINE('',#2040,#478);
#327=LINE('',#2043,#479);
#328=LINE('',#2046,#480);
#329=LINE('',#2048,#481);
#330=LINE('',#2050,#482);
#331=LINE('',#2052,#483);
#332=LINE('',#2055,#484);
#333=LINE('',#2056,#485);
#334=LINE('',#2063,#486);
#335=VECTOR('',#1372,10.);
#336=VECTOR('',#1373,10.);
#337=VECTOR('',#1374,10.);
#338=VECTOR('',#1375,10.);
#339=VECTOR('',#1376,10.);
#340=VECTOR('',#1377,10.);
#341=VECTOR('',#1380,10.);
#342=VECTOR('',#1381,10.);
#343=VECTOR('',#1382,10.);
#344=VECTOR('',#1383,10.);
#345=VECTOR('',#1384,10.);
#346=VECTOR('',#1387,10.);
#347=VECTOR('',#1388,10.);
#348=VECTOR('',#1389,10.);
#349=VECTOR('',#1390,10.);
#350=VECTOR('',#1393,10.);
#351=VECTOR('',#1394,10.);
#352=VECTOR('',#1395,10.);
#353=VECTOR('',#1398,10.);
#354=VECTOR('',#1399,10.);
#355=VECTOR('',#1400,10.);
#356=VECTOR('',#1401,10.);
#357=VECTOR('',#1402,10.);
#358=VECTOR('',#1403,10.);
#359=VECTOR('',#1406,10.);
#360=VECTOR('',#1407,10.);
#361=VECTOR('',#1410,10.);
#362=VECTOR('',#1411,10.);
#363=VECTOR('',#1412,10.);
#364=VECTOR('',#1415,10.);
#365=VECTOR('',#1418,10.);
#366=VECTOR('',#1419,10.);
#367=VECTOR('',#1420,10.);
#368=VECTOR('',#1423,10.);
#369=VECTOR('',#1424,10.);
#370=VECTOR('',#1425,10.);
#371=VECTOR('',#1428,10.);
#372=VECTOR('',#1429,10.);
#373=VECTOR('',#1430,10.);
#374=VECTOR('',#1437,2.25);
#375=VECTOR('',#1442,2.25);
#376=VECTOR('',#1449,2.25);
#377=VECTOR('',#1454,10.);
#378=VECTOR('',#1455,10.);
#379=VECTOR('',#1456,10.);
#380=VECTOR('',#1457,10.);
#381=VECTOR('',#1458,10.);
#382=VECTOR('',#1461,10.);
#383=VECTOR('',#1462,10.);
#384=VECTOR('',#1465,10.);
#385=VECTOR('',#1466,10.);
#386=VECTOR('',#1467,10.);
#387=VECTOR('',#1468,10.);
#388=VECTOR('',#1469,10.);
#389=VECTOR('',#1470,10.);
#390=VECTOR('',#1471,10.);
#391=VECTOR('',#1472,10.);
#392=VECTOR('',#1475,10.);
#393=VECTOR('',#1478,10.);
#394=VECTOR('',#1479,10.);
#395=VECTOR('',#1480,10.);
#396=VECTOR('',#1481,10.);
#397=VECTOR('',#1484,10.);
#398=VECTOR('',#1485,10.);
#399=VECTOR('',#1486,10.);
#400=VECTOR('',#1489,10.);
#401=VECTOR('',#1490,10.);
#402=VECTOR('',#1491,10.);
#403=VECTOR('',#1498,10.);
#404=VECTOR('',#1501,10.);
#405=VECTOR('',#1502,10.);
#406=VECTOR('',#1505,10.);
#407=VECTOR('',#1506,10.);
#408=VECTOR('',#1507,10.);
#409=VECTOR('',#1508,10.);
#410=VECTOR('',#1509,10.);
#411=VECTOR('',#1512,10.);
#412=VECTOR('',#1513,10.);
#413=VECTOR('',#1514,10.);
#414=VECTOR('',#1517,10.);
#415=VECTOR('',#1518,10.);
#416=VECTOR('',#1523,10.);
#417=VECTOR('',#1524,10.);
#418=VECTOR('',#1525,10.);
#419=VECTOR('',#1526,10.);
#420=VECTOR('',#1527,10.);
#421=VECTOR('',#1536,10.);
#422=VECTOR('',#1537,10.);
#423=VECTOR('',#1538,10.);
#424=VECTOR('',#1539,10.);
#425=VECTOR('',#1542,10.);
#426=VECTOR('',#1545,10.);
#427=VECTOR('',#1550,10.);
#428=VECTOR('',#1551,10.);
#429=VECTOR('',#1552,10.);
#430=VECTOR('',#1555,10.);
#431=VECTOR('',#1556,10.);
#432=VECTOR('',#1557,10.);
#433=VECTOR('',#1558,10.);
#434=VECTOR('',#1559,10.);
#435=VECTOR('',#1560,10.);
#436=VECTOR('',#1563,10.);
#437=VECTOR('',#1564,10.);
#438=VECTOR('',#1565,10.);
#439=VECTOR('',#1570,10.);
#440=VECTOR('',#1571,10.);
#441=VECTOR('',#1574,10.);
#442=VECTOR('',#1575,10.);
#443=VECTOR('',#1578,10.);
#444=VECTOR('',#1581,10.);
#445=VECTOR('',#1582,10.);
#446=VECTOR('',#1583,10.);
#447=VECTOR('',#1586,10.);
#448=VECTOR('',#1587,10.);
#449=VECTOR('',#1590,10.);
#450=VECTOR('',#1591,10.);
#451=VECTOR('',#1598,10.);
#452=VECTOR('',#1599,10.);
#453=VECTOR('',#1600,10.);
#454=VECTOR('',#1603,10.);
#455=VECTOR('',#1614,10.);
#456=VECTOR('',#1615,10.);
#457=VECTOR('',#1618,10.);
#458=VECTOR('',#1619,10.);
#459=VECTOR('',#1620,10.);
#460=VECTOR('',#1623,10.);
#461=VECTOR('',#1624,10.);
#462=VECTOR('',#1627,10.);
#463=VECTOR('',#1632,10.);
#464=VECTOR('',#1633,10.);
#465=VECTOR('',#1634,10.);
#466=VECTOR('',#1637,10.);
#467=VECTOR('',#1638,10.);
#468=VECTOR('',#1641,10.);
#469=VECTOR('',#1642,10.);
#470=VECTOR('',#1643,10.);
#471=VECTOR('',#1646,10.);
#472=VECTOR('',#1647,10.);
#473=VECTOR('',#1648,10.);
#474=VECTOR('',#1653,10.);
#475=VECTOR('',#1656,10.);
#476=VECTOR('',#1659,10.);
#477=VECTOR('',#1662,10.);
#478=VECTOR('',#1665,10.);
#479=VECTOR('',#1670,10.);
#480=VECTOR('',#1675,10.);
#481=VECTOR('',#1678,10.);
#482=VECTOR('',#1681,10.);
#483=VECTOR('',#1684,10.);
#484=VECTOR('',#1687,10.);
#485=VECTOR('',#1688,10.);
#486=VECTOR('',#1699,32.5);
#487=VERTEX_POINT('',#1706);
#488=VERTEX_POINT('',#1707);
#489=VERTEX_POINT('',#1709);
#490=VERTEX_POINT('',#1711);
#491=VERTEX_POINT('',#1713);
#492=VERTEX_POINT('',#1715);
#493=VERTEX_POINT('',#1719);
#494=VERTEX_POINT('',#1721);
#495=VERTEX_POINT('',#1723);
#496=VERTEX_POINT('',#1725);
#497=VERTEX_POINT('',#1729);
#498=VERTEX_POINT('',#1730);
#499=VERTEX_POINT('',#1732);
#500=VERTEX_POINT('',#1734);
#501=VERTEX_POINT('',#1738);
#502=VERTEX_POINT('',#1739);
#503=VERTEX_POINT('',#1744);
#504=VERTEX_POINT('',#1746);
#505=VERTEX_POINT('',#1748);
#506=VERTEX_POINT('',#1750);
#507=VERTEX_POINT('',#1752);
#508=VERTEX_POINT('',#1756);
#509=VERTEX_POINT('',#1760);
#510=VERTEX_POINT('',#1762);
#511=VERTEX_POINT('',#1766);
#512=VERTEX_POINT('',#1768);
#513=VERTEX_POINT('',#1770);
#514=VERTEX_POINT('',#1772);
#515=VERTEX_POINT('',#1774);
#516=VERTEX_POINT('',#1776);
#517=VERTEX_POINT('',#1778);
#518=VERTEX_POINT('',#1780);
#519=VERTEX_POINT('',#1782);
#520=VERTEX_POINT('',#1784);
#521=VERTEX_POINT('',#1786);
#522=VERTEX_POINT('',#1788);
#523=VERTEX_POINT('',#1791);
#524=VERTEX_POINT('',#1794);
#525=VERTEX_POINT('',#1798);
#526=VERTEX_POINT('',#1800);
#527=VERTEX_POINT('',#1804);
#528=VERTEX_POINT('',#1806);
#529=VERTEX_POINT('',#1810);
#530=VERTEX_POINT('',#1813);
#531=VERTEX_POINT('',#1815);
#532=VERTEX_POINT('',#1819);
#533=VERTEX_POINT('',#1823);
#534=VERTEX_POINT('',#1825);
#535=VERTEX_POINT('',#1827);
#536=VERTEX_POINT('',#1829);
#537=VERTEX_POINT('',#1831);
#538=VERTEX_POINT('',#1834);
#539=VERTEX_POINT('',#1840);
#540=VERTEX_POINT('',#1841);
#541=VERTEX_POINT('',#1843);
#542=VERTEX_POINT('',#1845);
#543=VERTEX_POINT('',#1849);
#544=VERTEX_POINT('',#1851);
#545=VERTEX_POINT('',#1855);
#546=VERTEX_POINT('',#1857);
#547=VERTEX_POINT('',#1863);
#548=VERTEX_POINT('',#1864);
#549=VERTEX_POINT('',#1866);
#550=VERTEX_POINT('',#1868);
#551=VERTEX_POINT('',#1872);
#552=VERTEX_POINT('',#1874);
#553=VERTEX_POINT('',#1876);
#554=VERTEX_POINT('',#1878);
#555=VERTEX_POINT('',#1882);
#556=VERTEX_POINT('',#1884);
#557=VERTEX_POINT('',#1888);
#558=VERTEX_POINT('',#1892);
#559=VERTEX_POINT('',#1894);
#560=VERTEX_POINT('',#1896);
#561=VERTEX_POINT('',#1898);
#562=VERTEX_POINT('',#1900);
#563=VERTEX_POINT('',#1902);
#564=VERTEX_POINT('',#1905);
#565=VERTEX_POINT('',#1909);
#566=VERTEX_POINT('',#1911);
#567=VERTEX_POINT('',#1913);
#568=VERTEX_POINT('',#1917);
#569=VERTEX_POINT('',#1919);
#570=VERTEX_POINT('',#1921);
#571=VERTEX_POINT('',#1925);
#572=VERTEX_POINT('',#1927);
#573=VERTEX_POINT('',#1929);
#574=VERTEX_POINT('',#1931);
#575=VERTEX_POINT('',#1933);
#576=VERTEX_POINT('',#1935);
#577=VERTEX_POINT('',#1937);
#578=VERTEX_POINT('',#1939);
#579=VERTEX_POINT('',#1941);
#580=VERTEX_POINT('',#1945);
#581=VERTEX_POINT('',#1946);
#582=VERTEX_POINT('',#1948);
#583=VERTEX_POINT('',#1950);
#584=VERTEX_POINT('',#1962);
#585=VERTEX_POINT('',#1964);
#586=VERTEX_POINT('',#1968);
#587=VERTEX_POINT('',#1972);
#588=VERTEX_POINT('',#1978);
#589=VERTEX_POINT('',#1980);
#590=VERTEX_POINT('',#1984);
#591=VERTEX_POINT('',#1991);
#592=VERTEX_POINT('',#1995);
#593=VERTEX_POINT('',#1997);
#594=VERTEX_POINT('',#2006);
#595=VERTEX_POINT('',#2007);
#596=VERTEX_POINT('',#2009);
#597=VERTEX_POINT('',#2011);
#598=VERTEX_POINT('',#2018);
#599=VERTEX_POINT('',#2020);
#600=VERTEX_POINT('',#2024);
#601=VERTEX_POINT('',#2026);
#602=VERTEX_POINT('',#2030);
#603=VERTEX_POINT('',#2054);
#604=VERTEX_POINT('',#2062);
#605=EDGE_CURVE('',#487,#488,#183,.T.);
#606=EDGE_CURVE('',#488,#489,#184,.T.);
#607=EDGE_CURVE('',#489,#490,#185,.T.);
#608=EDGE_CURVE('',#491,#490,#186,.T.);
#609=EDGE_CURVE('',#492,#491,#187,.T.);
#610=EDGE_CURVE('',#487,#492,#188,.T.);
#611=EDGE_CURVE('',#493,#488,#189,.T.);
#612=EDGE_CURVE('',#494,#493,#190,.T.);
#613=EDGE_CURVE('',#495,#494,#191,.T.);
#614=EDGE_CURVE('',#496,#495,#192,.T.);
#615=EDGE_CURVE('',#489,#496,#193,.T.);
#616=EDGE_CURVE('',#497,#498,#194,.T.);
#617=EDGE_CURVE('',#499,#498,#195,.T.);
#618=EDGE_CURVE('',#500,#499,#196,.T.);
#619=EDGE_CURVE('',#497,#500,#197,.T.);
#620=EDGE_CURVE('',#501,#502,#198,.T.);
#621=EDGE_CURVE('',#499,#502,#199,.T.);
#622=EDGE_CURVE('',#498,#501,#200,.T.);
#623=EDGE_CURVE('',#501,#503,#201,.T.);
#624=EDGE_CURVE('',#504,#497,#202,.T.);
#625=EDGE_CURVE('',#505,#504,#203,.T.);
#626=EDGE_CURVE('',#506,#505,#204,.T.);
#627=EDGE_CURVE('',#507,#506,#205,.T.);
#628=EDGE_CURVE('',#503,#507,#206,.T.);
#629=EDGE_CURVE('',#508,#496,#207,.T.);
#630=EDGE_CURVE('',#490,#508,#208,.T.);
#631=EDGE_CURVE('',#509,#491,#209,.T.);
#632=EDGE_CURVE('',#509,#510,#210,.T.);
#633=EDGE_CURVE('',#510,#492,#211,.T.);
#634=EDGE_CURVE('',#508,#511,#212,.T.);
#635=EDGE_CURVE('',#511,#512,#24,.T.);
#636=EDGE_CURVE('',#512,#513,#213,.T.);
#637=EDGE_CURVE('',#513,#514,#214,.T.);
#638=EDGE_CURVE('',#514,#515,#215,.T.);
#639=EDGE_CURVE('',#515,#516,#25,.T.);
#640=EDGE_CURVE('',#516,#517,#216,.T.);
#641=EDGE_CURVE('',#517,#518,#217,.T.);
#642=EDGE_CURVE('',#518,#519,#218,.T.);
#643=EDGE_CURVE('',#519,#520,#26,.T.);
#644=EDGE_CURVE('',#520,#521,#219,.T.);
#645=EDGE_CURVE('',#521,#522,#220,.T.);
#646=EDGE_CURVE('',#522,#509,#221,.T.);
#647=EDGE_CURVE('',#523,#523,#27,.T.);
#648=EDGE_CURVE('',#524,#524,#28,.T.);
#649=EDGE_CURVE('',#524,#523,#222,.T.);
#650=EDGE_CURVE('',#525,#525,#29,.T.);
#651=EDGE_CURVE('',#525,#526,#223,.T.);
#652=EDGE_CURVE('',#526,#526,#30,.T.);
#653=EDGE_CURVE('',#527,#527,#31,.T.);
#654=EDGE_CURVE('',#527,#528,#224,.T.);
#655=EDGE_CURVE('',#528,#528,#32,.T.);
#656=EDGE_CURVE('',#500,#529,#225,.T.);
#657=EDGE_CURVE('',#529,#521,#226,.T.);
#658=EDGE_CURVE('',#530,#520,#227,.T.);
#659=EDGE_CURVE('',#530,#531,#228,.T.);
#660=EDGE_CURVE('',#531,#504,#229,.T.);
#661=EDGE_CURVE('',#487,#532,#230,.T.);
#662=EDGE_CURVE('',#532,#493,#231,.T.);
#663=EDGE_CURVE('',#533,#502,#232,.T.);
#664=EDGE_CURVE('',#534,#533,#233,.T.);
#665=EDGE_CURVE('',#535,#534,#234,.T.);
#666=EDGE_CURVE('',#536,#535,#235,.T.);
#667=EDGE_CURVE('',#537,#536,#236,.T.);
#668=EDGE_CURVE('',#532,#537,#237,.T.);
#669=EDGE_CURVE('',#538,#510,#238,.T.);
#670=EDGE_CURVE('',#529,#538,#239,.T.);
#671=EDGE_CURVE('',#533,#503,#240,.T.);
#672=EDGE_CURVE('',#539,#540,#241,.T.);
#673=EDGE_CURVE('',#539,#541,#242,.T.);
#674=EDGE_CURVE('',#541,#542,#243,.T.);
#675=EDGE_CURVE('',#540,#542,#244,.T.);
#676=EDGE_CURVE('',#543,#539,#245,.T.);
#677=EDGE_CURVE('',#543,#544,#246,.T.);
#678=EDGE_CURVE('',#544,#541,#247,.T.);
#679=EDGE_CURVE('',#545,#543,#248,.T.);
#680=EDGE_CURVE('',#546,#545,#249,.T.);
#681=EDGE_CURVE('',#546,#544,#250,.T.);
#682=EDGE_CURVE('',#542,#546,#33,.T.);
#683=EDGE_CURVE('',#547,#548,#251,.T.);
#684=EDGE_CURVE('',#549,#547,#34,.T.);
#685=EDGE_CURVE('',#550,#549,#252,.T.);
#686=EDGE_CURVE('',#548,#550,#253,.T.);
#687=EDGE_CURVE('',#548,#551,#254,.T.);
#688=EDGE_CURVE('',#552,#550,#255,.T.);
#689=EDGE_CURVE('',#553,#552,#256,.T.);
#690=EDGE_CURVE('',#553,#554,#257,.T.);
#691=EDGE_CURVE('',#551,#554,#258,.T.);
#692=EDGE_CURVE('',#554,#555,#259,.T.);
#693=EDGE_CURVE('',#556,#553,#260,.T.);
#694=EDGE_CURVE('',#555,#556,#261,.T.);
#695=EDGE_CURVE('',#552,#557,#262,.T.);
#696=EDGE_CURVE('',#557,#549,#263,.T.);
#697=EDGE_CURVE('',#540,#558,#35,.T.);
#698=EDGE_CURVE('',#558,#559,#264,.T.);
#699=EDGE_CURVE('',#559,#560,#265,.T.);
#700=EDGE_CURVE('',#560,#561,#266,.T.);
#701=EDGE_CURVE('',#561,#562,#267,.T.);
#702=EDGE_CURVE('',#562,#563,#268,.T.);
#703=EDGE_CURVE('',#563,#556,#36,.T.);
#704=EDGE_CURVE('',#557,#564,#37,.T.);
#705=EDGE_CURVE('',#564,#545,#38,.T.);
#706=EDGE_CURVE('',#551,#565,#269,.T.);
#707=EDGE_CURVE('',#566,#565,#270,.T.);
#708=EDGE_CURVE('',#566,#567,#271,.T.);
#709=EDGE_CURVE('',#547,#567,#272,.T.);
#710=EDGE_CURVE('',#568,#563,#273,.T.);
#711=EDGE_CURVE('',#568,#569,#39,.T.);
#712=EDGE_CURVE('',#569,#570,#274,.T.);
#713=EDGE_CURVE('',#555,#570,#40,.T.);
#714=EDGE_CURVE('',#570,#571,#275,.T.);
#715=EDGE_CURVE('',#571,#572,#276,.T.);
#716=EDGE_CURVE('',#572,#573,#277,.T.);
#717=EDGE_CURVE('',#573,#574,#41,.T.);
#718=EDGE_CURVE('',#574,#575,#278,.T.);
#719=EDGE_CURVE('',#575,#576,#279,.T.);
#720=EDGE_CURVE('',#577,#576,#280,.T.);
#721=EDGE_CURVE('',#578,#577,#281,.T.);
#722=EDGE_CURVE('',#578,#579,#282,.T.);
#723=EDGE_CURVE('',#565,#579,#283,.T.);
#724=EDGE_CURVE('',#580,#581,#284,.T.);
#725=EDGE_CURVE('',#582,#580,#285,.T.);
#726=EDGE_CURVE('',#583,#582,#286,.T.);
#727=EDGE_CURVE('',#581,#583,#42,.T.);
#728=EDGE_CURVE('',#583,#516,#287,.T.);
#729=EDGE_CURVE('',#517,#582,#288,.T.);
#730=EDGE_CURVE('',#519,#574,#289,.T.);
#731=EDGE_CURVE('',#518,#575,#290,.T.);
#732=EDGE_CURVE('',#576,#580,#291,.T.);
#733=EDGE_CURVE('',#514,#584,#292,.T.);
#734=EDGE_CURVE('',#584,#585,#293,.T.);
#735=EDGE_CURVE('',#515,#585,#294,.T.);
#736=EDGE_CURVE('',#513,#586,#295,.T.);
#737=EDGE_CURVE('',#586,#584,#296,.T.);
#738=EDGE_CURVE('',#587,#512,#297,.T.);
#739=EDGE_CURVE('',#587,#586,#298,.T.);
#740=EDGE_CURVE('',#585,#587,#43,.T.);
#741=EDGE_CURVE('',#588,#581,#299,.T.);
#742=EDGE_CURVE('',#588,#589,#300,.T.);
#743=EDGE_CURVE('',#577,#589,#301,.T.);
#744=EDGE_CURVE('',#573,#590,#302,.T.);
#745=EDGE_CURVE('',#590,#530,#44,.T.);
#746=EDGE_CURVE('',#591,#590,#303,.T.);
#747=EDGE_CURVE('',#531,#591,#304,.T.);
#748=EDGE_CURVE('',#592,#568,#305,.T.);
#749=EDGE_CURVE('',#593,#592,#306,.T.);
#750=EDGE_CURVE('',#569,#593,#307,.T.);
#751=EDGE_CURVE('',#506,#593,#308,.T.);
#752=EDGE_CURVE('',#506,#571,#309,.T.);
#753=EDGE_CURVE('',#592,#507,#310,.T.);
#754=EDGE_CURVE('',#594,#595,#45,.T.);
#755=EDGE_CURVE('',#596,#594,#311,.T.);
#756=EDGE_CURVE('',#597,#596,#312,.T.);
#757=EDGE_CURVE('',#595,#597,#313,.T.);
#758=EDGE_CURVE('',#596,#495,#314,.T.);
#759=EDGE_CURVE('',#597,#494,#315,.T.);
#760=EDGE_CURVE('',#598,#578,#316,.T.);
#761=EDGE_CURVE('',#599,#598,#317,.T.);
#762=EDGE_CURVE('',#579,#599,#318,.T.);
#763=EDGE_CURVE('',#589,#600,#319,.T.);
#764=EDGE_CURVE('',#601,#600,#320,.T.);
#765=EDGE_CURVE('',#598,#601,#321,.T.);
#766=EDGE_CURVE('',#602,#601,#46,.T.);
#767=EDGE_CURVE('',#602,#599,#322,.T.);
#768=EDGE_CURVE('',#505,#572,#323,.T.);
#769=EDGE_CURVE('',#594,#511,#324,.T.);
#770=EDGE_CURVE('',#562,#534,#325,.T.);
#771=EDGE_CURVE('',#522,#538,#326,.T.);
#772=EDGE_CURVE('',#591,#505,#327,.T.);
#773=EDGE_CURVE('',#561,#535,#328,.T.);
#774=EDGE_CURVE('',#560,#536,#329,.T.);
#775=EDGE_CURVE('',#537,#559,#330,.T.);
#776=EDGE_CURVE('',#595,#558,#331,.T.);
#777=EDGE_CURVE('',#602,#603,#332,.T.);
#778=EDGE_CURVE('',#603,#566,#333,.T.);
#779=EDGE_CURVE('',#600,#588,#47,.T.);
#780=EDGE_CURVE('',#567,#603,#48,.T.);
#781=EDGE_CURVE('',#564,#604,#334,.T.);
#782=EDGE_CURVE('',#604,#604,#49,.T.);
#783=ORIENTED_EDGE('',*,*,#605,.T.);
#784=ORIENTED_EDGE('',*,*,#606,.T.);
#785=ORIENTED_EDGE('',*,*,#607,.T.);
#786=ORIENTED_EDGE('',*,*,#608,.F.);
#787=ORIENTED_EDGE('',*,*,#609,.F.);
#788=ORIENTED_EDGE('',*,*,#610,.F.);
#789=ORIENTED_EDGE('',*,*,#611,.F.);
#790=ORIENTED_EDGE('',*,*,#612,.F.);
#791=ORIENTED_EDGE('',*,*,#613,.F.);
#792=ORIENTED_EDGE('',*,*,#614,.F.);
#793=ORIENTED_EDGE('',*,*,#615,.F.);
#794=ORIENTED_EDGE('',*,*,#606,.F.);
#795=ORIENTED_EDGE('',*,*,#616,.T.);
#796=ORIENTED_EDGE('',*,*,#617,.F.);
#797=ORIENTED_EDGE('',*,*,#618,.F.);
#798=ORIENTED_EDGE('',*,*,#619,.F.);
#799=ORIENTED_EDGE('',*,*,#620,.T.);
#800=ORIENTED_EDGE('',*,*,#621,.F.);
#801=ORIENTED_EDGE('',*,*,#617,.T.);
#802=ORIENTED_EDGE('',*,*,#622,.T.);
#803=ORIENTED_EDGE('',*,*,#623,.F.);
#804=ORIENTED_EDGE('',*,*,#622,.F.);
#805=ORIENTED_EDGE('',*,*,#616,.F.);
#806=ORIENTED_EDGE('',*,*,#624,.F.);
#807=ORIENTED_EDGE('',*,*,#625,.F.);
#808=ORIENTED_EDGE('',*,*,#626,.F.);
#809=ORIENTED_EDGE('',*,*,#627,.F.);
#810=ORIENTED_EDGE('',*,*,#628,.F.);
#811=ORIENTED_EDGE('',*,*,#615,.T.);
#812=ORIENTED_EDGE('',*,*,#629,.F.);
#813=ORIENTED_EDGE('',*,*,#630,.F.);
#814=ORIENTED_EDGE('',*,*,#607,.F.);
#815=ORIENTED_EDGE('',*,*,#609,.T.);
#816=ORIENTED_EDGE('',*,*,#631,.F.);
#817=ORIENTED_EDGE('',*,*,#632,.T.);
#818=ORIENTED_EDGE('',*,*,#633,.T.);
#819=ORIENTED_EDGE('',*,*,#608,.T.);
#820=ORIENTED_EDGE('',*,*,#630,.T.);
#821=ORIENTED_EDGE('',*,*,#634,.T.);
#822=ORIENTED_EDGE('',*,*,#635,.T.);
#823=ORIENTED_EDGE('',*,*,#636,.T.);
#824=ORIENTED_EDGE('',*,*,#637,.T.);
#825=ORIENTED_EDGE('',*,*,#638,.T.);
#826=ORIENTED_EDGE('',*,*,#639,.T.);
#827=ORIENTED_EDGE('',*,*,#640,.T.);
#828=ORIENTED_EDGE('',*,*,#641,.T.);
#829=ORIENTED_EDGE('',*,*,#642,.T.);
#830=ORIENTED_EDGE('',*,*,#643,.T.);
#831=ORIENTED_EDGE('',*,*,#644,.T.);
#832=ORIENTED_EDGE('',*,*,#645,.T.);
#833=ORIENTED_EDGE('',*,*,#646,.T.);
#834=ORIENTED_EDGE('',*,*,#631,.T.);
#835=ORIENTED_EDGE('',*,*,#647,.T.);
#836=ORIENTED_EDGE('',*,*,#648,.F.);
#837=ORIENTED_EDGE('',*,*,#649,.T.);
#838=ORIENTED_EDGE('',*,*,#647,.F.);
#839=ORIENTED_EDGE('',*,*,#649,.F.);
#840=ORIENTED_EDGE('',*,*,#650,.F.);
#841=ORIENTED_EDGE('',*,*,#651,.T.);
#842=ORIENTED_EDGE('',*,*,#652,.F.);
#843=ORIENTED_EDGE('',*,*,#651,.F.);
#844=ORIENTED_EDGE('',*,*,#653,.F.);
#845=ORIENTED_EDGE('',*,*,#654,.T.);
#846=ORIENTED_EDGE('',*,*,#655,.F.);
#847=ORIENTED_EDGE('',*,*,#654,.F.);
#848=ORIENTED_EDGE('',*,*,#619,.T.);
#849=ORIENTED_EDGE('',*,*,#656,.T.);
#850=ORIENTED_EDGE('',*,*,#657,.T.);
#851=ORIENTED_EDGE('',*,*,#644,.F.);
#852=ORIENTED_EDGE('',*,*,#658,.F.);
#853=ORIENTED_EDGE('',*,*,#659,.T.);
#854=ORIENTED_EDGE('',*,*,#660,.T.);
#855=ORIENTED_EDGE('',*,*,#624,.T.);
#856=ORIENTED_EDGE('',*,*,#661,.T.);
#857=ORIENTED_EDGE('',*,*,#662,.T.);
#858=ORIENTED_EDGE('',*,*,#611,.T.);
#859=ORIENTED_EDGE('',*,*,#605,.F.);
#860=ORIENTED_EDGE('',*,*,#621,.T.);
#861=ORIENTED_EDGE('',*,*,#663,.F.);
#862=ORIENTED_EDGE('',*,*,#664,.F.);
#863=ORIENTED_EDGE('',*,*,#665,.F.);
#864=ORIENTED_EDGE('',*,*,#666,.F.);
#865=ORIENTED_EDGE('',*,*,#667,.F.);
#866=ORIENTED_EDGE('',*,*,#668,.F.);
#867=ORIENTED_EDGE('',*,*,#661,.F.);
#868=ORIENTED_EDGE('',*,*,#610,.T.);
#869=ORIENTED_EDGE('',*,*,#633,.F.);
#870=ORIENTED_EDGE('',*,*,#669,.F.);
#871=ORIENTED_EDGE('',*,*,#670,.F.);
#872=ORIENTED_EDGE('',*,*,#656,.F.);
#873=ORIENTED_EDGE('',*,*,#618,.T.);
#874=ORIENTED_EDGE('',*,*,#623,.T.);
#875=ORIENTED_EDGE('',*,*,#671,.F.);
#876=ORIENTED_EDGE('',*,*,#663,.T.);
#877=ORIENTED_EDGE('',*,*,#620,.F.);
#878=ORIENTED_EDGE('',*,*,#672,.F.);
#879=ORIENTED_EDGE('',*,*,#673,.T.);
#880=ORIENTED_EDGE('',*,*,#674,.T.);
#881=ORIENTED_EDGE('',*,*,#675,.F.);
#882=ORIENTED_EDGE('',*,*,#676,.F.);
#883=ORIENTED_EDGE('',*,*,#677,.T.);
#884=ORIENTED_EDGE('',*,*,#678,.T.);
#885=ORIENTED_EDGE('',*,*,#673,.F.);
#886=ORIENTED_EDGE('',*,*,#679,.F.);
#887=ORIENTED_EDGE('',*,*,#680,.F.);
#888=ORIENTED_EDGE('',*,*,#681,.T.);
#889=ORIENTED_EDGE('',*,*,#677,.F.);
#890=ORIENTED_EDGE('',*,*,#681,.F.);
#891=ORIENTED_EDGE('',*,*,#682,.F.);
#892=ORIENTED_EDGE('',*,*,#674,.F.);
#893=ORIENTED_EDGE('',*,*,#678,.F.);
#894=ORIENTED_EDGE('',*,*,#683,.F.);
#895=ORIENTED_EDGE('',*,*,#684,.F.);
#896=ORIENTED_EDGE('',*,*,#685,.F.);
#897=ORIENTED_EDGE('',*,*,#686,.F.);
#898=ORIENTED_EDGE('',*,*,#687,.F.);
#899=ORIENTED_EDGE('',*,*,#686,.T.);
#900=ORIENTED_EDGE('',*,*,#688,.F.);
#901=ORIENTED_EDGE('',*,*,#689,.F.);
#902=ORIENTED_EDGE('',*,*,#690,.T.);
#903=ORIENTED_EDGE('',*,*,#691,.F.);
#904=ORIENTED_EDGE('',*,*,#692,.F.);
#905=ORIENTED_EDGE('',*,*,#690,.F.);
#906=ORIENTED_EDGE('',*,*,#693,.F.);
#907=ORIENTED_EDGE('',*,*,#694,.F.);
#908=ORIENTED_EDGE('',*,*,#695,.F.);
#909=ORIENTED_EDGE('',*,*,#688,.T.);
#910=ORIENTED_EDGE('',*,*,#685,.T.);
#911=ORIENTED_EDGE('',*,*,#696,.F.);
#912=ORIENTED_EDGE('',*,*,#679,.T.);
#913=ORIENTED_EDGE('',*,*,#676,.T.);
#914=ORIENTED_EDGE('',*,*,#672,.T.);
#915=ORIENTED_EDGE('',*,*,#697,.T.);
#916=ORIENTED_EDGE('',*,*,#698,.T.);
#917=ORIENTED_EDGE('',*,*,#699,.T.);
#918=ORIENTED_EDGE('',*,*,#700,.T.);
#919=ORIENTED_EDGE('',*,*,#701,.T.);
#920=ORIENTED_EDGE('',*,*,#702,.T.);
#921=ORIENTED_EDGE('',*,*,#703,.T.);
#922=ORIENTED_EDGE('',*,*,#693,.T.);
#923=ORIENTED_EDGE('',*,*,#689,.T.);
#924=ORIENTED_EDGE('',*,*,#695,.T.);
#925=ORIENTED_EDGE('',*,*,#704,.T.);
#926=ORIENTED_EDGE('',*,*,#705,.T.);
#927=ORIENTED_EDGE('',*,*,#655,.T.);
#928=ORIENTED_EDGE('',*,*,#683,.T.);
#929=ORIENTED_EDGE('',*,*,#687,.T.);
#930=ORIENTED_EDGE('',*,*,#706,.T.);
#931=ORIENTED_EDGE('',*,*,#707,.F.);
#932=ORIENTED_EDGE('',*,*,#708,.T.);
#933=ORIENTED_EDGE('',*,*,#709,.F.);
#934=ORIENTED_EDGE('',*,*,#694,.T.);
#935=ORIENTED_EDGE('',*,*,#703,.F.);
#936=ORIENTED_EDGE('',*,*,#710,.F.);
#937=ORIENTED_EDGE('',*,*,#711,.T.);
#938=ORIENTED_EDGE('',*,*,#712,.T.);
#939=ORIENTED_EDGE('',*,*,#713,.F.);
#940=ORIENTED_EDGE('',*,*,#691,.T.);
#941=ORIENTED_EDGE('',*,*,#692,.T.);
#942=ORIENTED_EDGE('',*,*,#713,.T.);
#943=ORIENTED_EDGE('',*,*,#714,.T.);
#944=ORIENTED_EDGE('',*,*,#715,.T.);
#945=ORIENTED_EDGE('',*,*,#716,.T.);
#946=ORIENTED_EDGE('',*,*,#717,.T.);
#947=ORIENTED_EDGE('',*,*,#718,.T.);
#948=ORIENTED_EDGE('',*,*,#719,.T.);
#949=ORIENTED_EDGE('',*,*,#720,.F.);
#950=ORIENTED_EDGE('',*,*,#721,.F.);
#951=ORIENTED_EDGE('',*,*,#722,.T.);
#952=ORIENTED_EDGE('',*,*,#723,.F.);
#953=ORIENTED_EDGE('',*,*,#706,.F.);
#954=ORIENTED_EDGE('',*,*,#724,.F.);
#955=ORIENTED_EDGE('',*,*,#725,.F.);
#956=ORIENTED_EDGE('',*,*,#726,.F.);
#957=ORIENTED_EDGE('',*,*,#727,.F.);
#958=ORIENTED_EDGE('',*,*,#640,.F.);
#959=ORIENTED_EDGE('',*,*,#728,.F.);
#960=ORIENTED_EDGE('',*,*,#726,.T.);
#961=ORIENTED_EDGE('',*,*,#729,.F.);
#962=ORIENTED_EDGE('',*,*,#718,.F.);
#963=ORIENTED_EDGE('',*,*,#730,.F.);
#964=ORIENTED_EDGE('',*,*,#642,.F.);
#965=ORIENTED_EDGE('',*,*,#731,.T.);
#966=ORIENTED_EDGE('',*,*,#732,.F.);
#967=ORIENTED_EDGE('',*,*,#719,.F.);
#968=ORIENTED_EDGE('',*,*,#731,.F.);
#969=ORIENTED_EDGE('',*,*,#641,.F.);
#970=ORIENTED_EDGE('',*,*,#729,.T.);
#971=ORIENTED_EDGE('',*,*,#725,.T.);
#972=ORIENTED_EDGE('',*,*,#638,.F.);
#973=ORIENTED_EDGE('',*,*,#733,.T.);
#974=ORIENTED_EDGE('',*,*,#734,.T.);
#975=ORIENTED_EDGE('',*,*,#735,.F.);
#976=ORIENTED_EDGE('',*,*,#637,.F.);
#977=ORIENTED_EDGE('',*,*,#736,.T.);
#978=ORIENTED_EDGE('',*,*,#737,.T.);
#979=ORIENTED_EDGE('',*,*,#733,.F.);
#980=ORIENTED_EDGE('',*,*,#636,.F.);
#981=ORIENTED_EDGE('',*,*,#738,.F.);
#982=ORIENTED_EDGE('',*,*,#739,.T.);
#983=ORIENTED_EDGE('',*,*,#736,.F.);
#984=ORIENTED_EDGE('',*,*,#739,.F.);
#985=ORIENTED_EDGE('',*,*,#740,.F.);
#986=ORIENTED_EDGE('',*,*,#734,.F.);
#987=ORIENTED_EDGE('',*,*,#737,.F.);
#988=ORIENTED_EDGE('',*,*,#732,.T.);
#989=ORIENTED_EDGE('',*,*,#724,.T.);
#990=ORIENTED_EDGE('',*,*,#741,.F.);
#991=ORIENTED_EDGE('',*,*,#742,.T.);
#992=ORIENTED_EDGE('',*,*,#743,.F.);
#993=ORIENTED_EDGE('',*,*,#720,.T.);
#994=ORIENTED_EDGE('',*,*,#730,.T.);
#995=ORIENTED_EDGE('',*,*,#717,.F.);
#996=ORIENTED_EDGE('',*,*,#744,.T.);
#997=ORIENTED_EDGE('',*,*,#745,.T.);
#998=ORIENTED_EDGE('',*,*,#658,.T.);
#999=ORIENTED_EDGE('',*,*,#643,.F.);
#1000=ORIENTED_EDGE('',*,*,#650,.T.);
#1001=ORIENTED_EDGE('',*,*,#653,.T.);
#1002=ORIENTED_EDGE('',*,*,#648,.T.);
#1003=ORIENTED_EDGE('',*,*,#745,.F.);
#1004=ORIENTED_EDGE('',*,*,#746,.F.);
#1005=ORIENTED_EDGE('',*,*,#747,.F.);
#1006=ORIENTED_EDGE('',*,*,#659,.F.);
#1007=ORIENTED_EDGE('',*,*,#711,.F.);
#1008=ORIENTED_EDGE('',*,*,#748,.F.);
#1009=ORIENTED_EDGE('',*,*,#749,.F.);
#1010=ORIENTED_EDGE('',*,*,#750,.F.);
#1011=ORIENTED_EDGE('',*,*,#750,.T.);
#1012=ORIENTED_EDGE('',*,*,#751,.F.);
#1013=ORIENTED_EDGE('',*,*,#752,.T.);
#1014=ORIENTED_EDGE('',*,*,#714,.F.);
#1015=ORIENTED_EDGE('',*,*,#712,.F.);
#1016=ORIENTED_EDGE('',*,*,#749,.T.);
#1017=ORIENTED_EDGE('',*,*,#753,.T.);
#1018=ORIENTED_EDGE('',*,*,#627,.T.);
#1019=ORIENTED_EDGE('',*,*,#751,.T.);
#1020=ORIENTED_EDGE('',*,*,#754,.F.);
#1021=ORIENTED_EDGE('',*,*,#755,.F.);
#1022=ORIENTED_EDGE('',*,*,#756,.F.);
#1023=ORIENTED_EDGE('',*,*,#757,.F.);
#1024=ORIENTED_EDGE('',*,*,#652,.T.);
#1025=ORIENTED_EDGE('',*,*,#756,.T.);
#1026=ORIENTED_EDGE('',*,*,#758,.T.);
#1027=ORIENTED_EDGE('',*,*,#613,.T.);
#1028=ORIENTED_EDGE('',*,*,#759,.F.);
#1029=ORIENTED_EDGE('',*,*,#722,.F.);
#1030=ORIENTED_EDGE('',*,*,#760,.F.);
#1031=ORIENTED_EDGE('',*,*,#761,.F.);
#1032=ORIENTED_EDGE('',*,*,#762,.F.);
#1033=ORIENTED_EDGE('',*,*,#760,.T.);
#1034=ORIENTED_EDGE('',*,*,#721,.T.);
#1035=ORIENTED_EDGE('',*,*,#743,.T.);
#1036=ORIENTED_EDGE('',*,*,#763,.T.);
#1037=ORIENTED_EDGE('',*,*,#764,.F.);
#1038=ORIENTED_EDGE('',*,*,#765,.F.);
#1039=ORIENTED_EDGE('',*,*,#761,.T.);
#1040=ORIENTED_EDGE('',*,*,#765,.T.);
#1041=ORIENTED_EDGE('',*,*,#766,.F.);
#1042=ORIENTED_EDGE('',*,*,#767,.T.);
#1043=ORIENTED_EDGE('',*,*,#626,.T.);
#1044=ORIENTED_EDGE('',*,*,#768,.T.);
#1045=ORIENTED_EDGE('',*,*,#715,.F.);
#1046=ORIENTED_EDGE('',*,*,#752,.F.);
#1047=ORIENTED_EDGE('',*,*,#629,.T.);
#1048=ORIENTED_EDGE('',*,*,#614,.T.);
#1049=ORIENTED_EDGE('',*,*,#758,.F.);
#1050=ORIENTED_EDGE('',*,*,#755,.T.);
#1051=ORIENTED_EDGE('',*,*,#769,.T.);
#1052=ORIENTED_EDGE('',*,*,#634,.F.);
#1053=ORIENTED_EDGE('',*,*,#770,.T.);
#1054=ORIENTED_EDGE('',*,*,#664,.T.);
#1055=ORIENTED_EDGE('',*,*,#671,.T.);
#1056=ORIENTED_EDGE('',*,*,#628,.T.);
#1057=ORIENTED_EDGE('',*,*,#753,.F.);
#1058=ORIENTED_EDGE('',*,*,#748,.T.);
#1059=ORIENTED_EDGE('',*,*,#710,.T.);
#1060=ORIENTED_EDGE('',*,*,#702,.F.);
#1061=ORIENTED_EDGE('',*,*,#771,.T.);
#1062=ORIENTED_EDGE('',*,*,#669,.T.);
#1063=ORIENTED_EDGE('',*,*,#632,.F.);
#1064=ORIENTED_EDGE('',*,*,#646,.F.);
#1065=ORIENTED_EDGE('',*,*,#657,.F.);
#1066=ORIENTED_EDGE('',*,*,#670,.T.);
#1067=ORIENTED_EDGE('',*,*,#771,.F.);
#1068=ORIENTED_EDGE('',*,*,#645,.F.);
#1069=ORIENTED_EDGE('',*,*,#747,.T.);
#1070=ORIENTED_EDGE('',*,*,#772,.T.);
#1071=ORIENTED_EDGE('',*,*,#625,.T.);
#1072=ORIENTED_EDGE('',*,*,#660,.F.);
#1073=ORIENTED_EDGE('',*,*,#746,.T.);
#1074=ORIENTED_EDGE('',*,*,#744,.F.);
#1075=ORIENTED_EDGE('',*,*,#716,.F.);
#1076=ORIENTED_EDGE('',*,*,#768,.F.);
#1077=ORIENTED_EDGE('',*,*,#772,.F.);
#1078=ORIENTED_EDGE('',*,*,#773,.T.);
#1079=ORIENTED_EDGE('',*,*,#665,.T.);
#1080=ORIENTED_EDGE('',*,*,#770,.F.);
#1081=ORIENTED_EDGE('',*,*,#701,.F.);
#1082=ORIENTED_EDGE('',*,*,#774,.T.);
#1083=ORIENTED_EDGE('',*,*,#666,.T.);
#1084=ORIENTED_EDGE('',*,*,#773,.F.);
#1085=ORIENTED_EDGE('',*,*,#700,.F.);
#1086=ORIENTED_EDGE('',*,*,#775,.F.);
#1087=ORIENTED_EDGE('',*,*,#667,.T.);
#1088=ORIENTED_EDGE('',*,*,#774,.F.);
#1089=ORIENTED_EDGE('',*,*,#699,.F.);
#1090=ORIENTED_EDGE('',*,*,#662,.F.);
#1091=ORIENTED_EDGE('',*,*,#668,.T.);
#1092=ORIENTED_EDGE('',*,*,#775,.T.);
#1093=ORIENTED_EDGE('',*,*,#698,.F.);
#1094=ORIENTED_EDGE('',*,*,#776,.F.);
#1095=ORIENTED_EDGE('',*,*,#757,.T.);
#1096=ORIENTED_EDGE('',*,*,#759,.T.);
#1097=ORIENTED_EDGE('',*,*,#612,.T.);
#1098=ORIENTED_EDGE('',*,*,#762,.T.);
#1099=ORIENTED_EDGE('',*,*,#767,.F.);
#1100=ORIENTED_EDGE('',*,*,#777,.T.);
#1101=ORIENTED_EDGE('',*,*,#778,.T.);
#1102=ORIENTED_EDGE('',*,*,#707,.T.);
#1103=ORIENTED_EDGE('',*,*,#723,.T.);
#1104=ORIENTED_EDGE('',*,*,#742,.F.);
#1105=ORIENTED_EDGE('',*,*,#779,.F.);
#1106=ORIENTED_EDGE('',*,*,#763,.F.);
#1107=ORIENTED_EDGE('',*,*,#780,.F.);
#1108=ORIENTED_EDGE('',*,*,#708,.F.);
#1109=ORIENTED_EDGE('',*,*,#778,.F.);
#1110=ORIENTED_EDGE('',*,*,#680,.T.);
#1111=ORIENTED_EDGE('',*,*,#705,.F.);
#1112=ORIENTED_EDGE('',*,*,#781,.T.);
#1113=ORIENTED_EDGE('',*,*,#782,.T.);
#1114=ORIENTED_EDGE('',*,*,#781,.F.);
#1115=ORIENTED_EDGE('',*,*,#704,.F.);
#1116=ORIENTED_EDGE('',*,*,#696,.T.);
#1117=ORIENTED_EDGE('',*,*,#684,.T.);
#1118=ORIENTED_EDGE('',*,*,#709,.T.);
#1119=ORIENTED_EDGE('',*,*,#780,.T.);
#1120=ORIENTED_EDGE('',*,*,#777,.F.);
#1121=ORIENTED_EDGE('',*,*,#766,.T.);
#1122=ORIENTED_EDGE('',*,*,#764,.T.);
#1123=ORIENTED_EDGE('',*,*,#779,.T.);
#1124=ORIENTED_EDGE('',*,*,#741,.T.);
#1125=ORIENTED_EDGE('',*,*,#727,.T.);
#1126=ORIENTED_EDGE('',*,*,#728,.T.);
#1127=ORIENTED_EDGE('',*,*,#639,.F.);
#1128=ORIENTED_EDGE('',*,*,#735,.T.);
#1129=ORIENTED_EDGE('',*,*,#740,.T.);
#1130=ORIENTED_EDGE('',*,*,#738,.T.);
#1131=ORIENTED_EDGE('',*,*,#635,.F.);
#1132=ORIENTED_EDGE('',*,*,#769,.F.);
#1133=ORIENTED_EDGE('',*,*,#754,.T.);
#1134=ORIENTED_EDGE('',*,*,#776,.T.);
#1135=ORIENTED_EDGE('',*,*,#697,.F.);
#1136=ORIENTED_EDGE('',*,*,#675,.T.);
#1137=ORIENTED_EDGE('',*,*,#682,.T.);
#1138=ORIENTED_EDGE('',*,*,#782,.F.);
#1139=PLANE('',#1277);
#1140=PLANE('',#1278);
#1141=PLANE('',#1279);
#1142=PLANE('',#1280);
#1143=PLANE('',#1281);
#1144=PLANE('',#1282);
#1145=PLANE('',#1283);
#1146=PLANE('',#1284);
#1147=PLANE('',#1297);
#1148=PLANE('',#1298);
#1149=PLANE('',#1299);
#1150=PLANE('',#1300);
#1151=PLANE('',#1301);
#1152=PLANE('',#1302);
#1153=PLANE('',#1303);
#1154=PLANE('',#1304);
#1155=PLANE('',#1306);
#1156=PLANE('',#1308);
#1157=PLANE('',#1309);
#1158=PLANE('',#1310);
#1159=PLANE('',#1311);
#1160=PLANE('',#1316);
#1161=PLANE('',#1320);
#1162=PLANE('',#1322);
#1163=PLANE('',#1324);
#1164=PLANE('',#1325);
#1165=PLANE('',#1326);
#1166=PLANE('',#1327);
#1167=PLANE('',#1328);
#1168=PLANE('',#1329);
#1169=PLANE('',#1330);
#1170=PLANE('',#1332);
#1171=PLANE('',#1335);
#1172=PLANE('',#1336);
#1173=PLANE('',#1337);
#1174=PLANE('',#1338);
#1175=PLANE('',#1339);
#1176=PLANE('',#1340);
#1177=PLANE('',#1341);
#1178=PLANE('',#1342);
#1179=PLANE('',#1344);
#1180=PLANE('',#1345);
#1181=PLANE('',#1346);
#1182=PLANE('',#1347);
#1183=PLANE('',#1349);
#1184=PLANE('',#1350);
#1185=PLANE('',#1351);
#1186=PLANE('',#1352);
#1187=PLANE('',#1353);
#1188=PLANE('',#1354);
#1189=PLANE('',#1355);
#1190=PLANE('',#1356);
#1191=PLANE('',#1357);
#1192=PLANE('',#1358);
#1193=PLANE('',#1359);
#1194=PLANE('',#1360);
#1195=PLANE('',#1361);
#1196=PLANE('',#1363);
#1197=PLANE('',#1367);
#1198=ADVANCED_FACE('',(#50),#1139,.F.);
#1199=ADVANCED_FACE('',(#51),#1140,.F.);
#1200=ADVANCED_FACE('',(#52),#1141,.F.);
#1201=ADVANCED_FACE('',(#53),#1142,.F.);
#1202=ADVANCED_FACE('',(#54),#1143,.F.);
#1203=ADVANCED_FACE('',(#55),#1144,.F.);
#1204=ADVANCED_FACE('',(#56),#1145,.F.);
#1205=ADVANCED_FACE('',(#57,#21),#1146,.T.);
#1206=ADVANCED_FACE('',(#58),#15,.F.);
#1207=ADVANCED_FACE('',(#59),#16,.F.);
#1208=ADVANCED_FACE('',(#60),#17,.F.);
#1209=ADVANCED_FACE('',(#61),#1147,.F.);
#1210=ADVANCED_FACE('',(#62),#1148,.F.);
#1211=ADVANCED_FACE('',(#63),#1149,.F.);
#1212=ADVANCED_FACE('',(#64),#1150,.F.);
#1213=ADVANCED_FACE('',(#65),#1151,.F.);
#1214=ADVANCED_FACE('',(#66),#1152,.F.);
#1215=ADVANCED_FACE('',(#67),#1153,.F.);
#1216=ADVANCED_FACE('',(#68),#1154,.T.);
#1217=ADVANCED_FACE('',(#69),#1155,.T.);
#1218=ADVANCED_FACE('',(#70),#1156,.F.);
#1219=ADVANCED_FACE('',(#71),#1157,.F.);
#1220=ADVANCED_FACE('',(#72),#1158,.F.);
#1221=ADVANCED_FACE('',(#73,#22),#1159,.T.);
#1222=ADVANCED_FACE('',(#74),#1160,.F.);
#1223=ADVANCED_FACE('',(#75),#18,.T.);
#1224=ADVANCED_FACE('',(#76),#1161,.T.);
#1225=ADVANCED_FACE('',(#77),#1162,.T.);
#1226=ADVANCED_FACE('',(#78),#1163,.F.);
#1227=ADVANCED_FACE('',(#79),#1164,.F.);
#1228=ADVANCED_FACE('',(#80),#1165,.F.);
#1229=ADVANCED_FACE('',(#81),#1166,.F.);
#1230=ADVANCED_FACE('',(#82),#1167,.F.);
#1231=ADVANCED_FACE('',(#83),#1168,.F.);
#1232=ADVANCED_FACE('',(#84),#1169,.T.);
#1233=ADVANCED_FACE('',(#85),#1170,.F.);
#1234=ADVANCED_FACE('',(#86),#19,.T.);
#1235=ADVANCED_FACE('',(#87),#1171,.T.);
#1236=ADVANCED_FACE('',(#88),#1172,.T.);
#1237=ADVANCED_FACE('',(#89),#1173,.T.);
#1238=ADVANCED_FACE('',(#90),#1174,.F.);
#1239=ADVANCED_FACE('',(#91),#1175,.F.);
#1240=ADVANCED_FACE('',(#92),#1176,.F.);
#1241=ADVANCED_FACE('',(#93),#1177,.F.);
#1242=ADVANCED_FACE('',(#94,#23),#1178,.T.);
#1243=ADVANCED_FACE('',(#95),#1179,.F.);
#1244=ADVANCED_FACE('',(#96),#1180,.T.);
#1245=ADVANCED_FACE('',(#97),#1181,.T.);
#1246=ADVANCED_FACE('',(#98),#1182,.T.);
#1247=ADVANCED_FACE('',(#99),#1183,.F.);
#1248=ADVANCED_FACE('',(#100),#1184,.F.);
#1249=ADVANCED_FACE('',(#101),#1185,.F.);
#1250=ADVANCED_FACE('',(#102),#1186,.F.);
#1251=ADVANCED_FACE('',(#103),#1187,.F.);
#1252=ADVANCED_FACE('',(#104),#1188,.F.);
#1253=ADVANCED_FACE('',(#105),#1189,.F.);
#1254=ADVANCED_FACE('',(#106),#1190,.F.);
#1255=ADVANCED_FACE('',(#107),#1191,.F.);
#1256=ADVANCED_FACE('',(#108),#1192,.F.);
#1257=ADVANCED_FACE('',(#109),#1193,.F.);
#1258=ADVANCED_FACE('',(#110),#1194,.T.);
#1259=ADVANCED_FACE('',(#111),#1195,.T.);
#1260=ADVANCED_FACE('',(#112),#1196,.T.);
#1261=ADVANCED_FACE('',(#113),#20,.T.);
#1262=ADVANCED_FACE('',(#114),#1197,.F.);
#1263=CLOSED_SHELL('',(#1198,#1199,#1200,#1201,#1202,#1203,#1204,#1205,
#1206,#1207,#1208,#1209,#1210,#1211,#1212,#1213,#1214,#1215,#1216,#1217,
#1218,#1219,#1220,#1221,#1222,#1223,#1224,#1225,#1226,#1227,#1228,#1229,
#1230,#1231,#1232,#1233,#1234,#1235,#1236,#1237,#1238,#1239,#1240,#1241,
#1242,#1243,#1244,#1245,#1246,#1247,#1248,#1249,#1250,#1251,#1252,#1253,
#1254,#1255,#1256,#1257,#1258,#1259,#1260,#1261,#1262));
#1264=DERIVED_UNIT_ELEMENT(#1266,1.);
#1265=DERIVED_UNIT_ELEMENT(#2071,-3.);
#1266=(
MASS_UNIT()
NAMED_UNIT(*)
SI_UNIT(.KILO.,.GRAM.)
);
#1267=DERIVED_UNIT((#1264,#1265));
#1268=MEASURE_REPRESENTATION_ITEM('density measure',
POSITIVE_RATIO_MEASURE(7850.),#1267);
#1269=PROPERTY_DEFINITION_REPRESENTATION(#1274,#1271);
#1270=PROPERTY_DEFINITION_REPRESENTATION(#1275,#1272);
#1271=REPRESENTATION('material name',(#1273),#2068);
#1272=REPRESENTATION('density',(#1268),#2068);
#1273=DESCRIPTIVE_REPRESENTATION_ITEM('Steel','Steel');
#1274=PROPERTY_DEFINITION('material property','material name',#2078);
#1275=PROPERTY_DEFINITION('material property','density of part',#2078);
#1276=AXIS2_PLACEMENT_3D('',#1704,#1368,#1369);
#1277=AXIS2_PLACEMENT_3D('',#1705,#1370,#1371);
#1278=AXIS2_PLACEMENT_3D('',#1718,#1378,#1379);
#1279=AXIS2_PLACEMENT_3D('',#1728,#1385,#1386);
#1280=AXIS2_PLACEMENT_3D('',#1737,#1391,#1392);
#1281=AXIS2_PLACEMENT_3D('',#1743,#1396,#1397);
#1282=AXIS2_PLACEMENT_3D('',#1755,#1404,#1405);
#1283=AXIS2_PLACEMENT_3D('',#1759,#1408,#1409);
#1284=AXIS2_PLACEMENT_3D('',#1765,#1413,#1414);
#1285=AXIS2_PLACEMENT_3D('',#1769,#1416,#1417);
#1286=AXIS2_PLACEMENT_3D('',#1777,#1421,#1422);
#1287=AXIS2_PLACEMENT_3D('',#1785,#1426,#1427);
#1288=AXIS2_PLACEMENT_3D('',#1792,#1431,#1432);
#1289=AXIS2_PLACEMENT_3D('',#1793,#1433,#1434);
#1290=AXIS2_PLACEMENT_3D('',#1795,#1435,#1436);
#1291=AXIS2_PLACEMENT_3D('',#1797,#1438,#1439);
#1292=AXIS2_PLACEMENT_3D('',#1799,#1440,#1441);
#1293=AXIS2_PLACEMENT_3D('',#1802,#1443,#1444);
#1294=AXIS2_PLACEMENT_3D('',#1803,#1445,#1446);
#1295=AXIS2_PLACEMENT_3D('',#1805,#1447,#1448);
#1296=AXIS2_PLACEMENT_3D('',#1808,#1450,#1451);
#1297=AXIS2_PLACEMENT_3D('',#1809,#1452,#1453);
#1298=AXIS2_PLACEMENT_3D('',#1818,#1459,#1460);
#1299=AXIS2_PLACEMENT_3D('',#1822,#1463,#1464);
#1300=AXIS2_PLACEMENT_3D('',#1837,#1473,#1474);
#1301=AXIS2_PLACEMENT_3D('',#1839,#1476,#1477);
#1302=AXIS2_PLACEMENT_3D('',#1848,#1482,#1483);
#1303=AXIS2_PLACEMENT_3D('',#1854,#1487,#1488);
#1304=AXIS2_PLACEMENT_3D('',#1860,#1492,#1493);
#1305=AXIS2_PLACEMENT_3D('',#1861,#1494,#1495);
#1306=AXIS2_PLACEMENT_3D('',#1862,#1496,#1497);
#1307=AXIS2_PLACEMENT_3D('',#1867,#1499,#1500);
#1308=AXIS2_PLACEMENT_3D('',#1871,#1503,#1504);
#1309=AXIS2_PLACEMENT_3D('',#1881,#1510,#1511);
#1310=AXIS2_PLACEMENT_3D('',#1887,#1515,#1516);
#1311=AXIS2_PLACEMENT_3D('',#1891,#1519,#1520);
#1312=AXIS2_PLACEMENT_3D('',#1893,#1521,#1522);
#1313=AXIS2_PLACEMENT_3D('',#1904,#1528,#1529);
#1314=AXIS2_PLACEMENT_3D('',#1906,#1530,#1531);
#1315=AXIS2_PLACEMENT_3D('',#1907,#1532,#1533);
#1316=AXIS2_PLACEMENT_3D('',#1908,#1534,#1535);
#1317=AXIS2_PLACEMENT_3D('',#1916,#1540,#1541);
#1318=AXIS2_PLACEMENT_3D('',#1920,#1543,#1544);
#1319=AXIS2_PLACEMENT_3D('',#1923,#1546,#1547);
#1320=AXIS2_PLACEMENT_3D('',#1924,#1548,#1549);
#1321=AXIS2_PLACEMENT_3D('',#1932,#1553,#1554);
#1322=AXIS2_PLACEMENT_3D('',#1944,#1561,#1562);
#1323=AXIS2_PLACEMENT_3D('',#1952,#1566,#1567);
#1324=AXIS2_PLACEMENT_3D('',#1953,#1568,#1569);
#1325=AXIS2_PLACEMENT_3D('',#1956,#1572,#1573);
#1326=AXIS2_PLACEMENT_3D('',#1959,#1576,#1577);
#1327=AXIS2_PLACEMENT_3D('',#1961,#1579,#1580);
#1328=AXIS2_PLACEMENT_3D('',#1967,#1584,#1585);
#1329=AXIS2_PLACEMENT_3D('',#1971,#1588,#1589);
#1330=AXIS2_PLACEMENT_3D('',#1975,#1592,#1593);
#1331=AXIS2_PLACEMENT_3D('',#1976,#1594,#1595);
#1332=AXIS2_PLACEMENT_3D('',#1977,#1596,#1597);
#1333=AXIS2_PLACEMENT_3D('',#1983,#1601,#1602);
#1334=AXIS2_PLACEMENT_3D('',#1986,#1604,#1605);
#1335=AXIS2_PLACEMENT_3D('',#1987,#1606,#1607);
#1336=AXIS2_PLACEMENT_3D('',#1988,#1608,#1609);
#1337=AXIS2_PLACEMENT_3D('',#1989,#1610,#1611);
#1338=AXIS2_PLACEMENT_3D('',#1990,#1612,#1613);
#1339=AXIS2_PLACEMENT_3D('',#1994,#1616,#1617);
#1340=AXIS2_PLACEMENT_3D('',#2000,#1621,#1622);
#1341=AXIS2_PLACEMENT_3D('',#2003,#1625,#1626);
#1342=AXIS2_PLACEMENT_3D('',#2005,#1628,#1629);
#1343=AXIS2_PLACEMENT_3D('',#2008,#1630,#1631);
#1344=AXIS2_PLACEMENT_3D('',#2014,#1635,#1636);
#1345=AXIS2_PLACEMENT_3D('',#2017,#1639,#1640);
#1346=AXIS2_PLACEMENT_3D('',#2023,#1644,#1645);
#1347=AXIS2_PLACEMENT_3D('',#2029,#1649,#1650);
#1348=AXIS2_PLACEMENT_3D('',#2031,#1651,#1652);
#1349=AXIS2_PLACEMENT_3D('',#2033,#1654,#1655);
#1350=AXIS2_PLACEMENT_3D('',#2035,#1657,#1658);
#1351=AXIS2_PLACEMENT_3D('',#2037,#1660,#1661);
#1352=AXIS2_PLACEMENT_3D('',#2039,#1663,#1664);
#1353=AXIS2_PLACEMENT_3D('',#2041,#1666,#1667);
#1354=AXIS2_PLACEMENT_3D('',#2042,#1668,#1669);
#1355=AXIS2_PLACEMENT_3D('',#2044,#1671,#1672);
#1356=AXIS2_PLACEMENT_3D('',#2045,#1673,#1674);
#1357=AXIS2_PLACEMENT_3D('',#2047,#1676,#1677);
#1358=AXIS2_PLACEMENT_3D('',#2049,#1679,#1680);
#1359=AXIS2_PLACEMENT_3D('',#2051,#1682,#1683);
#1360=AXIS2_PLACEMENT_3D('',#2053,#1685,#1686);
#1361=AXIS2_PLACEMENT_3D('',#2057,#1689,#1690);
#1362=AXIS2_PLACEMENT_3D('',#2058,#1691,#1692);
#1363=AXIS2_PLACEMENT_3D('',#2059,#1693,#1694);
#1364=AXIS2_PLACEMENT_3D('',#2060,#1695,#1696);
#1365=AXIS2_PLACEMENT_3D('',#2061,#1697,#1698);
#1366=AXIS2_PLACEMENT_3D('',#2064,#1700,#1701);
#1367=AXIS2_PLACEMENT_3D('',#2065,#1702,#1703);
#1368=DIRECTION('axis',(0.,0.,1.));
#1369=DIRECTION('refdir',(1.,0.,0.));
#1370=DIRECTION('center_axis',(-1.,1.72639680329212E-14,0.));
#1371=DIRECTION('ref_axis',(1.72639680329212E-14,1.,4.93038065763132E-31));
#1372=DIRECTION('',(0.,0.,-1.));
#1373=DIRECTION('',(1.72639680329212E-14,1.,0.));
#1374=DIRECTION('',(-3.32338471203461E-30,-4.93038065763132E-31,1.));
#1375=DIRECTION('',(0.,1.,0.));
#1376=DIRECTION('',(-3.32338471203461E-30,0.,1.));
#1377=DIRECTION('',(1.72639680329212E-14,1.,0.));
#1378=DIRECTION('center_axis',(0.,0.,-1.));
#1379=DIRECTION('ref_axis',(-1.,0.,0.));
#1380=DIRECTION('',(-1.,0.,0.));
#1381=DIRECTION('',(0.,-1.,0.));
#1382=DIRECTION('',(1.,0.,0.));
#1383=DIRECTION('',(0.,1.,0.));
#1384=DIRECTION('',(1.,0.,7.4014868308365E-15));
#1385=DIRECTION('center_axis',(-1.72639680329212E-14,-1.,0.));
#1386=DIRECTION('ref_axis',(-1.,1.72639680329212E-14,-2.366582715663E-30));
#1387=DIRECTION('',(-1.,1.72639680329212E-14,0.));
#1388=DIRECTION('',(0.,0.,-1.));
#1389=DIRECTION('',(-1.,1.72639680329212E-14,0.));
#1390=DIRECTION('',(0.,-3.33066907387547E-16,1.));
#1391=DIRECTION('center_axis',(-1.,1.72639680329212E-14,0.));
#1392=DIRECTION('ref_axis',(1.72639680329212E-14,1.,4.93038065763132E-31));
#1393=DIRECTION('',(0.,0.,1.));
#1394=DIRECTION('',(1.72639680329212E-14,1.,0.));
#1395=DIRECTION('',(1.72639680329212E-14,1.,0.));
#1396=DIRECTION('center_axis',(0.,0.,-1.));
#1397=DIRECTION('ref_axis',(-1.,0.,0.));
#1398=DIRECTION('',(1.,0.,0.));
#1399=DIRECTION('',(0.,1.,0.));
#1400=DIRECTION('',(-1.,0.,0.));
#1401=DIRECTION('',(-1.,0.,0.));
#1402=DIRECTION('',(-1.,0.,0.));
#1403=DIRECTION('',(0.,-1.,0.));
#1404=DIRECTION('center_axis',(0.,1.,0.));
#1405=DIRECTION('ref_axis',(0.,0.,1.));
#1406=DIRECTION('',(0.,0.,-1.));
#1407=DIRECTION('',(1.,0.,0.));
#1408=DIRECTION('center_axis',(0.,1.,0.));
#1409=DIRECTION('ref_axis',(1.,0.,0.));
#1410=DIRECTION('',(1.,0.,0.));
#1411=DIRECTION('',(0.,0.,-1.));
#1412=DIRECTION('',(1.,0.,0.));
#1413=DIRECTION('center_axis',(0.,0.,1.));
#1414=DIRECTION('ref_axis',(-1.,0.,0.));
#1415=DIRECTION('',(0.,1.,0.));
#1416=DIRECTION('center_axis',(0.,0.,1.));
#1417=DIRECTION('ref_axis',(-1.,0.,0.));
#1418=DIRECTION('',(0.707106781186548,-0.707106781186548,0.));
#1419=DIRECTION('',(-0.707106781186548,-0.707106781186548,0.));
#1420=DIRECTION('',(-0.707106781186548,0.707106781186548,0.));
#1421=DIRECTION('center_axis',(0.,0.,1.));
#1422=DIRECTION('ref_axis',(-1.,0.,0.));
#1423=DIRECTION('',(0.707106781186548,0.707106781186548,0.));
#1424=DIRECTION('',(0.707106781186548,-0.707106781186548,0.));
#1425=DIRECTION('',(-0.707106781186548,-0.707106781186548,0.));
#1426=DIRECTION('center_axis',(0.,0.,1.));
#1427=DIRECTION('ref_axis',(-1.,0.,0.));
#1428=DIRECTION('',(0.,1.,0.));
#1429=DIRECTION('',(-1.,0.,0.));
#1430=DIRECTION('',(3.70074341541719E-16,1.,0.));
#1431=DIRECTION('center_axis',(2.36658271566303E-30,4.93038065763132E-31,
-1.));
#1432=DIRECTION('ref_axis',(-1.,1.72639680329212E-14,-2.36658271566302E-30));
#1433=DIRECTION('center_axis',(0.,0.,-1.));
#1434=DIRECTION('ref_axis',(-1.,1.72639680329212E-14,0.));
#1435=DIRECTION('center_axis',(0.,0.,1.));
#1436=DIRECTION('ref_axis',(-1.,1.72639680329212E-14,0.));
#1437=DIRECTION('',(0.,0.,1.));
#1438=DIRECTION('center_axis',(0.,0.,-1.));
#1439=DIRECTION('ref_axis',(-1.,1.72639680329212E-14,0.));
#1440=DIRECTION('center_axis',(0.,0.,1.));
#1441=DIRECTION('ref_axis',(-1.,1.72639680329212E-14,0.));
#1442=DIRECTION('',(0.,0.,1.));
#1443=DIRECTION('center_axis',(2.36658271566303E-30,4.93038065763132E-31,
-1.));
#1444=DIRECTION('ref_axis',(-1.,1.72639680329212E-14,-2.36658271566302E-30));
#1445=DIRECTION('center_axis',(0.,0.,-1.));
#1446=DIRECTION('ref_axis',(-1.,1.72639680329212E-14,0.));
#1447=DIRECTION('center_axis',(0.,0.,1.));
#1448=DIRECTION('ref_axis',(-1.,1.72639680329212E-14,0.));
#1449=DIRECTION('',(0.,0.,1.));
#1450=DIRECTION('center_axis',(2.36658271566299E-30,1.97215226305253E-31,
-1.));
#1451=DIRECTION('ref_axis',(-1.,1.72639680329212E-14,-2.36658271566299E-30));
#1452=DIRECTION('center_axis',(-1.,0.,0.));
#1453=DIRECTION('ref_axis',(0.,1.,0.));
#1454=DIRECTION('',(0.,-1.,0.));
#1455=DIRECTION('',(0.,0.,1.));
#1456=DIRECTION('',(0.,0.,1.));
#1457=DIRECTION('',(0.,1.,0.));
#1458=DIRECTION('',(0.,0.,-1.));
#1459=DIRECTION('center_axis',(0.,-1.,0.));
#1460=DIRECTION('ref_axis',(-1.,0.,0.));
#1461=DIRECTION('',(1.,0.,0.));
#1462=DIRECTION('',(0.,0.,-1.));
#1463=DIRECTION('center_axis',(0.,0.,-1.));
#1464=DIRECTION('ref_axis',(-1.,0.,0.));
#1465=DIRECTION('',(-1.,0.,0.));
#1466=DIRECTION('',(0.,1.,0.));
#1467=DIRECTION('',(-1.,0.,0.));
#1468=DIRECTION('',(7.40148683083438E-16,-1.,0.));
#1469=DIRECTION('',(1.,0.,0.));
#1470=DIRECTION('',(0.,1.,0.));
#1471=DIRECTION('',(3.70074341541719E-16,1.,0.));
#1472=DIRECTION('',(-1.,0.,0.));
#1473=DIRECTION('center_axis',(0.,1.,0.));
#1474=DIRECTION('ref_axis',(1.,0.,0.));
#1475=DIRECTION('',(0.,0.,-1.));
#1476=DIRECTION('center_axis',(-0.707106781186548,0.707106781186548,0.));
#1477=DIRECTION('ref_axis',(0.707106781186548,0.707106781186548,0.));
#1478=DIRECTION('',(0.707106781186548,0.707106781186548,0.));
#1479=DIRECTION('',(0.,0.,-1.));
#1480=DIRECTION('',(0.707106781186547,0.707106781186547,0.));
#1481=DIRECTION('',(0.,0.,-1.));
#1482=DIRECTION('center_axis',(-0.707106781186548,-0.707106781186548,0.));
#1483=DIRECTION('ref_axis',(-0.707106781186548,0.707106781186548,0.));
#1484=DIRECTION('',(-0.707106781186548,0.707106781186548,0.));
#1485=DIRECTION('',(0.,0.,-1.));
#1486=DIRECTION('',(-0.707106781186547,0.707106781186547,0.));
#1487=DIRECTION('center_axis',(0.707106781186548,-0.707106781186548,0.));
#1488=DIRECTION('ref_axis',(-0.707106781186548,-0.707106781186548,0.));
#1489=DIRECTION('',(-0.707106781186548,-0.707106781186548,0.));
#1490=DIRECTION('',(0.,0.,1.));
#1491=DIRECTION('',(-0.707106781186547,-0.707106781186547,0.));
#1492=DIRECTION('center_axis',(0.,0.,1.));
#1493=DIRECTION('ref_axis',(-0.707106781186547,0.707106781186547,0.));
#1494=DIRECTION('center_axis',(0.,0.,-1.));
#1495=DIRECTION('ref_axis',(-1.,0.,0.));
#1496=DIRECTION('center_axis',(0.,0.,1.));
#1497=DIRECTION('ref_axis',(-0.707106781186547,0.707106781186547,0.));
#1498=DIRECTION('',(-1.,-6.80478364394862E-16,0.));
#1499=DIRECTION('center_axis',(0.,0.,-1.));
#1500=DIRECTION('ref_axis',(-1.,0.,0.));
#1501=DIRECTION('',(0.707106781186547,-0.707106781186547,0.));
#1502=DIRECTION('',(0.707106781186547,0.707106781186547,0.));
#1503=DIRECTION('center_axis',(-0.707106781186548,0.707106781186548,0.));
#1504=DIRECTION('ref_axis',(0.707106781186548,0.707106781186548,0.));
#1505=DIRECTION('',(0.,0.,1.));
#1506=DIRECTION('',(0.,0.,-1.));
#1507=DIRECTION('',(0.707106781186548,0.707106781186548,0.));
#1508=DIRECTION('',(0.,0.,-1.));
#1509=DIRECTION('',(-0.707106781186548,-0.707106781186548,0.));
#1510=DIRECTION('center_axis',(-0.707106781186548,-0.707106781186548,0.));
#1511=DIRECTION('ref_axis',(-0.707106781186548,0.707106781186548,0.));
#1512=DIRECTION('',(0.707106781186548,-0.707106781186548,0.));
#1513=DIRECTION('',(-0.707106781186548,0.707106781186548,0.));
#1514=DIRECTION('',(0.,0.,1.));
#1515=DIRECTION('center_axis',(0.707106781186548,0.707106781186548,0.));
#1516=DIRECTION('ref_axis',(0.707106781186548,-0.707106781186548,0.));
#1517=DIRECTION('',(0.707106781186548,-0.707106781186548,0.));
#1518=DIRECTION('',(0.,0.,-1.));
#1519=DIRECTION('center_axis',(0.,0.,1.));
#1520=DIRECTION('ref_axis',(-1.,0.,0.));
#1521=DIRECTION('center_axis',(0.,0.,1.));
#1522=DIRECTION('ref_axis',(-1.,0.,0.));
#1523=DIRECTION('',(0.,-1.,0.));
#1524=DIRECTION('',(1.,0.,0.));
#1525=DIRECTION('',(7.40148683083438E-16,-1.,0.));
#1526=DIRECTION('',(-1.,0.,0.));
#1527=DIRECTION('',(0.,-1.,0.));
#1528=DIRECTION('center_axis',(0.,0.,1.));
#1529=DIRECTION('ref_axis',(-1.,0.,0.));
#1530=DIRECTION('center_axis',(0.,0.,1.));
#1531=DIRECTION('ref_axis',(-1.,0.,0.));
#1532=DIRECTION('center_axis',(0.,0.,1.));
#1533=DIRECTION('ref_axis',(-1.,0.,0.));
#1534=DIRECTION('center_axis',(-6.80478364394862E-16,1.,0.));
#1535=DIRECTION('ref_axis',(1.,6.80478364394862E-16,0.));
#1536=DIRECTION('',(-1.,-6.80478364394862E-16,0.));
#1537=DIRECTION('',(0.,0.,1.));
#1538=DIRECTION('',(1.,6.80478364394862E-16,0.));
#1539=DIRECTION('',(0.,0.,-1.));
#1540=DIRECTION('center_axis',(0.,0.,1.));
#1541=DIRECTION('ref_axis',(-1.,0.,0.));
#1542=DIRECTION('',(0.,0.,1.));
#1543=DIRECTION('center_axis',(0.,0.,-1.));
#1544=DIRECTION('ref_axis',(-1.,0.,0.));
#1545=DIRECTION('',(0.,0.,-1.));
#1546=DIRECTION('center_axis',(0.,0.,-1.));
#1547=DIRECTION('ref_axis',(-1.,0.,0.));
#1548=DIRECTION('center_axis',(0.,0.,-1.));
#1549=DIRECTION('ref_axis',(1.,0.,0.));
#1550=DIRECTION('',(0.,1.,0.));
#1551=DIRECTION('',(-1.,0.,0.));
#1552=DIRECTION('',(0.,-1.,0.));
#1553=DIRECTION('center_axis',(0.,0.,-1.));
#1554=DIRECTION('ref_axis',(-1.,0.,0.));
#1555=DIRECTION('',(0.707106781186548,0.707106781186548,0.));
#1556=DIRECTION('',(-0.707106781186548,0.707106781186548,0.));
#1557=DIRECTION('',(-1.,-7.39863581058023E-9,0.));
#1558=DIRECTION('',(0.,-1.,0.));
#1559=DIRECTION('',(1.,0.,0.));
#1560=DIRECTION('',(0.,1.,0.));
#1561=DIRECTION('center_axis',(0.,0.,1.));
#1562=DIRECTION('ref_axis',(-0.707106781186548,-0.707106781186548,0.));
#1563=DIRECTION('',(-1.,-7.39863581058023E-9,0.));
#1564=DIRECTION('',(0.707106781186548,-0.707106781186548,0.));
#1565=DIRECTION('',(0.707106781186548,0.707106781186548,0.));
#1566=DIRECTION('center_axis',(0.,0.,-1.));
#1567=DIRECTION('ref_axis',(-1.,0.,0.));
#1568=DIRECTION('center_axis',(-0.707106781186548,0.707106781186548,0.));
#1569=DIRECTION('ref_axis',(0.707106781186548,0.707106781186548,0.));
#1570=DIRECTION('',(0.,0.,1.));
#1571=DIRECTION('',(0.,0.,-1.));
#1572=DIRECTION('center_axis',(0.707106781186548,-0.707106781186548,0.));
#1573=DIRECTION('ref_axis',(-0.707106781186548,-0.707106781186548,0.));
#1574=DIRECTION('',(0.,0.,-1.));
#1575=DIRECTION('',(0.,0.,-1.));
#1576=DIRECTION('center_axis',(0.707106781186548,0.707106781186548,0.));
#1577=DIRECTION('ref_axis',(0.707106781186548,-0.707106781186548,0.));
#1578=DIRECTION('',(0.,0.,-1.));
#1579=DIRECTION('center_axis',(-0.707106781186548,-0.707106781186548,0.));
#1580=DIRECTION('ref_axis',(-0.707106781186548,0.707106781186548,0.));
#1581=DIRECTION('',(0.,0.,-1.));
#1582=DIRECTION('',(-0.707106781186548,0.707106781186548,0.));
#1583=DIRECTION('',(0.,0.,-1.));
#1584=DIRECTION('center_axis',(0.707106781186548,-0.707106781186548,0.));
#1585=DIRECTION('ref_axis',(-0.707106781186548,-0.707106781186548,0.));
#1586=DIRECTION('',(0.,0.,-1.));
#1587=DIRECTION('',(-0.707106781186548,-0.707106781186548,0.));
#1588=DIRECTION('center_axis',(0.707106781186548,0.707106781186548,0.));
#1589=DIRECTION('ref_axis',(0.707106781186548,-0.707106781186548,0.));
#1590=DIRECTION('',(0.,0.,1.));
#1591=DIRECTION('',(0.707106781186548,-0.707106781186548,0.));
#1592=DIRECTION('center_axis',(0.,0.,1.));
#1593=DIRECTION('ref_axis',(-0.707106781186548,-0.707106781186548,0.));
#1594=DIRECTION('center_axis',(0.,0.,-1.));
#1595=DIRECTION('ref_axis',(-1.,0.,0.));
#1596=DIRECTION('center_axis',(-7.39863581058023E-9,1.,0.));
#1597=DIRECTION('ref_axis',(1.,7.39863581058023E-9,0.));
#1598=DIRECTION('',(0.,0.,1.));
#1599=DIRECTION('',(1.,7.39863581058023E-9,0.));
#1600=DIRECTION('',(0.,0.,-1.));
#1601=DIRECTION('center_axis',(0.,0.,1.));
#1602=DIRECTION('ref_axis',(-1.,0.,0.));
#1603=DIRECTION('',(0.,0.,1.));
#1604=DIRECTION('center_axis',(0.,0.,-1.));
#1605=DIRECTION('ref_axis',(-1.,0.,0.));
#1606=DIRECTION('center_axis',(0.,0.,1.));
#1607=DIRECTION('ref_axis',(-1.,0.,0.));
#1608=DIRECTION('center_axis',(0.,0.,1.));
#1609=DIRECTION('ref_axis',(-1.,0.,0.));
#1610=DIRECTION('center_axis',(0.,0.,1.));
#1611=DIRECTION('ref_axis',(-1.,0.,0.));
#1612=DIRECTION('center_axis',(0.,0.,-1.));
#1613=DIRECTION('ref_axis',(-1.,0.,0.));
#1614=DIRECTION('',(0.,-1.,0.));
#1615=DIRECTION('',(1.,0.,0.));
#1616=DIRECTION('center_axis',(0.,0.,-1.));
#1617=DIRECTION('ref_axis',(-1.,0.,0.));
#1618=DIRECTION('',(0.,-1.,0.));
#1619=DIRECTION('',(1.,0.,0.));
#1620=DIRECTION('',(0.,1.,0.));
#1621=DIRECTION('center_axis',(1.,0.,0.));
#1622=DIRECTION('ref_axis',(0.,-1.,0.));
#1623=DIRECTION('',(0.,0.,1.));
#1624=DIRECTION('',(0.,0.,-1.));
#1625=DIRECTION('center_axis',(0.,-1.,0.));
#1626=DIRECTION('ref_axis',(-1.,0.,0.));
#1627=DIRECTION('',(0.,0.,-1.));
#1628=DIRECTION('center_axis',(0.,0.,1.));
#1629=DIRECTION('ref_axis',(-1.,0.,0.));
#1630=DIRECTION('center_axis',(0.,0.,-1.));
#1631=DIRECTION('ref_axis',(-1.,0.,0.));
#1632=DIRECTION('',(0.,1.,0.));
#1633=DIRECTION('',(-1.,0.,0.));
#1634=DIRECTION('',(0.,-1.,0.));
#1635=DIRECTION('center_axis',(0.,1.,0.));
#1636=DIRECTION('ref_axis',(1.,0.,0.));
#1637=DIRECTION('',(0.,0.,-1.));
#1638=DIRECTION('',(0.,0.,-1.));
#1639=DIRECTION('center_axis',(0.,-1.,0.));
#1640=DIRECTION('ref_axis',(0.,0.,-1.));
#1641=DIRECTION('',(0.,0.,1.));
#1642=DIRECTION('',(-1.,0.,0.));
#1643=DIRECTION('',(0.,0.,-1.));
#1644=DIRECTION('center_axis',(1.,0.,0.));
#1645=DIRECTION('ref_axis',(0.,1.,0.));
#1646=DIRECTION('',(0.,-1.,0.));
#1647=DIRECTION('',(0.,0.,1.));
#1648=DIRECTION('',(0.,-1.,0.));
#1649=DIRECTION('center_axis',(0.,0.,1.));
#1650=DIRECTION('ref_axis',(1.,0.,0.));
#1651=DIRECTION('center_axis',(0.,0.,-1.));
#1652=DIRECTION('ref_axis',(1.,0.,0.));
#1653=DIRECTION('',(0.,1.,0.));
#1654=DIRECTION('center_axis',(0.,1.,0.));
#1655=DIRECTION('ref_axis',(1.,0.,0.));
#1656=DIRECTION('',(0.,0.,-1.));
#1657=DIRECTION('center_axis',(-1.,0.,0.));
#1658=DIRECTION('ref_axis',(0.,1.,0.));
#1659=DIRECTION('',(0.,0.,1.));
#1660=DIRECTION('center_axis',(1.,0.,0.));
#1661=DIRECTION('ref_axis',(0.,-1.,0.));
#1662=DIRECTION('',(0.,0.,-1.));
#1663=DIRECTION('center_axis',(-1.,3.70074341541719E-16,0.));
#1664=DIRECTION('ref_axis',(3.70074341541719E-16,1.,0.));
#1665=DIRECTION('',(0.,0.,-1.));
#1666=DIRECTION('center_axis',(0.,-1.,0.));
#1667=DIRECTION('ref_axis',(-1.,0.,0.));
#1668=DIRECTION('center_axis',(0.,-1.,0.));
#1669=DIRECTION('ref_axis',(-1.,0.,0.));
#1670=DIRECTION('',(0.,0.,-1.));
#1671=DIRECTION('center_axis',(-1.,0.,0.));
#1672=DIRECTION('ref_axis',(0.,1.,0.));
#1673=DIRECTION('center_axis',(0.,-1.,0.));
#1674=DIRECTION('ref_axis',(-1.,0.,0.));
#1675=DIRECTION('',(0.,0.,-1.));
#1676=DIRECTION('center_axis',(1.,7.40148683083438E-16,0.));
#1677=DIRECTION('ref_axis',(7.40148683083438E-16,-1.,0.));
#1678=DIRECTION('',(0.,0.,-1.));
#1679=DIRECTION('center_axis',(0.,1.,0.));
#1680=DIRECTION('ref_axis',(1.,0.,0.));
#1681=DIRECTION('',(0.,0.,1.));
#1682=DIRECTION('center_axis',(1.,0.,0.));
#1683=DIRECTION('ref_axis',(0.,-1.,0.));
#1684=DIRECTION('',(0.,0.,1.));
#1685=DIRECTION('center_axis',(-1.,0.,0.));
#1686=DIRECTION('ref_axis',(0.,-1.,0.));
#1687=DIRECTION('',(0.,0.,1.));
#1688=DIRECTION('',(0.,1.,0.));
#1689=DIRECTION('center_axis',(0.,0.,1.));
#1690=DIRECTION('ref_axis',(-1.,0.,0.));
#1691=DIRECTION('center_axis',(0.,0.,-1.));
#1692=DIRECTION('ref_axis',(-1.,0.,0.));
#1693=DIRECTION('center_axis',(0.,0.,1.));
#1694=DIRECTION('ref_axis',(-1.,0.,0.));
#1695=DIRECTION('center_axis',(0.,0.,-1.));
#1696=DIRECTION('ref_axis',(-1.,0.,0.));
#1697=DIRECTION('center_axis',(0.,0.,1.));
#1698=DIRECTION('ref_axis',(-1.,0.,0.));
#1699=DIRECTION('',(0.,0.,-1.));
#1700=DIRECTION('center_axis',(0.,0.,1.));
#1701=DIRECTION('ref_axis',(1.,0.,0.));
#1702=DIRECTION('center_axis',(0.,0.,1.));
#1703=DIRECTION('ref_axis',(1.,0.,0.));
#1704=CARTESIAN_POINT('',(0.,0.,0.));
#1705=CARTESIAN_POINT('Origin',(90.8000012814996,48.25,45.4999999999997));
#1706=CARTESIAN_POINT('',(90.8000012814994,63.5000001192094,45.4999999999997));
#1707=CARTESIAN_POINT('',(90.8000012814987,63.5000001192094,39.9999999999997));
#1708=CARTESIAN_POINT('',(90.8000012814999,63.5000001192094,45.4999999999997));
#1709=CARTESIAN_POINT('',(90.8000012814999,75.,39.9999999999996));
#1710=CARTESIAN_POINT('',(90.8000012814996,48.2500000000001,39.9999999999997));
#1711=CARTESIAN_POINT('',(90.8000012814999,75.,51.4999999999997));
#1712=CARTESIAN_POINT('',(90.8000012814999,75.,45.4999999999998));
#1713=CARTESIAN_POINT('',(90.8000012814999,72.,51.4999999999997));
#1714=CARTESIAN_POINT('',(90.8000012814999,66.,51.4999999999998));
#1715=CARTESIAN_POINT('',(90.8000012814999,72.,45.4999999999998));
#1716=CARTESIAN_POINT('',(90.8000012814999,72.,49.4999999999998));
#1717=CARTESIAN_POINT('',(90.8000012814997,54.1250000000002,45.4999999999998));
#1718=CARTESIAN_POINT('Origin',(110.0000012815,43.9999996572734,39.9999999999998));
#1719=CARTESIAN_POINT('',(123.2500012815,63.5000001192094,39.9999999999998));
#1720=CARTESIAN_POINT('',(116.6250012815,63.5000001192094,39.9999999999998));
#1721=CARTESIAN_POINT('',(123.2500012815,86.5000001192094,39.9999999999998));
#1722=CARTESIAN_POINT('',(123.2500012815,80.7500001192094,39.9999999999998));
#1723=CARTESIAN_POINT('',(96.7500012814999,86.5000001192094,39.9999999999998));
#1724=CARTESIAN_POINT('',(103.3750012815,86.5000001192094,39.9999999999998));
#1725=CARTESIAN_POINT('',(96.7500012814999,75.,39.9999999999997));
#1726=CARTESIAN_POINT('',(96.7500012814999,69.2500001192094,39.9999999999998));
#1727=CARTESIAN_POINT('',(94.3875012814993,75.,39.9999999999996));
#1728=CARTESIAN_POINT('Origin',(95.0000012814996,48.25,45.4999999999997));
#1729=CARTESIAN_POINT('',(97.0000012814999,48.25,39.9999999999997));
#1730=CARTESIAN_POINT('',(90.8000012814987,48.2500000000001,39.9999999999997));
#1731=CARTESIAN_POINT('',(95.000001281499,48.25,39.9999999999997));
#1732=CARTESIAN_POINT('',(90.8000012814996,48.25,45.4999999999997));
#1733=CARTESIAN_POINT('',(90.8000012814996,48.25,45.4999999999997));
#1734=CARTESIAN_POINT('',(97.0000012814999,48.25,45.4999999999997));
#1735=CARTESIAN_POINT('',(102.50000064075,48.2499999999998,45.4999999999998));
#1736=CARTESIAN_POINT('',(97.0000012814999,48.25,49.4999999999997));
#1737=CARTESIAN_POINT('Origin',(90.8000012814996,48.25,45.4999999999997));
#1738=CARTESIAN_POINT('',(90.8000012814987,53.4999996572734,39.9999999999997));
#1739=CARTESIAN_POINT('',(90.8000012814989,53.4999996572734,45.4999999999996));
#1740=CARTESIAN_POINT('',(90.8000012814997,53.4999996572734,42.7499999999997));
#1741=CARTESIAN_POINT('',(90.8000012814997,54.1250000000002,45.4999999999998));
#1742=CARTESIAN_POINT('',(90.8000012814996,48.2500000000001,39.9999999999997));
#1743=CARTESIAN_POINT('Origin',(110.0000012815,43.9999996572734,39.9999999999998));
#1744=CARTESIAN_POINT('',(123.0000012815,53.4999996572734,39.9999999999998));
#1745=CARTESIAN_POINT('',(103.5000012815,53.4999996572734,39.9999999999998));
#1746=CARTESIAN_POINT('',(97.0000012814999,34.4999996572734,39.9999999999998));
#1747=CARTESIAN_POINT('',(97.0000012814999,39.2499996572734,39.9999999999998));
#1748=CARTESIAN_POINT('',(105.0000012815,34.4999996572734,39.9999999999998));
#1749=CARTESIAN_POINT('',(116.5000012815,34.4999996572734,39.9999999999998));
#1750=CARTESIAN_POINT('',(115.0000012815,34.4999996572734,39.9999999999998));
#1751=CARTESIAN_POINT('',(107.5000012815,34.4999996572734,39.9999999999998));
#1752=CARTESIAN_POINT('',(123.0000012815,34.4999996572734,39.9999999999998));
#1753=CARTESIAN_POINT('',(116.5000012815,34.4999996572734,39.9999999999998));
#1754=CARTESIAN_POINT('',(123.0000012815,48.7499996572734,39.9999999999998));
#1755=CARTESIAN_POINT('Origin',(93.7750012814999,75.,48.4999999999997));
#1756=CARTESIAN_POINT('',(96.7500012814999,75.,51.4999999999997));
#1757=CARTESIAN_POINT('',(96.7500012814999,75.,49.4999999999998));
#1758=CARTESIAN_POINT('',(101.88750064075,75.,51.4999999999998));
#1759=CARTESIAN_POINT('Origin',(84.,72.,53.4999999999998));
#1760=CARTESIAN_POINT('',(84.,72.,51.4999999999998));
#1761=CARTESIAN_POINT('',(97.,72.,51.4999999999998));
#1762=CARTESIAN_POINT('',(84.,72.,45.4999999999998));
#1763=CARTESIAN_POINT('',(84.,72.,53.4999999999998));
#1764=CARTESIAN_POINT('',(84.,72.,45.4999999999998));
#1765=CARTESIAN_POINT('Origin',(110.,60.,51.4999999999998));
#1766=CARTESIAN_POINT('',(96.7500012814999,89.6763800683261,51.4999999999997));
#1767=CARTESIAN_POINT('',(96.7500012814999,61.7500000596047,51.4999999999998));
#1768=CARTESIAN_POINT('',(90.1146184946227,85.7064505987427,51.4999999999997));
#1769=CARTESIAN_POINT('Origin',(110.,60.,51.4999999999998));
#1770=CARTESIAN_POINT('',(94.9585227388133,80.8625463545522,51.4999999999997));
#1771=CARTESIAN_POINT('',(101.512576520653,74.3084925727127,51.4999999999998));
#1772=CARTESIAN_POINT('',(87.8874549269478,73.7914785426867,51.4999999999997));
#1773=CARTESIAN_POINT('',(93.5032554654719,79.4072790812108,51.4999999999998));
#1774=CARTESIAN_POINT('',(83.2382507730751,78.4406826965594,51.4999999999997));
#1775=CARTESIAN_POINT('',(96.8634608308825,64.815472638752,51.4999999999998));
#1776=CARTESIAN_POINT('',(83.3405972323293,41.4116637626949,51.4999999999997));
#1777=CARTESIAN_POINT('Origin',(110.,60.,51.4999999999998));
#1778=CARTESIAN_POINT('',(88.0093944055215,46.0804609358871,51.4999999999997));
#1779=CARTESIAN_POINT('',(94.6525319835733,52.7235985139388,51.4999999999998));
#1780=CARTESIAN_POINT('',(95.080462217387,39.0093931240216,51.4999999999997));
#1781=CARTESIAN_POINT('',(90.0271610381129,44.0626943032957,51.4999999999998));
#1782=CARTESIAN_POINT('',(90.2559267797369,34.1848576863716,51.4999999999997));
#1783=CARTESIAN_POINT('',(104.057998382035,47.9869292886695,51.4999999999998));
#1784=CARTESIAN_POINT('',(97.0000012814999,30.2132574234947,51.4999999999998));
#1785=CARTESIAN_POINT('Origin',(110.,60.,51.4999999999998));
#1786=CARTESIAN_POINT('',(97.0000012814999,48.,51.4999999999998));
#1787=CARTESIAN_POINT('',(97.0000012814999,41.9999987259507,51.4999999999998));
#1788=CARTESIAN_POINT('',(84.,48.,51.4999999999998));
#1789=CARTESIAN_POINT('',(103.50000064075,48.,51.4999999999998));
#1790=CARTESIAN_POINT('',(84.,54.,51.4999999999998));
#1791=CARTESIAN_POINT('',(83.0001436157946,59.8633618984218,51.4999999999997));
#1792=CARTESIAN_POINT('Origin',(80.7501436157946,59.8633618984218,51.4999999999997));
#1793=CARTESIAN_POINT('Origin',(80.7501436157946,59.8633618984218,51.4999999999997));
#1794=CARTESIAN_POINT('',(83.0001436157946,59.8633618984218,46.4999999999997));
#1795=CARTESIAN_POINT('Origin',(80.7501436157946,59.8633618984218,46.4999999999997));
#1796=CARTESIAN_POINT('',(83.0001436157946,59.8633618984218,51.4999999999997));
#1797=CARTESIAN_POINT('Origin',(110.000001342465,89.5000000596046,45.4999999999996));
#1798=CARTESIAN_POINT('',(112.250001342465,89.5000000596046,40.4999999999996));
#1799=CARTESIAN_POINT('Origin',(110.000001342465,89.5000000596046,40.4999999999996));
#1800=CARTESIAN_POINT('',(112.250001342465,89.5000000596046,45.4999999999996));
#1801=CARTESIAN_POINT('',(112.250001342465,89.5000000596046,45.4999999999996));
#1802=CARTESIAN_POINT('Origin',(110.000001342465,89.5000000596046,45.4999999999996));
#1803=CARTESIAN_POINT('Origin',(139.24985638551,59.8633625191687,51.4999999999998));
#1804=CARTESIAN_POINT('',(141.49985638551,59.8633625191687,46.4999999999998));
#1805=CARTESIAN_POINT('Origin',(139.24985638551,59.8633625191687,46.4999999999997));
#1806=CARTESIAN_POINT('',(141.49985638551,59.8633625191687,51.4999999999998));
#1807=CARTESIAN_POINT('',(141.49985638551,59.8633625191687,51.4999999999998));
#1808=CARTESIAN_POINT('Origin',(139.24985638551,59.8633625191687,51.4999999999998));
#1809=CARTESIAN_POINT('Origin',(97.0000012814999,34.4999996572734,53.4999999999998));
#1810=CARTESIAN_POINT('',(97.0000012814999,48.,45.4999999999998));
#1811=CARTESIAN_POINT('',(97.0000012814999,47.2499998286367,45.4999999999998));
#1812=CARTESIAN_POINT('',(97.0000012814999,48.,49.4999999999998));
#1813=CARTESIAN_POINT('',(97.0000012814999,30.2132574234947,45.4999999999997));
#1814=CARTESIAN_POINT('',(97.0000012814999,30.2132574234947,49.4999999999998));
#1815=CARTESIAN_POINT('',(97.0000012814999,34.4999996572734,45.4999999999997));
#1816=CARTESIAN_POINT('',(97.0000012814999,23.9999974519014,45.4999999999997));
#1817=CARTESIAN_POINT('',(97.0000012814999,34.4999996572734,53.4999999999998));
#1818=CARTESIAN_POINT('Origin',(123.2500012815,63.5000001192094,53.4999999999998));
#1819=CARTESIAN_POINT('',(123.2500012815,63.5000001192094,45.4999999999998));
#1820=CARTESIAN_POINT('',(116.62500064075,63.5000001192094,45.4999999999998));
#1821=CARTESIAN_POINT('',(123.2500012815,63.5000001192094,53.4999999999998));
#1822=CARTESIAN_POINT('Origin',(110.,60.,45.4999999999998));
#1823=CARTESIAN_POINT('',(123.0000012815,53.4999996572734,45.4999999999998));
#1824=CARTESIAN_POINT('',(101.000001281499,53.4999996572734,45.4999999999996));
#1825=CARTESIAN_POINT('',(123.0000012815,48.,45.4999999999998));
#1826=CARTESIAN_POINT('',(123.0000012815,56.7499998286367,45.4999999999998));
#1827=CARTESIAN_POINT('',(136.,48.,45.4999999999998));
#1828=CARTESIAN_POINT('',(136.,48.,45.4999999999998));
#1829=CARTESIAN_POINT('',(136.,72.,45.4999999999998));
#1830=CARTESIAN_POINT('',(136.,72.,45.4999999999998));
#1831=CARTESIAN_POINT('',(123.2500012815,72.,45.4999999999998));
#1832=CARTESIAN_POINT('',(84.,72.,45.4999999999998));
#1833=CARTESIAN_POINT('',(123.2500012815,73.2500000596047,45.4999999999998));
#1834=CARTESIAN_POINT('',(84.,48.,45.4999999999998));
#1835=CARTESIAN_POINT('',(84.,48.,45.4999999999998));
#1836=CARTESIAN_POINT('',(136.,48.,45.4999999999998));
#1837=CARTESIAN_POINT('Origin',(97.0000012814999,53.4999996572734,53.4999999999998));
#1838=CARTESIAN_POINT('',(123.0000012815,53.4999996572734,41.4999999999998));
#1839=CARTESIAN_POINT('Origin',(125.041478507822,80.8625450381871,51.4999999999997));
#1840=CARTESIAN_POINT('',(125.041478507822,80.8625450381871,51.4999999999997));
#1841=CARTESIAN_POINT('',(129.885382950496,85.7064494808619,51.4999999999997));
#1842=CARTESIAN_POINT('',(116.065472621319,71.8865391516849,51.4999999999998));
#1843=CARTESIAN_POINT('',(125.041478507822,80.8625450381871,26.4999999999997));
#1844=CARTESIAN_POINT('',(125.041478507822,80.8625450381871,51.4999999999997));
#1845=CARTESIAN_POINT('',(129.885382950496,85.7064494808619,26.4999999999997));
#1846=CARTESIAN_POINT('',(125.041478507822,80.8625450381871,26.4999999999997));
#1847=CARTESIAN_POINT('',(129.885382950496,85.7064494808619,2.));
#1848=CARTESIAN_POINT('Origin',(132.112546319687,73.7914772263216,51.4999999999997));
#1849=CARTESIAN_POINT('',(132.112546319687,73.7914772263216,51.4999999999997));
#1850=CARTESIAN_POINT('',(130.032279046346,75.871744499663,51.4999999999998));
#1851=CARTESIAN_POINT('',(132.112546319687,73.7914772263216,26.4999999999997));
#1852=CARTESIAN_POINT('',(132.112546319687,73.7914772263216,51.4999999999997));
#1853=CARTESIAN_POINT('',(132.112546319687,73.7914772263216,26.4999999999997));
#1854=CARTESIAN_POINT('Origin',(136.761750272521,78.4406811791551,51.4999999999997));
#1855=CARTESIAN_POINT('',(136.761750272521,78.4406811791551,51.4999999999997));
#1856=CARTESIAN_POINT('',(125.461142409602,67.1400733162362,51.4999999999998));
#1857=CARTESIAN_POINT('',(136.761750272521,78.4406811791551,26.4999999999997));
#1858=CARTESIAN_POINT('',(136.761750272521,78.4406811791551,2.));
#1859=CARTESIAN_POINT('',(137.781265759515,79.4601966661497,26.4999999999997));
#1860=CARTESIAN_POINT('Origin',(131.091491721534,79.8414904400336,26.4999999999997));
#1861=CARTESIAN_POINT('Origin',(110.,60.,26.4999999999997));
#1862=CARTESIAN_POINT('Origin',(130.968021985735,40.0319792957648,26.4999999999997));
#1863=CARTESIAN_POINT('',(135.052267018498,39.2965240301562,26.4999999999997));
#1864=CARTESIAN_POINT('',(125.206668632971,39.2965240301562,26.4999999999997));
#1865=CARTESIAN_POINT('',(126.484011812431,39.2965240301562,26.4999999999997));
#1866=CARTESIAN_POINT('',(136.659403820583,41.4116652727823,26.4999999999997));
#1867=CARTESIAN_POINT('Origin',(110.,60.,26.4999999999997));
#1868=CARTESIAN_POINT('',(131.99060684809,46.0804622452752,26.4999999999997));
#1869=CARTESIAN_POINT('',(138.843793770594,39.227275322771,26.4999999999997));
#1870=CARTESIAN_POINT('',(131.99060684809,46.0804622452752,26.4999999999997));
#1871=CARTESIAN_POINT('Origin',(124.919539036225,39.0093944334097,51.4999999999997));
#1872=CARTESIAN_POINT('',(125.206668632971,39.2965240301562,34.0000000000002));
#1873=CARTESIAN_POINT('',(125.206668632971,39.2965240301562,52.7499999999998));
#1874=CARTESIAN_POINT('',(131.99060684809,46.0804622452752,51.4999999999997));
#1875=CARTESIAN_POINT('',(131.99060684809,46.0804622452752,51.4999999999997));
#1876=CARTESIAN_POINT('',(124.919539036225,39.0093944334097,51.4999999999997));
#1877=CARTESIAN_POINT('',(126.437305668816,40.5271610660011,51.4999999999998));
#1878=CARTESIAN_POINT('',(124.919539036225,39.0093944334097,34.0000000000002));
#1879=CARTESIAN_POINT('',(124.919539036225,39.0093944334097,51.4999999999997));
#1880=CARTESIAN_POINT('',(130.988174959327,45.0780303565118,34.0000000000002));
#1881=CARTESIAN_POINT('Origin',(129.744074672531,34.184858797103,51.4999999999997));
#1882=CARTESIAN_POINT('',(129.744074672531,34.184858797103,34.0000000000002));
#1883=CARTESIAN_POINT('',(107.803402009263,56.1255314603714,34.0000000000002));
#1884=CARTESIAN_POINT('',(129.744074672531,34.184858797103,51.4999999999997));
#1885=CARTESIAN_POINT('',(118.354270703674,45.5746627659601,51.4999999999998));
#1886=CARTESIAN_POINT('',(129.744074672531,34.184858797103,2.));
#1887=CARTESIAN_POINT('Origin',(131.99060684809,46.0804622452752,51.4999999999997));
#1888=CARTESIAN_POINT('',(136.659403820583,41.4116652727823,51.4999999999997));
#1889=CARTESIAN_POINT('',(123.013070697386,55.0579983959789,51.4999999999998));
#1890=CARTESIAN_POINT('',(136.659403820583,41.4116652727823,2.));
#1891=CARTESIAN_POINT('Origin',(110.,60.,51.4999999999998));
#1892=CARTESIAN_POINT('',(123.2500012815,89.6763789239902,51.4999999999997));
#1893=CARTESIAN_POINT('Origin',(110.,60.,51.4999999999998));
#1894=CARTESIAN_POINT('',(123.2500012815,72.,51.4999999999998));
#1895=CARTESIAN_POINT('',(123.2500012815,74.8381894619951,51.4999999999998));
#1896=CARTESIAN_POINT('',(136.,72.,51.4999999999998));
#1897=CARTESIAN_POINT('',(116.62500064075,72.,51.4999999999998));
#1898=CARTESIAN_POINT('',(136.,48.,51.4999999999998));
#1899=CARTESIAN_POINT('',(136.,66.,51.4999999999998));
#1900=CARTESIAN_POINT('',(123.0000012815,48.,51.4999999999998));
#1901=CARTESIAN_POINT('',(123.,48.,51.4999999999998));
#1902=CARTESIAN_POINT('',(123.000002428889,30.2132590428413,51.4999999999998));
#1903=CARTESIAN_POINT('',(123.0000012815,56.7499998286367,51.4999999999998));
#1904=CARTESIAN_POINT('Origin',(110.,60.,51.4999999999998));
#1905=CARTESIAN_POINT('',(142.5,60.,51.4999999999998));
#1906=CARTESIAN_POINT('Origin',(110.,60.,51.4999999999998));
#1907=CARTESIAN_POINT('Origin',(110.,60.,51.4999999999998));
#1908=CARTESIAN_POINT('Origin',(122.000001639128,39.2965240301562,53.9999999999999));
#1909=CARTESIAN_POINT('',(122.000001639128,39.2965240301562,33.9999999999998));
#1910=CARTESIAN_POINT('',(110.000001415663,39.2965240301562,34.0000000000002));
#1911=CARTESIAN_POINT('',(122.000001639128,39.2965240301562,10.4999999999999));
#1912=CARTESIAN_POINT('',(122.000001639128,39.2965240301562,27.9999999999999));
#1913=CARTESIAN_POINT('',(135.052267018498,39.2965240301562,10.4999999999999));
#1914=CARTESIAN_POINT('',(122.000001639128,39.2965240301562,10.4999999999999));
#1915=CARTESIAN_POINT('',(135.052267018498,39.2965240301562,2.));
#1916=CARTESIAN_POINT('Origin',(110.,60.,2.));
#1917=CARTESIAN_POINT('',(123.000002428889,30.2132590428413,45.4999999999997));
#1918=CARTESIAN_POINT('',(123.000002428889,30.2132590428413,49.4999999999998));
#1919=CARTESIAN_POINT('',(115.0000012815,27.8869187528665,45.4999999999997));
#1920=CARTESIAN_POINT('Origin',(110.,60.,45.4999999999997));
#1921=CARTESIAN_POINT('',(115.0000012815,27.8869187528665,34.0000000000002));
#1922=CARTESIAN_POINT('',(115.0000012815,27.8869187528665,2.));
#1923=CARTESIAN_POINT('Origin',(110.,60.,33.9999999999998));
#1924=CARTESIAN_POINT('Origin',(98.0000011921987,90.2034759698438,34.0000000000002));
#1925=CARTESIAN_POINT('',(115.0000012815,34.4999996572734,34.0000000000002));
#1926=CARTESIAN_POINT('',(115.0000012815,62.3517378135586,34.0000000000002));
#1927=CARTESIAN_POINT('',(105.0000012815,34.4999996572734,34.0000000000002));
#1928=CARTESIAN_POINT('',(101.500001236849,34.4999996572734,34.0000000000002));
#1929=CARTESIAN_POINT('',(105.0000012815,27.8869183538079,34.0000000000002));
#1930=CARTESIAN_POINT('',(105.0000012815,59.0451971618258,34.0000000000002));
#1931=CARTESIAN_POINT('',(90.2559267797369,34.1848576863716,34.0000000000002));
#1932=CARTESIAN_POINT('Origin',(110.,60.,33.9999999999998));
#1933=CARTESIAN_POINT('',(95.080462217387,39.0093931240216,34.0000000000002));
#1934=CARTESIAN_POINT('',(108.608867672545,52.5377985791801,34.0000000000002));
#1935=CARTESIAN_POINT('',(94.6933326381853,39.3965227032232,34.0000000000002));
#1936=CARTESIAN_POINT('',(79.4762923437016,54.6135629977069,34.0000000000002));
#1937=CARTESIAN_POINT('',(98.0000011921987,39.3965227276881,34.0000000000002));
#1938=CARTESIAN_POINT('',(91.4327146780039,39.3965226790991,34.0000000000002));
#1939=CARTESIAN_POINT('',(98.0000011921987,89.4964759698438,34.0000000000002));
#1940=CARTESIAN_POINT('',(98.0000016391277,59.9999993487659,34.0000000000002));
#1941=CARTESIAN_POINT('',(122.000001639128,89.4964759698438,34.0000000000002));
#1942=CARTESIAN_POINT('',(98.0000014156632,89.4964759698437,34.0000000000002));
#1943=CARTESIAN_POINT('',(122.000001639128,90.2034759698438,34.0000000000002));
#1944=CARTESIAN_POINT('Origin',(89.0319792818207,40.0319780003208,26.4999999999997));
#1945=CARTESIAN_POINT('',(94.6933326381853,39.3965227032232,26.4999999999997));
#1946=CARTESIAN_POINT('',(84.865427787907,39.3965226305101,26.4999999999997));
#1947=CARTESIAN_POINT('',(86.9487035372146,39.3965226459235,26.4999999999997));
#1948=CARTESIAN_POINT('',(88.0093944055215,46.0804609358871,26.4999999999997));
#1949=CARTESIAN_POINT('',(95.080462217387,39.0093931240216,26.4999999999997));
#1950=CARTESIAN_POINT('',(83.3405972323293,41.4116637626949,26.4999999999997));
#1951=CARTESIAN_POINT('',(88.0093944055215,46.0804609358871,26.4999999999997));
#1952=CARTESIAN_POINT('Origin',(110.,60.,26.4999999999997));
#1953=CARTESIAN_POINT('Origin',(83.3405972323293,41.4116637626949,51.4999999999997));
#1954=CARTESIAN_POINT('',(83.3405972323293,41.4116637626949,2.));
#1955=CARTESIAN_POINT('',(88.0093944055215,46.0804609358871,51.4999999999997));
#1956=CARTESIAN_POINT('Origin',(95.080462217387,39.0093931240216,51.4999999999997));
#1957=CARTESIAN_POINT('',(90.2559267797369,34.1848576863716,2.));
#1958=CARTESIAN_POINT('',(95.080462217387,39.0093931240216,51.4999999999997));
#1959=CARTESIAN_POINT('Origin',(88.0093944055215,46.0804609358871,51.4999999999997));
#1960=CARTESIAN_POINT('',(94.6933326381853,39.3965227032232,52.7499999999998));
#1961=CARTESIAN_POINT('Origin',(87.8874549269478,73.7914785426867,51.4999999999997));
#1962=CARTESIAN_POINT('',(87.8874549269478,73.7914785426867,26.4999999999997));
#1963=CARTESIAN_POINT('',(87.8874549269478,73.7914785426867,51.4999999999997));
#1964=CARTESIAN_POINT('',(83.2382507730751,78.4406826965594,26.4999999999997));
#1965=CARTESIAN_POINT('',(87.8874549269478,73.7914785426867,26.4999999999997));
#1966=CARTESIAN_POINT('',(83.2382507730751,78.4406826965594,2.));
#1967=CARTESIAN_POINT('Origin',(94.9585227388133,80.8625463545522,51.4999999999997));
#1968=CARTESIAN_POINT('',(94.9585227388133,80.8625463545522,26.4999999999997));
#1969=CARTESIAN_POINT('',(94.9585227388133,80.8625463545522,51.4999999999997));
#1970=CARTESIAN_POINT('',(94.9585227388133,80.8625463545522,26.4999999999997));
#1971=CARTESIAN_POINT('Origin',(90.1146184946227,85.7064505987427,51.4999999999997));
#1972=CARTESIAN_POINT('',(90.1146184946227,85.7064505987427,26.4999999999997));
#1973=CARTESIAN_POINT('',(90.1146184946227,85.7064505987427,2.));
#1974=CARTESIAN_POINT('',(87.9437925022067,87.8772765911587,26.4999999999997));
#1975=CARTESIAN_POINT('Origin',(88.9085095425338,79.8414917389661,26.4999999999997));
#1976=CARTESIAN_POINT('Origin',(110.,60.,26.4999999999997));
#1977=CARTESIAN_POINT('Origin',(84.865427787907,39.3965226305101,53.9999999999999));
#1978=CARTESIAN_POINT('',(84.865427787907,39.3965226305101,10.4999999999999));
#1979=CARTESIAN_POINT('',(84.865427787907,39.3965226305101,2.));
#1980=CARTESIAN_POINT('',(98.0000015681009,39.3965227276881,10.4999999999999));
#1981=CARTESIAN_POINT('',(98.0000015681009,39.3965227276881,10.4999999999999));
#1982=CARTESIAN_POINT('',(98.0000016391277,39.3965227276881,27.9999999999999));
#1983=CARTESIAN_POINT('Origin',(110.,60.,2.));
#1984=CARTESIAN_POINT('',(105.0000012815,27.8869183538079,45.4999999999997));
#1985=CARTESIAN_POINT('',(105.0000012815,27.8869183538079,2.));
#1986=CARTESIAN_POINT('Origin',(110.,60.,45.4999999999997));
#1987=CARTESIAN_POINT('Origin',(110.000001342465,89.5000000596046,40.4999999999996));
#1988=CARTESIAN_POINT('Origin',(139.24985638551,59.8633625191687,46.4999999999997));
#1989=CARTESIAN_POINT('Origin',(80.7501436157947,59.8633618984218,46.4999999999997));
#1990=CARTESIAN_POINT('Origin',(110.000001855195,29.2499985545874,45.4999999999997));
#1991=CARTESIAN_POINT('',(105.0000012815,34.4999996572734,45.4999999999997));
#1992=CARTESIAN_POINT('',(105.0000012815,28.5684584541977,45.4999999999997));
#1993=CARTESIAN_POINT('',(116.500001568347,34.4999996572734,45.4999999999997));
#1994=CARTESIAN_POINT('Origin',(110.000001855195,29.2499985545874,45.4999999999997));
#1995=CARTESIAN_POINT('',(123.000002428889,34.4999996572734,45.4999999999997));
#1996=CARTESIAN_POINT('',(123.000002428889,34.4999996572734,45.4999999999997));
#1997=CARTESIAN_POINT('',(115.0000012815,34.4999996572734,45.4999999999997));
#1998=CARTESIAN_POINT('',(116.500001568347,34.4999996572734,45.4999999999997));
#1999=CARTESIAN_POINT('',(115.0000012815,31.8749991059304,45.4999999999997));
#2000=CARTESIAN_POINT('Origin',(115.0000012815,34.4999996572734,51.4999999999997));
#2001=CARTESIAN_POINT('',(115.0000012815,34.4999996572734,52.4999999999998));
#2002=CARTESIAN_POINT('',(115.0000012815,34.4999996572734,34.5000000000002));
#2003=CARTESIAN_POINT('Origin',(123.0000012815,34.4999996572734,53.4999999999998));
#2004=CARTESIAN_POINT('',(123.0000012815,34.4999996572734,41.4999999999998));
#2005=CARTESIAN_POINT('Origin',(110.0000012815,89.5000000596047,45.4999999999997));
#2006=CARTESIAN_POINT('',(96.7500012814999,89.6763800683261,45.4999999999997));
#2007=CARTESIAN_POINT('',(123.2500012815,89.6763789239902,45.4999999999997));
#2008=CARTESIAN_POINT('Origin',(110.,60.,45.4999999999997));
#2009=CARTESIAN_POINT('',(96.7500012814999,86.5000001192093,45.4999999999997));
#2010=CARTESIAN_POINT('',(96.7500012814999,94.5000001192093,45.4999999999997));
#2011=CARTESIAN_POINT('',(123.2500012815,86.5000001192093,45.4999999999997));
#2012=CARTESIAN_POINT('',(103.3750012815,86.5000001192094,45.4999999999997));
#2013=CARTESIAN_POINT('',(123.2500012815,86.5000001192093,45.4999999999997));
#2014=CARTESIAN_POINT('Origin',(96.7500012814999,86.5000001192094,53.4999999999998));
#2015=CARTESIAN_POINT('',(96.7500012814999,86.5000001192094,41.4999999999998));
#2016=CARTESIAN_POINT('',(123.2500012815,86.5000001192094,53.4999999999998));
#2017=CARTESIAN_POINT('Origin',(98.0000016391277,89.4964759698438,2.));
#2018=CARTESIAN_POINT('',(98.0000016391277,89.4964759698438,2.));
#2019=CARTESIAN_POINT('',(98.0000016391277,89.4964759698438,2.));
#2020=CARTESIAN_POINT('',(122.000001639128,89.4964759698438,2.));
#2021=CARTESIAN_POINT('',(104.000000819564,89.4964759698438,2.));
#2022=CARTESIAN_POINT('',(122.000001639128,89.4964759698438,2.));
#2023=CARTESIAN_POINT('Origin',(98.0000016391277,29.7965227276881,2.));
#2024=CARTESIAN_POINT('',(98.0000016391278,29.7965227276881,10.4999999999999));
#2025=CARTESIAN_POINT('',(98.0000016391277,32.1965227276881,10.4999999999999));
#2026=CARTESIAN_POINT('',(98.0000016391277,29.7965227276881,2.));
#2027=CARTESIAN_POINT('',(98.0000016391277,29.7965227276881,2.));
#2028=CARTESIAN_POINT('',(98.0000016391277,90.2034759698438,2.));
#2029=CARTESIAN_POINT('Origin',(110.,60.,2.));
#2030=CARTESIAN_POINT('',(122.000001639128,29.7965227276881,2.));
#2031=CARTESIAN_POINT('Origin',(110.,60.,2.));
#2032=CARTESIAN_POINT('',(122.000001639128,29.7965227276881,2.));
#2033=CARTESIAN_POINT('Origin',(105.0000012815,34.4999996572734,51.4999999999997));
#2034=CARTESIAN_POINT('',(105.0000012815,34.4999996572734,34.5000000000002));
#2035=CARTESIAN_POINT('Origin',(96.7500012814999,63.5000001192094,53.4999999999998));
#2036=CARTESIAN_POINT('',(96.7500012814999,89.6763800683261,49.4999999999997));
#2037=CARTESIAN_POINT('Origin',(123.0000012815,53.4999996572734,53.4999999999998));
#2038=CARTESIAN_POINT('',(123.0000012815,48.,53.4999999999998));
#2039=CARTESIAN_POINT('Origin',(84.,48.,53.4999999999998));
#2040=CARTESIAN_POINT('',(84.,48.,53.4999999999998));
#2041=CARTESIAN_POINT('Origin',(97.0000012814999,48.,53.4999999999998));
#2042=CARTESIAN_POINT('Origin',(123.0000012815,34.4999996572734,53.4999999999998));
#2043=CARTESIAN_POINT('',(105.0000012815,34.4999996572734,51.4999999999997));
#2044=CARTESIAN_POINT('Origin',(105.0000012815,27.8869183538079,51.4999999999997));
#2045=CARTESIAN_POINT('Origin',(136.,48.,53.4999999999998));
#2046=CARTESIAN_POINT('',(136.,48.,53.4999999999998));
#2047=CARTESIAN_POINT('Origin',(136.,72.,53.4999999999998));
#2048=CARTESIAN_POINT('',(136.,72.,53.4999999999998));
#2049=CARTESIAN_POINT('Origin',(123.2500012815,72.,53.4999999999998));
#2050=CARTESIAN_POINT('',(123.2500012815,72.,53.4999999999998));
#2051=CARTESIAN_POINT('Origin',(123.2500012815,86.5000001192094,53.4999999999998));
#2052=CARTESIAN_POINT('',(123.2500012815,89.6763789239902,49.4999999999997));
#2053=CARTESIAN_POINT('Origin',(122.000001639128,90.2034759698438,2.));
#2054=CARTESIAN_POINT('',(122.000001639128,29.7965240301562,10.4999999999999));
#2055=CARTESIAN_POINT('',(122.000001639128,29.7965227276881,2.));
#2056=CARTESIAN_POINT('',(122.000001639128,62.375,10.4999999999999));
#2057=CARTESIAN_POINT('Origin',(91.4327147135174,34.5965227276881,10.4999999999999));
#2058=CARTESIAN_POINT('Origin',(110.,60.,10.4999999999999));
#2059=CARTESIAN_POINT('Origin',(128.526134328813,34.5465240301562,10.4999999999999));
#2060=CARTESIAN_POINT('Origin',(110.,60.,10.4999999999999));
#2061=CARTESIAN_POINT('Origin',(110.,60.,2.));
#2062=CARTESIAN_POINT('',(142.5,60.,0.));
#2063=CARTESIAN_POINT('',(142.5,60.,2.));
#2064=CARTESIAN_POINT('Origin',(110.,60.,0.));
#2065=CARTESIAN_POINT('Origin',(110.,60.,0.));
#2066=UNCERTAINTY_MEASURE_WITH_UNIT(LENGTH_MEASURE(0.01),#2070,
'DISTANCE_ACCURACY_VALUE',
'Maximum model space distance between geometric entities at asserted c
onnectivities');
#2067=UNCERTAINTY_MEASURE_WITH_UNIT(LENGTH_MEASURE(0.01),#2070,
'DISTANCE_ACCURACY_VALUE',
'Maximum model space distance between geometric entities at asserted c
onnectivities');
#2068=(
GEOMETRIC_REPRESENTATION_CONTEXT(3)
GLOBAL_UNCERTAINTY_ASSIGNED_CONTEXT((#2066))
GLOBAL_UNIT_ASSIGNED_CONTEXT((#2070,#2072,#2073))
REPRESENTATION_CONTEXT('','3D')
);
#2069=(
GEOMETRIC_REPRESENTATION_CONTEXT(3)
GLOBAL_UNCERTAINTY_ASSIGNED_CONTEXT((#2067))
GLOBAL_UNIT_ASSIGNED_CONTEXT((#2070,#2072,#2073))
REPRESENTATION_CONTEXT('','3D')
);
#2070=(
LENGTH_UNIT()
NAMED_UNIT(*)
SI_UNIT(.MILLI.,.METRE.)
);
#2071=(
LENGTH_UNIT()
NAMED_UNIT(*)
SI_UNIT($,.METRE.)
);
#2072=(
NAMED_UNIT(*)
PLANE_ANGLE_UNIT()
SI_UNIT($,.RADIAN.)
);
#2073=(
NAMED_UNIT(*)
SI_UNIT($,.STERADIAN.)
SOLID_ANGLE_UNIT()
);
#2074=SHAPE_DEFINITION_REPRESENTATION(#2075,#2076);
#2075=PRODUCT_DEFINITION_SHAPE('',$,#2078);
#2076=SHAPE_REPRESENTATION('',(#1276),#2068);
#2077=PRODUCT_DEFINITION_CONTEXT('part definition',#2082,'design');
#2078=PRODUCT_DEFINITION('BaseBottomV10','BaseBottomV10',#2079,#2077);
#2079=PRODUCT_DEFINITION_FORMATION('',$,#2084);
#2080=PRODUCT_RELATED_PRODUCT_CATEGORY('BaseBottomV10','BaseBottomV10',
(#2084));
#2081=APPLICATION_PROTOCOL_DEFINITION('international standard',
'automotive_design',2009,#2082);
#2082=APPLICATION_CONTEXT(
'Core Data for Automotive Mechanical Design Process');
#2083=PRODUCT_CONTEXT('part definition',#2082,'mechanical');
#2084=PRODUCT('BaseBottomV10','BaseBottomV10',$,(#2083));
#2085=PRESENTATION_STYLE_ASSIGNMENT((#2087));
#2086=PRESENTATION_STYLE_ASSIGNMENT((#2088));
#2087=SURFACE_STYLE_USAGE(.BOTH.,#2089);
#2088=SURFACE_STYLE_USAGE(.BOTH.,#2090);
#2089=SURFACE_SIDE_STYLE('',(#2091));
#2090=SURFACE_SIDE_STYLE('',(#2092));
#2091=SURFACE_STYLE_FILL_AREA(#2093);
#2092=SURFACE_STYLE_FILL_AREA(#2094);
#2093=FILL_AREA_STYLE('Steel - Satin',(#2095));
#2094=FILL_AREA_STYLE('Powder Coat (Red)',(#2096));
#2095=FILL_AREA_STYLE_COLOUR('Steel - Satin',#2097);
#2096=FILL_AREA_STYLE_COLOUR('Powder Coat (Red)',#2098);
#2097=COLOUR_RGB('Steel - Satin',0.627450980392157,0.627450980392157,0.627450980392157);
#2098=COLOUR_RGB('Powder Coat (Red)',0.768627450980392,0.207843137254902,
0.152941176470588);
ENDSEC;
END-ISO-10303-21;
